<svg xmlns="http://www.w3.org/2000/svg" xmlns:xlink="http://www.w3.org/1999/xlink" version="1.1" class="marks" width="859" height="381" viewBox="0 0 859 381"><rect width="859" height="381" fill="white"/><g fill="none" stroke-miterlimit="10" transform="translate(22,38)"><g class="mark-group role-frame root" role="graphics-object" aria-roledescription="group mark container"><g transform="translate(0,0)"><path class="background" aria-hidden="true" d="M0,0h0v200h0Z"/><g><g class="mark-group role-scope concat_0_group" role="graphics-object" aria-roledescription="group mark container"><g transform="translate(0,0)"><path class="background" aria-hidden="true" d="M0,0h200v200h-200Z"/><g><g class="mark-group role-axis" role="graphics-symbol" aria-roledescription="axis" aria-label="X-axis for a discrete scale with 4 values: Algorithms for ML with OT, Computational OT, Theory OT and ML, Applications"><g transform="translate(0.5,200.5)"><path class="background" aria-hidden="true" d="M0,0h0v0h0Z" pointer-events="none"/><g><g class="mark-rule role-axis-tick" pointer-events="none"><line transform="translate(25,0)" x2="0" y2="5" stroke="#888" stroke-width="1" opacity="1"/><line transform="translate(75,0)" x2="0" y2="5" stroke="#888" stroke-width="1" opacity="1"/><line transform="translate(125,0)" x2="0" y2="5" stroke="#888" stroke-width="1" opacity="1"/><line transform="translate(175,0)" x2="0" y2="5" stroke="#888" stroke-width="1" opacity="1"/></g><g class="mark-text role-axis-label" pointer-events="none"><text text-anchor="end" transform="translate(24.5,7) rotate(270) translate(0,3)" font-family="sans-serif" font-size="10px" fill="#000" opacity="1">Algorithms for ML with OT</text><text text-anchor="end" transform="translate(74.5,7) rotate(270) translate(0,3)" font-family="sans-serif" font-size="10px" fill="#000" opacity="1">Computational OT</text><text text-anchor="end" transform="translate(124.5,7) rotate(270) translate(0,3)" font-family="sans-serif" font-size="10px" fill="#000" opacity="1">Theory OT and ML</text><text text-anchor="end" transform="translate(174.5,7) rotate(270) translate(0,3)" font-family="sans-serif" font-size="10px" fill="#000" opacity="1">Applications</text></g><g class="mark-rule role-axis-domain" pointer-events="none"><line transform="translate(0,0)" x2="200" y2="0" stroke="#888" stroke-width="1" opacity="1"/></g></g><path class="foreground" aria-hidden="true" d="" pointer-events="none" display="none"/></g></g><g class="mark-rect role-mark concat_0_layer_0_marks" role="graphics-object" aria-roledescription="rect mark container"><path aria-label="paper_category: Computational OT; Count of Records: 74" role="graphics-symbol" aria-roledescription="bar" d="M52.5,126h45v74h-45Z" fill="#6baed6"/><path aria-label="paper_category: Algorithms for ML with OT; Count of Records: 200" role="graphics-symbol" aria-roledescription="bar" d="M2.5,0h45v200h-45Z" fill="#6baed6"/><path aria-label="paper_category: Theory OT and ML; Count of Records: 42" role="graphics-symbol" aria-roledescription="bar" d="M102.5,158h45v42h-45Z" fill="#6baed6"/><path aria-label="paper_category: Applications; Count of Records: 128" role="graphics-symbol" aria-roledescription="bar" d="M152.5,72h45v128h-45Z" fill="#6baed6"/></g><g class="mark-text role-mark concat_0_layer_1_marks" role="graphics-object" aria-roledescription="text mark container"><text aria-label="paper_category: Computational OT; Count of Records: 74" role="graphics-symbol" aria-roledescription="text mark" text-anchor="middle" transform="translate(75,120)" font-family="sans-serif" font-size="12px" fill="black">74</text><text aria-label="paper_category: Algorithms for ML with OT; Count of Records: 200" role="graphics-symbol" aria-roledescription="text mark" text-anchor="middle" transform="translate(25,-6)" font-family="sans-serif" font-size="12px" fill="black">200</text><text aria-label="paper_category: Theory OT and ML; Count of Records: 42" role="graphics-symbol" aria-roledescription="text mark" text-anchor="middle" transform="translate(125,152)" font-family="sans-serif" font-size="12px" fill="black">42</text><text aria-label="paper_category: Applications; Count of Records: 128" role="graphics-symbol" aria-roledescription="text mark" text-anchor="middle" transform="translate(175,66)" font-family="sans-serif" font-size="12px" fill="black">128</text></g><g class="mark-group role-title"><g transform="translate(100,-33)"><path class="background" aria-hidden="true" d="M0,0h0v0h0Z" pointer-events="none"/><g><g class="mark-text role-title-text" role="graphics-symbol" aria-roledescription="title" aria-label="Title text 'Number of Papers per Category'" pointer-events="none"><text text-anchor="middle" transform="translate(0,10)" font-family="sans-serif" font-size="13px" font-weight="bold" fill="#000" opacity="1">Number of Papers per Category</text></g></g><path class="foreground" aria-hidden="true" d="" pointer-events="none" display="none"/></g></g></g><path class="foreground" aria-hidden="true" d="" display="none"/></g></g><g class="mark-group role-scope concat_1_group" role="graphics-object" aria-roledescription="group mark container"><g transform="translate(291,0)"><path class="background" aria-hidden="true" d="M0,0h200v200h-200Z"/><g><g class="mark-group role-axis" role="graphics-symbol" aria-roledescription="axis" aria-label="X-axis for a discrete scale with 4 values: Algorithms for ML with OT, Computational OT, Theory OT and ML, Applications"><g transform="translate(0.5,200.5)"><path class="background" aria-hidden="true" d="M0,0h0v0h0Z" pointer-events="none"/><g><g class="mark-rule role-axis-tick" pointer-events="none"><line transform="translate(25,0)" x2="0" y2="5" stroke="#888" stroke-width="1" opacity="1"/><line transform="translate(75,0)" x2="0" y2="5" stroke="#888" stroke-width="1" opacity="1"/><line transform="translate(125,0)" x2="0" y2="5" stroke="#888" stroke-width="1" opacity="1"/><line transform="translate(175,0)" x2="0" y2="5" stroke="#888" stroke-width="1" opacity="1"/></g><g class="mark-text role-axis-label" pointer-events="none"><text text-anchor="end" transform="translate(24.5,7) rotate(270) translate(0,3)" font-family="sans-serif" font-size="10px" fill="#000" opacity="1">Algorithms for ML with OT</text><text text-anchor="end" transform="translate(74.5,7) rotate(270) translate(0,3)" font-family="sans-serif" font-size="10px" fill="#000" opacity="1">Computational OT</text><text text-anchor="end" transform="translate(124.5,7) rotate(270) translate(0,3)" font-family="sans-serif" font-size="10px" fill="#000" opacity="1">Theory OT and ML</text><text text-anchor="end" transform="translate(174.5,7) rotate(270) translate(0,3)" font-family="sans-serif" font-size="10px" fill="#000" opacity="1">Applications</text></g><g class="mark-rule role-axis-domain" pointer-events="none"><line transform="translate(0,0)" x2="200" y2="0" stroke="#888" stroke-width="1" opacity="1"/></g></g><path class="foreground" aria-hidden="true" d="" pointer-events="none" display="none"/></g></g><g class="mark-rect role-mark concat_1_layer_0_marks" role="graphics-object" aria-roledescription="rect mark container"><path aria-label="paper_category: Computational OT; Sum of citations: 3826" role="graphics-symbol" aria-roledescription="bar" d="M52.5,157.48888888888888h45v42.51111111111112h-45Z" fill="#4c78a8"/><path aria-label="paper_category: Algorithms for ML with OT; Sum of citations: 17780" role="graphics-symbol" aria-roledescription="bar" d="M2.5,2.444444444444449h45v197.55555555555554h-45Z" fill="#4c78a8"/><path aria-label="paper_category: Theory OT and ML; Sum of citations: 926" role="graphics-symbol" aria-roledescription="bar" d="M102.5,189.7111111111111h45v10.288888888888891h-45Z" fill="#4c78a8"/><path aria-label="paper_category: Applications; Sum of citations: 2532" role="graphics-symbol" aria-roledescription="bar" d="M152.5,171.86666666666665h45v28.133333333333354h-45Z" fill="#4c78a8"/></g><g class="mark-text role-mark concat_1_layer_1_marks" role="graphics-object" aria-roledescription="text mark container"><text aria-label="paper_category: Computational OT; Sum of citations: 3826" role="graphics-symbol" aria-roledescription="text mark" text-anchor="middle" transform="translate(75,151.48888888888888)" font-family="sans-serif" font-size="12px" fill="black">3826</text><text aria-label="paper_category: Algorithms for ML with OT; Sum of citations: 17780" role="graphics-symbol" aria-roledescription="text mark" text-anchor="middle" transform="translate(25,-3.555555555555551)" font-family="sans-serif" font-size="12px" fill="black">17780</text><text aria-label="paper_category: Theory OT and ML; Sum of citations: 926" role="graphics-symbol" aria-roledescription="text mark" text-anchor="middle" transform="translate(125,183.7111111111111)" font-family="sans-serif" font-size="12px" fill="black">926</text><text aria-label="paper_category: Applications; Sum of citations: 2532" role="graphics-symbol" aria-roledescription="text mark" text-anchor="middle" transform="translate(175,165.86666666666665)" font-family="sans-serif" font-size="12px" fill="black">2532</text></g><g class="mark-group role-title"><g transform="translate(100,-30.55555555555555)"><path class="background" aria-hidden="true" d="M0,0h0v0h0Z" pointer-events="none"/><g><g class="mark-text role-title-text" role="graphics-symbol" aria-roledescription="title" aria-label="Title text 'Number of Citations per Category'" pointer-events="none"><text text-anchor="middle" transform="translate(0,10)" font-family="sans-serif" font-size="13px" font-weight="bold" fill="#000" opacity="1">Number of Citations per Category</text></g></g><path class="foreground" aria-hidden="true" d="" pointer-events="none" display="none"/></g></g></g><path class="foreground" aria-hidden="true" d="" display="none"/></g></g><g class="mark-group role-scope concat_2_group" role="graphics-object" aria-roledescription="group mark container"><g transform="translate(617,0)"><path class="background" aria-hidden="true" d="M0.5,0.5h200v200h-200Z" stroke="#ddd"/><g><g class="mark-group role-axis" role="graphics-symbol" aria-roledescription="axis" aria-label="X-axis for a discrete scale with 4 values: Algorithms for ML with OT, Applications, Computational OT, Theory OT and ML"><g transform="translate(0.5,200.5)"><path class="background" aria-hidden="true" d="M0,0h0v0h0Z" pointer-events="none"/><g><g class="mark-rule role-axis-tick" pointer-events="none"><line transform="translate(25,0)" x2="0" y2="5" stroke="#888" stroke-width="1" opacity="1"/><line transform="translate(75,0)" x2="0" y2="5" stroke="#888" stroke-width="1" opacity="1"/><line transform="translate(125,0)" x2="0" y2="5" stroke="#888" stroke-width="1" opacity="1"/><line transform="translate(175,0)" x2="0" y2="5" stroke="#888" stroke-width="1" opacity="1"/></g><g class="mark-text role-axis-label" pointer-events="none"><text text-anchor="end" transform="translate(24.5,7) rotate(270) translate(0,3)" font-family="sans-serif" font-size="10px" fill="#000" opacity="1">Algorithms for ML with OT</text><text text-anchor="end" transform="translate(74.5,7) rotate(270) translate(0,3)" font-family="sans-serif" font-size="10px" fill="#000" opacity="1">Applications</text><text text-anchor="end" transform="translate(124.5,7) rotate(270) translate(0,3)" font-family="sans-serif" font-size="10px" fill="#000" opacity="1">Computational OT</text><text text-anchor="end" transform="translate(174.5,7) rotate(270) translate(0,3)" font-family="sans-serif" font-size="10px" fill="#000" opacity="1">Theory OT and ML</text></g><g class="mark-rule role-axis-domain" pointer-events="none"><line transform="translate(0,0)" x2="200" y2="0" stroke="#888" stroke-width="1" opacity="1"/></g></g><path class="foreground" aria-hidden="true" d="" pointer-events="none" display="none"/></g></g><g class="mark-symbol role-mark concat_2_layer_0_layer_0_layer_0_marks" role="graphics-object" aria-roledescription="symbol mark container"><path aria-label="log_cit: 2.63245729218; paper_category: Computational OT" role="graphics-symbol" aria-roledescription="point" transform="translate(125,68.37713539076378)" d="M2.7386127875258306,0A2.7386127875258306,2.7386127875258306,0,1,1,-2.7386127875258306,0A2.7386127875258306,2.7386127875258306,0,1,1,2.7386127875258306,0" stroke="#6baed6" stroke-width="2" opacity="0.7"/><path aria-label="log_cit: 3.79497574405; paper_category: Algorithms for ML with OT" role="graphics-symbol" aria-roledescription="point" transform="translate(25,10.25121279744341)" d="M2.7386127875258306,0A2.7386127875258306,2.7386127875258306,0,1,1,-2.7386127875258306,0A2.7386127875258306,2.7386127875258306,0,1,1,2.7386127875258306,0" stroke="#6baed6" stroke-width="2" opacity="0.7"/><path aria-label="log_cit: 2.22788670461; paper_category: Applications" role="graphics-symbol" aria-roledescription="point" transform="translate(75,88.60566476931633)" d="M2.7386127875258306,0A2.7386127875258306,2.7386127875258306,0,1,1,-2.7386127875258306,0A2.7386127875258306,2.7386127875258306,0,1,1,2.7386127875258306,0" stroke="#6baed6" stroke-width="2" opacity="0.7"/><path aria-label="log_cit: 2.44715803134; paper_category: Applications" role="graphics-symbol" aria-roledescription="point" transform="translate(75,77.64209843288903)" d="M2.7386127875258306,0A2.7386127875258306,2.7386127875258306,0,1,1,-2.7386127875258306,0A2.7386127875258306,2.7386127875258306,0,1,1,2.7386127875258306,0" stroke="#6baed6" stroke-width="2" opacity="0.7"/><path aria-label="log_cit: 2.26245108973; paper_category: Applications" role="graphics-symbol" aria-roledescription="point" transform="translate(75,86.87744551347853)" d="M2.7386127875258306,0A2.7386127875258306,2.7386127875258306,0,1,1,-2.7386127875258306,0A2.7386127875258306,2.7386127875258306,0,1,1,2.7386127875258306,0" stroke="#6baed6" stroke-width="2" opacity="0.7"/><path aria-label="log_cit: 2.13672056716; paper_category: Applications" role="graphics-symbol" aria-roledescription="point" transform="translate(75,93.16397164217966)" d="M2.7386127875258306,0A2.7386127875258306,2.7386127875258306,0,1,1,-2.7386127875258306,0A2.7386127875258306,2.7386127875258306,0,1,1,2.7386127875258306,0" stroke="#6baed6" stroke-width="2" opacity="0.7"/><path aria-label="log_cit: 2.58658730467; paper_category: Applications" role="graphics-symbol" aria-roledescription="point" transform="translate(75,70.67063476641225)" d="M2.7386127875258306,0A2.7386127875258306,2.7386127875258306,0,1,1,-2.7386127875258306,0A2.7386127875258306,2.7386127875258306,0,1,1,2.7386127875258306,0" stroke="#6baed6" stroke-width="2" opacity="0.7"/><path aria-label="log_cit: 2.26007138799; paper_category: Applications" role="graphics-symbol" aria-roledescription="point" transform="translate(75,86.99643060074627)" d="M2.7386127875258306,0A2.7386127875258306,2.7386127875258306,0,1,1,-2.7386127875258306,0A2.7386127875258306,2.7386127875258306,0,1,1,2.7386127875258306,0" stroke="#6baed6" stroke-width="2" opacity="0.7"/><path aria-label="log_cit: 2.1398790864; paper_category: Applications" role="graphics-symbol" aria-roledescription="point" transform="translate(75,93.00604567993818)" d="M2.7386127875258306,0A2.7386127875258306,2.7386127875258306,0,1,1,-2.7386127875258306,0A2.7386127875258306,2.7386127875258306,0,1,1,2.7386127875258306,0" stroke="#6baed6" stroke-width="2" opacity="0.7"/><path aria-label="log_cit: 2.43296929087; paper_category: Applications" role="graphics-symbol" aria-roledescription="point" transform="translate(75,78.3515354562797)" d="M2.7386127875258306,0A2.7386127875258306,2.7386127875258306,0,1,1,-2.7386127875258306,0A2.7386127875258306,2.7386127875258306,0,1,1,2.7386127875258306,0" stroke="#6baed6" stroke-width="2" opacity="0.7"/><path aria-label="log_cit: 3.11660774399; paper_category: Computational OT" role="graphics-symbol" aria-roledescription="point" transform="translate(125,44.16961280058758)" d="M2.7386127875258306,0A2.7386127875258306,2.7386127875258306,0,1,1,-2.7386127875258306,0A2.7386127875258306,2.7386127875258306,0,1,1,2.7386127875258306,0" stroke="#6baed6" stroke-width="2" opacity="0.7"/><path aria-label="log_cit: 2.89431606268; paper_category: Computational OT" role="graphics-symbol" aria-roledescription="point" transform="translate(125,55.28419686577808)" d="M2.7386127875258306,0A2.7386127875258306,2.7386127875258306,0,1,1,-2.7386127875258306,0A2.7386127875258306,2.7386127875258306,0,1,1,2.7386127875258306,0" stroke="#6baed6" stroke-width="2" opacity="0.7"/></g><g class="mark-rule role-mark concat_2_layer_0_layer_0_layer_1_layer_0_marks" aria-hidden="true"><line transform="translate(125,200)" x2="0" y2="-15.051499783199063" stroke="#6baed6"/><line transform="translate(25,200)" x2="0" y2="0" stroke="#6baed6"/><line transform="translate(175,200)" x2="0" y2="-15.051499783199063" stroke="#6baed6"/><line transform="translate(75,200)" x2="0" y2="-11.288624837399311" stroke="#6baed6"/></g><g class="mark-rule role-mark concat_2_layer_0_layer_0_layer_1_layer_1_marks" aria-hidden="true"><line transform="translate(125,139.79400086720375)" x2="0" y2="-58.62284872002934" stroke="#6baed6"/><line transform="translate(25,126.8801001050522)" x2="0" y2="-103.13234045689445" stroke="#6baed6"/><line transform="translate(175,130.32460915340351)" x2="0" y2="-46.53873191828815" stroke="#6baed6"/><line transform="translate(75,152.28787452803377)" x2="0" y2="-47.442373877630956" stroke="#6baed6"/></g><g class="mark-rect role-mark concat_2_layer_0_layer_1_layer_0_marks" role="graphics-object" aria-roledescription="rect mark container"><path aria-label="log_cit: 0.301029995664; upper_box_log_cit: 1.20411998266; paper_category: Computational OT; Max of log_cit: 3.11660774399; Q3 of log_cit: 1.20411998266; Median of log_cit: 0.778151250384; Q1 of log_cit: 0.301029995664; Min of log_cit: 0" role="graphics-symbol" aria-roledescription="box" d="M110,139.79400086720375h30v45.15449934959719h-30Z" fill="#6baed6"/><path aria-label="log_cit: 0; upper_box_log_cit: 1.4623979979; paper_category: Algorithms for ML with OT; Max of log_cit: 3.79497574405; Q3 of log_cit: 1.4623979979; Median of log_cit: 0.698970004336; Q1 of log_cit: 0; Min of log_cit: 0" role="graphics-symbol" aria-roledescription="box" d="M10,126.8801001050522h30v73.1198998949478h-30Z" fill="#6baed6"/><path aria-label="log_cit: 0.301029995664; upper_box_log_cit: 1.39350781693; paper_category: Theory OT and ML; Max of log_cit: 2.3242824553; Q3 of log_cit: 1.39350781693; Median of log_cit: 0.602059991328; Q1 of log_cit: 0.301029995664; Min of log_cit: 0" role="graphics-symbol" aria-roledescription="box" d="M160,130.32460915340351h30v54.62389106339742h-30Z" fill="#6baed6"/><path aria-label="log_cit: 0.225772496748; upper_box_log_cit: 0.954242509439; paper_category: Applications; Max of log_cit: 2.58658730467; Q3 of log_cit: 0.954242509439; Median of log_cit: 0.602059991328; Q1 of log_cit: 0.225772496748; Min of log_cit: 0" role="graphics-symbol" aria-roledescription="box" d="M60,152.28787452803377h30v36.42350063456692h-30Z" fill="#6baed6"/></g><g class="mark-rect role-mark concat_2_layer_0_layer_1_layer_1_marks" aria-hidden="true"><path d="M110,160.5924374808178h30v1h-30Z" fill="white" opacity="0.7"/><path d="M10,164.55149978319906h30v1h-30Z" fill="white" opacity="0.7"/><path d="M160,169.39700043360187h30v1h-30Z" fill="white" opacity="0.7"/><path d="M60,169.39700043360187h30v1h-30Z" fill="white" opacity="0.7"/></g><g class="mark-text role-mark concat_2_layer_1_marks" role="graphics-object" aria-roledescription="text mark container"><text aria-label="y: 0; x: 0; text: 0.0e+0" role="graphics-symbol" aria-roledescription="text mark" text-anchor="middle" transform="translate(-30,203)" font-family="sans-serif" font-size="11px" fill="black">0.0e+0</text><text aria-label="y: 1; x: 0; text: 1.0e+1" role="graphics-symbol" aria-roledescription="text mark" text-anchor="middle" transform="translate(-30,153)" font-family="sans-serif" font-size="11px" fill="black">1.0e+1</text><text aria-label="y: 2; x: 0; text: 1.0e+2" role="graphics-symbol" aria-roledescription="text mark" text-anchor="middle" transform="translate(-30,103)" font-family="sans-serif" font-size="11px" fill="black">1.0e+2</text><text aria-label="y: 3; x: 0; text: 1.0e+3" role="graphics-symbol" aria-roledescription="text mark" text-anchor="middle" transform="translate(-30,53)" font-family="sans-serif" font-size="11px" fill="black">1.0e+3</text><text aria-label="y: 4; x: 0; text: 1.0e+4" role="graphics-symbol" aria-roledescription="text mark" text-anchor="middle" transform="translate(-30,3)" font-family="sans-serif" font-size="11px" fill="black">1.0e+4</text></g><g class="mark-group role-title"><g transform="translate(100,-23)"><path class="background" aria-hidden="true" d="M0,0h0v0h0Z" pointer-events="none"/><g><g class="mark-text role-title-text" role="graphics-symbol" aria-roledescription="title" aria-label="Title text 'Box-plot of Citations per Paper'" pointer-events="none"><text text-anchor="middle" transform="translate(0,10)" font-family="sans-serif" font-size="13px" font-weight="bold" fill="#000" opacity="1">Box-plot of Citations per Paper</text></g></g><path class="foreground" aria-hidden="true" d="" pointer-events="none" display="none"/></g></g></g><path class="foreground" aria-hidden="true" d="" display="none"/></g></g></g><path class="foreground" aria-hidden="true" d="" display="none"/></g></g></g></svg>