<svg xmlns="http://www.w3.org/2000/svg" xmlns:xlink="http://www.w3.org/1999/xlink" version="1.1" class="marks" width="890" height="559" viewBox="0 0 890 559"><rect width="890" height="559" fill="white"/><g fill="none" stroke-miterlimit="10" transform="translate(137,6)"><g class="mark-group role-frame root" role="graphics-object" aria-roledescription="group mark container"><g transform="translate(0,0)"><path class="background" aria-hidden="true" d="M0,0h0v400h0Z"/><g><g class="mark-group role-scope concat_0_group" role="graphics-object" aria-roledescription="group mark container"><g transform="translate(0,0)"><path class="background" aria-hidden="true" d="M0.5,0.5h400v400h-400Z" stroke="#ddd"/><g><g class="mark-group role-axis" role="graphics-symbol" aria-roledescription="axis" aria-label="X-axis titled 'ML LEARNING TASK' for a discrete scale with 7 values: Generative Modelling, Representation Learning, Transfer Learning, Adversarial Robustness, Fairness Learning, Ranking, Regression/Classification"><g transform="translate(0.5,400.5)"><path class="background" aria-hidden="true" d="M0,0h0v0h0Z" pointer-events="none"/><g><g class="mark-rule role-axis-tick" pointer-events="none"><line transform="translate(29,0)" x2="0" y2="5" stroke="#888" stroke-width="1" opacity="1"/><line transform="translate(86,0)" x2="0" y2="5" stroke="#888" stroke-width="1" opacity="1"/><line transform="translate(143,0)" x2="0" y2="5" stroke="#888" stroke-width="1" opacity="1"/><line transform="translate(200,0)" x2="0" y2="5" stroke="#888" stroke-width="1" opacity="1"/><line transform="translate(257,0)" x2="0" y2="5" stroke="#888" stroke-width="1" opacity="1"/><line transform="translate(314,0)" x2="0" y2="5" stroke="#888" stroke-width="1" opacity="1"/><line transform="translate(371,0)" x2="0" y2="5" stroke="#888" stroke-width="1" opacity="1"/></g><g class="mark-text role-axis-label" pointer-events="none"><text text-anchor="end" transform="translate(28.571428571428555,7) rotate(270) translate(0,3)" font-family="sans-serif" font-size="10px" fill="#000" opacity="1">Generative Modelling</text><text text-anchor="end" transform="translate(85.7142857142857,7) rotate(270) translate(0,3)" font-family="sans-serif" font-size="10px" fill="#000" opacity="1">Representation Learning</text><text text-anchor="end" transform="translate(142.85714285714283,7) rotate(270) translate(0,3)" font-family="sans-serif" font-size="10px" fill="#000" opacity="1">Transfer Learning</text><text text-anchor="end" transform="translate(200,7) rotate(270) translate(0,3)" font-family="sans-serif" font-size="10px" fill="#000" opacity="1">Adversarial Robustness</text><text text-anchor="end" transform="translate(257.1428571428571,7) rotate(270) translate(0,3)" font-family="sans-serif" font-size="10px" fill="#000" opacity="1">Fairness Learning</text><text text-anchor="end" transform="translate(314.2857142857143,7) rotate(270) translate(0,3)" font-family="sans-serif" font-size="10px" fill="#000" opacity="1">Ranking</text><text text-anchor="end" transform="translate(371.42857142857144,7) rotate(270) translate(0,3)" font-family="sans-serif" font-size="10px" fill="#000" opacity="1">Regression/Classification</text></g><g class="mark-rule role-axis-domain" pointer-events="none"><line transform="translate(0,0)" x2="400" y2="0" stroke="#888" stroke-width="1" opacity="1"/></g><g class="mark-text role-axis-title" pointer-events="none"><text text-anchor="middle" transform="translate(200,144.2249984741211)" font-family="sans-serif" font-size="11px" font-weight="bold" fill="#000" opacity="1">ML LEARNING TASK</text></g></g><path class="foreground" aria-hidden="true" d="" pointer-events="none" display="none"/></g></g><g class="mark-group role-axis" role="graphics-symbol" aria-roledescription="axis" aria-label="Y-axis titled 'OT Formulation' for a discrete scale with 5 values: Wasserstein, Entropic Wasserstein, Sliced-Wasserstein, Gromov-Wassserstein, Other"><g transform="translate(0.5,0.5)"><path class="background" aria-hidden="true" d="M0,0h0v0h0Z" pointer-events="none"/><g><g class="mark-rule role-axis-tick" pointer-events="none"><line transform="translate(0,40)" x2="-5" y2="0" stroke="#888" stroke-width="1" opacity="1"/><line transform="translate(0,120)" x2="-5" y2="0" stroke="#888" stroke-width="1" opacity="1"/><line transform="translate(0,200)" x2="-5" y2="0" stroke="#888" stroke-width="1" opacity="1"/><line transform="translate(0,280)" x2="-5" y2="0" stroke="#888" stroke-width="1" opacity="1"/><line transform="translate(0,360)" x2="-5" y2="0" stroke="#888" stroke-width="1" opacity="1"/></g><g class="mark-text role-axis-label" pointer-events="none"><text text-anchor="end" transform="translate(-7,43)" font-family="sans-serif" font-size="10px" fill="#000" opacity="1">Wasserstein</text><text text-anchor="end" transform="translate(-7,123)" font-family="sans-serif" font-size="10px" fill="#000" opacity="1">Entropic Wasserstein</text><text text-anchor="end" transform="translate(-7,203)" font-family="sans-serif" font-size="10px" fill="#000" opacity="1">Sliced-Wasserstein</text><text text-anchor="end" transform="translate(-7,283)" font-family="sans-serif" font-size="10px" fill="#000" opacity="1">Gromov-Wassserstein</text><text text-anchor="end" transform="translate(-7,363)" font-family="sans-serif" font-size="10px" fill="#000" opacity="1">Other</text></g><g class="mark-rule role-axis-domain" pointer-events="none"><line transform="translate(0,0)" x2="0" y2="400" stroke="#888" stroke-width="1" opacity="1"/></g><g class="mark-text role-axis-title" pointer-events="none"><text text-anchor="middle" transform="translate(-119.125,200) rotate(-90) translate(0,-2)" font-family="sans-serif" font-size="11px" font-weight="bold" fill="#000" opacity="1">OT Formulation</text></g></g><path class="foreground" aria-hidden="true" d="" pointer-events="none" display="none"/></g></g><g class="mark-symbol role-mark concat_0_marks" role="graphics-object" aria-roledescription="symbol mark container"><path aria-label="ML LEARNING TASK: Generative Modelling; OT Formulation: Wasserstein; Count of Records: 10; OT Usage Type: OT as Metric" role="graphics-symbol" aria-roledescription="point" transform="translate(28.571428571428555,40)" d="M22.360679774997898,0A22.360679774997898,22.360679774997898,0,1,1,-22.360679774997898,0A22.360679774997898,22.360679774997898,0,1,1,22.360679774997898,0" stroke="#4c78a8" stroke-width="2" opacity="0.8"/><path aria-label="ML LEARNING TASK: Representation Learning; OT Formulation: Wasserstein; Count of Records: 2; OT Usage Type: OT as Metric" role="graphics-symbol" aria-roledescription="point" transform="translate(85.7142857142857,40)" d="M10,0A10,10,0,1,1,-10,0A10,10,0,1,1,10,0" stroke="#4c78a8" stroke-width="2" opacity="0.8"/><path aria-label="ML LEARNING TASK: Adversarial Robustness; OT Formulation: Wasserstein; Count of Records: 1; OT Usage Type: OT as Metric" role="graphics-symbol" aria-roledescription="point" transform="translate(200,40)" d="M7.0710678118654755,0A7.0710678118654755,7.0710678118654755,0,1,1,-7.0710678118654755,0A7.0710678118654755,7.0710678118654755,0,1,1,7.0710678118654755,0" stroke="#4c78a8" stroke-width="2" opacity="0.8"/><path aria-label="ML LEARNING TASK: Fairness Learning; OT Formulation: Wasserstein; Count of Records: 2; OT Usage Type: OT as Metric" role="graphics-symbol" aria-roledescription="point" transform="translate(257.1428571428571,40)" d="M10,0A10,10,0,1,1,-10,0A10,10,0,1,1,10,0" stroke="#4c78a8" stroke-width="2" opacity="0.8"/><path aria-label="ML LEARNING TASK: Ranking; OT Formulation: Wasserstein; Count of Records: 1; OT Usage Type: OT as Metric" role="graphics-symbol" aria-roledescription="point" transform="translate(314.2857142857143,40)" d="M7.0710678118654755,0A7.0710678118654755,7.0710678118654755,0,1,1,-7.0710678118654755,0A7.0710678118654755,7.0710678118654755,0,1,1,7.0710678118654755,0" stroke="#4c78a8" stroke-width="2" opacity="0.8"/><path aria-label="ML LEARNING TASK: Regression/Classification; OT Formulation: Wasserstein; Count of Records: 7; OT Usage Type: OT as Metric" role="graphics-symbol" aria-roledescription="point" transform="translate(371.42857142857144,40)" d="M18.708286933869708,0A18.708286933869708,18.708286933869708,0,1,1,-18.708286933869708,0A18.708286933869708,18.708286933869708,0,1,1,18.708286933869708,0" stroke="#4c78a8" stroke-width="2" opacity="0.8"/><path aria-label="ML LEARNING TASK: Regression/Classification; OT Formulation: Wasserstein; Count of Records: 1; OT Usage Type: OT Mapping" role="graphics-symbol" aria-roledescription="point" transform="translate(371.42857142857144,40)" d="M7.0710678118654755,0A7.0710678118654755,7.0710678118654755,0,1,1,-7.0710678118654755,0A7.0710678118654755,7.0710678118654755,0,1,1,7.0710678118654755,0" stroke="#f58518" stroke-width="2" opacity="0.8"/><path aria-label="ML LEARNING TASK: Transfer Learning; OT Formulation: Wasserstein; Count of Records: 1; OT Usage Type: OT as Metric" role="graphics-symbol" aria-roledescription="point" transform="translate(142.85714285714283,40)" d="M7.0710678118654755,0A7.0710678118654755,7.0710678118654755,0,1,1,-7.0710678118654755,0A7.0710678118654755,7.0710678118654755,0,1,1,7.0710678118654755,0" stroke="#4c78a8" stroke-width="2" opacity="0.8"/><path aria-label="ML LEARNING TASK: Transfer Learning; OT Formulation: Wasserstein; Count of Records: 7; OT Usage Type: OT Mapping" role="graphics-symbol" aria-roledescription="point" transform="translate(142.85714285714283,40)" d="M18.708286933869708,0A18.708286933869708,18.708286933869708,0,1,1,-18.708286933869708,0A18.708286933869708,18.708286933869708,0,1,1,18.708286933869708,0" stroke="#f58518" stroke-width="2" opacity="0.8"/><path aria-label="ML LEARNING TASK: Generative Modelling; OT Formulation: Sliced-Wasserstein; Count of Records: 3; OT Usage Type: OT as Metric" role="graphics-symbol" aria-roledescription="point" transform="translate(28.571428571428555,200)" d="M12.24744871391589,0A12.24744871391589,12.24744871391589,0,1,1,-12.24744871391589,0A12.24744871391589,12.24744871391589,0,1,1,12.24744871391589,0" stroke="#4c78a8" stroke-width="2" opacity="0.8"/><path aria-label="ML LEARNING TASK: Generative Modelling; OT Formulation: Sliced-Wasserstein; Count of Records: 1; OT Usage Type: OT Mapping" role="graphics-symbol" aria-roledescription="point" transform="translate(28.571428571428555,200)" d="M7.0710678118654755,0A7.0710678118654755,7.0710678118654755,0,1,1,-7.0710678118654755,0A7.0710678118654755,7.0710678118654755,0,1,1,7.0710678118654755,0" stroke="#f58518" stroke-width="2" opacity="0.8"/><path aria-label="ML LEARNING TASK: Transfer Learning; OT Formulation: Sliced-Wasserstein; Count of Records: 1; OT Usage Type: OT as Metric" role="graphics-symbol" aria-roledescription="point" transform="translate(142.85714285714283,200)" d="M7.0710678118654755,0A7.0710678118654755,7.0710678118654755,0,1,1,-7.0710678118654755,0A7.0710678118654755,7.0710678118654755,0,1,1,7.0710678118654755,0" stroke="#4c78a8" stroke-width="2" opacity="0.8"/><path aria-label="ML LEARNING TASK: Transfer Learning; OT Formulation: Sliced-Wasserstein; Count of Records: 1; OT Usage Type: OT Mapping" role="graphics-symbol" aria-roledescription="point" transform="translate(142.85714285714283,200)" d="M7.0710678118654755,0A7.0710678118654755,7.0710678118654755,0,1,1,-7.0710678118654755,0A7.0710678118654755,7.0710678118654755,0,1,1,7.0710678118654755,0" stroke="#f58518" stroke-width="2" opacity="0.8"/><path aria-label="ML LEARNING TASK: Regression/Classification; OT Formulation: Other; Count of Records: 1; OT Usage Type: OT as Metric" role="graphics-symbol" aria-roledescription="point" transform="translate(371.42857142857144,360)" d="M7.0710678118654755,0A7.0710678118654755,7.0710678118654755,0,1,1,-7.0710678118654755,0A7.0710678118654755,7.0710678118654755,0,1,1,7.0710678118654755,0" stroke="#4c78a8" stroke-width="2" opacity="0.8"/><path aria-label="ML LEARNING TASK: Generative Modelling; OT Formulation: Other; Count of Records: 2; OT Usage Type: OT as Metric" role="graphics-symbol" aria-roledescription="point" transform="translate(28.571428571428555,360)" d="M10,0A10,10,0,1,1,-10,0A10,10,0,1,1,10,0" stroke="#4c78a8" stroke-width="2" opacity="0.8"/><path aria-label="ML LEARNING TASK: Transfer Learning; OT Formulation: Other; Count of Records: 1; OT Usage Type: OT as Metric" role="graphics-symbol" aria-roledescription="point" transform="translate(142.85714285714283,360)" d="M7.0710678118654755,0A7.0710678118654755,7.0710678118654755,0,1,1,-7.0710678118654755,0A7.0710678118654755,7.0710678118654755,0,1,1,7.0710678118654755,0" stroke="#4c78a8" stroke-width="2" opacity="0.8"/><path aria-label="ML LEARNING TASK: Generative Modelling; OT Formulation: Gromov-Wassserstein; Count of Records: 1; OT Usage Type: OT as Metric" role="graphics-symbol" aria-roledescription="point" transform="translate(28.571428571428555,280)" d="M7.0710678118654755,0A7.0710678118654755,7.0710678118654755,0,1,1,-7.0710678118654755,0A7.0710678118654755,7.0710678118654755,0,1,1,7.0710678118654755,0" stroke="#4c78a8" stroke-width="2" opacity="0.8"/><path aria-label="ML LEARNING TASK: Representation Learning; OT Formulation: Gromov-Wassserstein; Count of Records: 2; OT Usage Type: OT as Metric" role="graphics-symbol" aria-roledescription="point" transform="translate(85.7142857142857,280)" d="M10,0A10,10,0,1,1,-10,0A10,10,0,1,1,10,0" stroke="#4c78a8" stroke-width="2" opacity="0.8"/><path aria-label="ML LEARNING TASK: Transfer Learning; OT Formulation: Gromov-Wassserstein; Count of Records: 1; OT Usage Type: OT Mapping" role="graphics-symbol" aria-roledescription="point" transform="translate(142.85714285714283,280)" d="M7.0710678118654755,0A7.0710678118654755,7.0710678118654755,0,1,1,-7.0710678118654755,0A7.0710678118654755,7.0710678118654755,0,1,1,7.0710678118654755,0" stroke="#f58518" stroke-width="2" opacity="0.8"/><path aria-label="ML LEARNING TASK: Generative Modelling; OT Formulation: Entropic Wasserstein; Count of Records: 5; OT Usage Type: OT as Metric" role="graphics-symbol" aria-roledescription="point" transform="translate(28.571428571428555,120)" d="M15.811388300841896,0A15.811388300841896,15.811388300841896,0,1,1,-15.811388300841896,0A15.811388300841896,15.811388300841896,0,1,1,15.811388300841896,0" stroke="#4c78a8" stroke-width="2" opacity="0.8"/><path aria-label="ML LEARNING TASK: Representation Learning; OT Formulation: Entropic Wasserstein; Count of Records: 2; OT Usage Type: OT Mapping" role="graphics-symbol" aria-roledescription="point" transform="translate(85.7142857142857,120)" d="M10,0A10,10,0,1,1,-10,0A10,10,0,1,1,10,0" stroke="#f58518" stroke-width="2" opacity="0.8"/><path aria-label="ML LEARNING TASK: Representation Learning; OT Formulation: Entropic Wasserstein; Count of Records: 2; OT Usage Type: OT as Metric" role="graphics-symbol" aria-roledescription="point" transform="translate(85.7142857142857,120)" d="M10,0A10,10,0,1,1,-10,0A10,10,0,1,1,10,0" stroke="#4c78a8" stroke-width="2" opacity="0.8"/><path aria-label="ML LEARNING TASK: Adversarial Robustness; OT Formulation: Entropic Wasserstein; Count of Records: 2; OT Usage Type: OT as Metric" role="graphics-symbol" aria-roledescription="point" transform="translate(200,120)" d="M10,0A10,10,0,1,1,-10,0A10,10,0,1,1,10,0" stroke="#4c78a8" stroke-width="2" opacity="0.8"/><path aria-label="ML LEARNING TASK: Ranking; OT Formulation: Entropic Wasserstein; Count of Records: 1; OT Usage Type: OT as Metric" role="graphics-symbol" aria-roledescription="point" transform="translate(314.2857142857143,120)" d="M7.0710678118654755,0A7.0710678118654755,7.0710678118654755,0,1,1,-7.0710678118654755,0A7.0710678118654755,7.0710678118654755,0,1,1,7.0710678118654755,0" stroke="#4c78a8" stroke-width="2" opacity="0.8"/><path aria-label="ML LEARNING TASK: Ranking; OT Formulation: Entropic Wasserstein; Count of Records: 2; OT Usage Type: OT Mapping" role="graphics-symbol" aria-roledescription="point" transform="translate(314.2857142857143,120)" d="M10,0A10,10,0,1,1,-10,0A10,10,0,1,1,10,0" stroke="#f58518" stroke-width="2" opacity="0.8"/><path aria-label="ML LEARNING TASK: Regression/Classification; OT Formulation: Entropic Wasserstein; Count of Records: 4; OT Usage Type: OT as Metric" role="graphics-symbol" aria-roledescription="point" transform="translate(371.42857142857144,120)" d="M14.142135623730951,0A14.142135623730951,14.142135623730951,0,1,1,-14.142135623730951,0A14.142135623730951,14.142135623730951,0,1,1,14.142135623730951,0" stroke="#4c78a8" stroke-width="2" opacity="0.8"/><path aria-label="ML LEARNING TASK: Regression/Classification; OT Formulation: Entropic Wasserstein; Count of Records: 1; OT Usage Type: OT Mapping" role="graphics-symbol" aria-roledescription="point" transform="translate(371.42857142857144,120)" d="M7.0710678118654755,0A7.0710678118654755,7.0710678118654755,0,1,1,-7.0710678118654755,0A7.0710678118654755,7.0710678118654755,0,1,1,7.0710678118654755,0" stroke="#f58518" stroke-width="2" opacity="0.8"/><path aria-label="ML LEARNING TASK: Transfer Learning; OT Formulation: Entropic Wasserstein; Count of Records: 1; OT Usage Type: OT as Metric" role="graphics-symbol" aria-roledescription="point" transform="translate(142.85714285714283,120)" d="M7.0710678118654755,0A7.0710678118654755,7.0710678118654755,0,1,1,-7.0710678118654755,0A7.0710678118654755,7.0710678118654755,0,1,1,7.0710678118654755,0" stroke="#4c78a8" stroke-width="2" opacity="0.8"/><path aria-label="ML LEARNING TASK: Transfer Learning; OT Formulation: Entropic Wasserstein; Count of Records: 4; OT Usage Type: OT Mapping" role="graphics-symbol" aria-roledescription="point" transform="translate(142.85714285714283,120)" d="M14.142135623730951,0A14.142135623730951,14.142135623730951,0,1,1,-14.142135623730951,0A14.142135623730951,14.142135623730951,0,1,1,14.142135623730951,0" stroke="#f58518" stroke-width="2" opacity="0.8"/></g></g><path class="foreground" aria-hidden="true" d="" display="none"/></g></g><g class="mark-group role-scope concat_1_group" role="graphics-object" aria-roledescription="group mark container"><g transform="translate(421,0)"><path class="background" aria-hidden="true" d="M0,0h200v400h-200Z"/><g><g class="mark-group role-axis" role="graphics-symbol" aria-roledescription="axis" aria-label="X-axis titled 'Count of Records' for a linear scale with values from 0 to 35"><g transform="translate(0.5,400.5)"><path class="background" aria-hidden="true" d="M0,0h0v0h0Z" pointer-events="none"/><g><g class="mark-text role-axis-title" pointer-events="none"><text text-anchor="middle" transform="translate(100,13)" font-family="sans-serif" font-size="11px" font-weight="bold" fill="#000" opacity="1">Count of Records</text></g></g><path class="foreground" aria-hidden="true" d="" pointer-events="none" display="none"/></g></g><g class="mark-group role-axis" role="graphics-symbol" aria-roledescription="axis" aria-label="Y-axis for a discrete scale with 5 values: 1, 2, 3, 4, 5"><g transform="translate(0.5,0.5)"><path class="background" aria-hidden="true" d="M0,0h0v0h0Z" pointer-events="none"/><g><g class="mark-rule role-axis-domain" pointer-events="none"><line transform="translate(0,0)" x2="0" y2="400" stroke="#888" stroke-width="1" opacity="1"/></g></g><path class="foreground" aria-hidden="true" d="" pointer-events="none" display="none"/></g></g><g class="mark-rect role-mark concat_1_layer_0_marks" role="graphics-object" aria-roledescription="rect mark container"><path aria-label="OTF_id: 1; Count of Records: 24; OT ML: OT as Metric" role="graphics-symbol" aria-roledescription="bar" d="M45.714285714285715,20h137.14285714285714v40h-137.14285714285714Z" fill="#4c78a8" opacity="0.8"/><path aria-label="OTF_id: 1; Count of Records: 8; OT ML: OT Mapping" role="graphics-symbol" aria-roledescription="bar" d="M0,20h45.714285714285715v40h-45.714285714285715Z" fill="#f58518" opacity="0.8"/><path aria-label="OTF_id: 3; Count of Records: 4; OT ML: OT as Metric" role="graphics-symbol" aria-roledescription="bar" d="M11.428571428571429,180h22.857142857142854v40h-22.857142857142854Z" fill="#4c78a8" opacity="0.8"/><path aria-label="OTF_id: 3; Count of Records: 2; OT ML: OT Mapping" role="graphics-symbol" aria-roledescription="bar" d="M0,180h11.428571428571429v40h-11.428571428571429Z" fill="#f58518" opacity="0.8"/><path aria-label="OTF_id: 5; Count of Records: 4; OT ML: OT as Metric" role="graphics-symbol" aria-roledescription="bar" d="M0,340h22.857142857142858v40h-22.857142857142858Z" fill="#4c78a8" opacity="0.8"/><path aria-label="OTF_id: 4; Count of Records: 3; OT ML: OT as Metric" role="graphics-symbol" aria-roledescription="bar" d="M5.714285714285714,260h17.142857142857142v40h-17.142857142857142Z" fill="#4c78a8" opacity="0.8"/><path aria-label="OTF_id: 4; Count of Records: 1; OT ML: OT Mapping" role="graphics-symbol" aria-roledescription="bar" d="M0,260h5.714285714285714v40h-5.714285714285714Z" fill="#f58518" opacity="0.8"/><path aria-label="OTF_id: 2; Count of Records: 15; OT ML: OT as Metric" role="graphics-symbol" aria-roledescription="bar" d="M51.42857142857142,100h85.71428571428572v40h-85.71428571428572Z" fill="#4c78a8" opacity="0.8"/><path aria-label="OTF_id: 2; Count of Records: 9; OT ML: OT Mapping" role="graphics-symbol" aria-roledescription="bar" d="M0,100h51.42857142857142v40h-51.42857142857142Z" fill="#f58518" opacity="0.8"/></g><g class="mark-text role-mark concat_1_layer_1_marks" role="graphics-object" aria-roledescription="text mark container"><text aria-label="OTF_id: 1; Count of Records: 32" role="graphics-symbol" aria-roledescription="text mark" text-anchor="start" transform="translate(185.85714285714286,44)" font-family="sans-serif" font-size="12px" fill="black">32</text><text aria-label="OTF_id: 3; Count of Records: 6" role="graphics-symbol" aria-roledescription="text mark" text-anchor="start" transform="translate(37.285714285714285,204)" font-family="sans-serif" font-size="12px" fill="black">6</text><text aria-label="OTF_id: 5; Count of Records: 4" role="graphics-symbol" aria-roledescription="text mark" text-anchor="start" transform="translate(25.857142857142858,364)" font-family="sans-serif" font-size="12px" fill="black">4</text><text aria-label="OTF_id: 4; Count of Records: 4" role="graphics-symbol" aria-roledescription="text mark" text-anchor="start" transform="translate(25.857142857142858,284)" font-family="sans-serif" font-size="12px" fill="black">4</text><text aria-label="OTF_id: 2; Count of Records: 24" role="graphics-symbol" aria-roledescription="text mark" text-anchor="start" transform="translate(140.14285714285714,124)" font-family="sans-serif" font-size="12px" fill="black">24</text></g></g><path class="foreground" aria-hidden="true" d="" display="none"/></g></g><g class="mark-group role-legend" role="graphics-symbol" aria-roledescription="legend" aria-label="Symbol legend titled 'OT Usage Type' for fill color and stroke color with 2 values: OT as Metric, OT Mapping"><g transform="translate(641,0)"><path class="background" aria-hidden="true" d="M0,0h92v45h-92Z" pointer-events="none"/><g><g class="mark-group role-legend-entry"><g transform="translate(0,16)"><path class="background" aria-hidden="true" d="M0,0h0v0h0Z" pointer-events="none"/><g><g class="mark-group role-scope" role="graphics-object" aria-roledescription="group mark container"><g transform="translate(0,0)"><path class="background" aria-hidden="true" d="M0,0h78.7249984741211v12.5h-78.7249984741211Z" pointer-events="none" opacity="1"/><g><g class="mark-symbol role-legend-symbol" pointer-events="none"><path transform="translate(6,6)" d="M5,0A5,5,0,1,1,-5,0A5,5,0,1,1,5,0" fill="#4c78a8" stroke="#4c78a8" stroke-width="1.5" opacity="0.8"/></g><g class="mark-text role-legend-label" pointer-events="none"><text text-anchor="start" transform="translate(16,9)" font-family="sans-serif" font-size="10px" fill="#000" opacity="1">OT as Metric</text></g></g><path class="foreground" aria-hidden="true" d="" pointer-events="none" display="none"/></g><g transform="translate(0,16)"><path class="background" aria-hidden="true" d="M0,0h78.7249984741211v12.5h-78.7249984741211Z" pointer-events="none" opacity="1"/><g><g class="mark-symbol role-legend-symbol" pointer-events="none"><path transform="translate(6,6)" d="M5,0A5,5,0,1,1,-5,0A5,5,0,1,1,5,0" fill="#f58518" stroke="#f58518" stroke-width="1.5" opacity="0.8"/></g><g class="mark-text role-legend-label" pointer-events="none"><text text-anchor="start" transform="translate(16,9)" font-family="sans-serif" font-size="10px" fill="#000" opacity="1">OT Mapping</text></g></g><path class="foreground" aria-hidden="true" d="" pointer-events="none" display="none"/></g></g></g><path class="foreground" aria-hidden="true" d="" pointer-events="none" display="none"/></g></g><g class="mark-text role-legend-title" pointer-events="none"><text text-anchor="start" transform="translate(0,9)" font-family="sans-serif" font-size="11px" font-weight="bold" fill="#000" opacity="1">OT Usage Type</text></g></g><path class="foreground" aria-hidden="true" d="" pointer-events="none" display="none"/></g></g><g class="mark-group role-legend" role="graphics-symbol" aria-roledescription="legend" aria-label="Symbol legend titled 'Count of Records' for size with values from 0 to 10"><g transform="translate(641,53)"><path class="background" aria-hidden="true" d="M0,0h107v211h-107Z" pointer-events="none"/><g><g class="mark-group role-legend-entry"><g transform="translate(0,16)"><path class="background" aria-hidden="true" d="M0,0h0v0h0Z" pointer-events="none"/><g><g class="mark-group role-scope" role="graphics-object" aria-roledescription="group mark container"><g transform="translate(0,0)"><path class="background" aria-hidden="true" d="M0,0h63.69999980926514v22.5h-63.69999980926514Z" pointer-events="none" opacity="1"/><g><g class="mark-symbol role-legend-symbol" pointer-events="none"><path transform="translate(23.5,11)" d="M10,0A10,10,0,1,1,-10,0A10,10,0,1,1,10,0" stroke="#888" stroke-width="1.5" opacity="0.8"/></g><g class="mark-text role-legend-label" pointer-events="none"><text text-anchor="start" transform="translate(51,14)" font-family="sans-serif" font-size="10px" fill="#000" opacity="1">2</text></g></g><path class="foreground" aria-hidden="true" d="" pointer-events="none" display="none"/></g><g transform="translate(0,26)"><path class="background" aria-hidden="true" d="M0,0h63.69999980926514v30.64213562373095h-63.69999980926514Z" pointer-events="none" opacity="1"/><g><g class="mark-symbol role-legend-symbol" pointer-events="none"><path transform="translate(23.5,15)" d="M14.142135623730951,0A14.142135623730951,14.142135623730951,0,1,1,-14.142135623730951,0A14.142135623730951,14.142135623730951,0,1,1,14.142135623730951,0" stroke="#888" stroke-width="1.5" opacity="0.8"/></g><g class="mark-text role-legend-label" pointer-events="none"><text text-anchor="start" transform="translate(51,18)" font-family="sans-serif" font-size="10px" fill="#000" opacity="1">4</text></g></g><path class="foreground" aria-hidden="true" d="" pointer-events="none" display="none"/></g><g transform="translate(0,60)"><path class="background" aria-hidden="true" d="M0,0h63.69999980926514v37.32050807568878h-63.69999980926514Z" pointer-events="none" opacity="1"/><g><g class="mark-symbol role-legend-symbol" pointer-events="none"><path transform="translate(23.5,18.5)" d="M17.320508075688775,0A17.320508075688775,17.320508075688775,0,1,1,-17.320508075688775,0A17.320508075688775,17.320508075688775,0,1,1,17.320508075688775,0" stroke="#888" stroke-width="1.5" opacity="0.8"/></g><g class="mark-text role-legend-label" pointer-events="none"><text text-anchor="start" transform="translate(51,21.5)" font-family="sans-serif" font-size="10px" fill="#000" opacity="1">6</text></g></g><path class="foreground" aria-hidden="true" d="" pointer-events="none" display="none"/></g><g transform="translate(0,101)"><path class="background" aria-hidden="true" d="M0,0h63.69999980926514v42.5h-63.69999980926514Z" pointer-events="none" opacity="1"/><g><g class="mark-symbol role-legend-symbol" pointer-events="none"><path transform="translate(23.5,21)" d="M20,0A20,20,0,1,1,-20,0A20,20,0,1,1,20,0" stroke="#888" stroke-width="1.5" opacity="0.8"/></g><g class="mark-text role-legend-label" pointer-events="none"><text text-anchor="start" transform="translate(51,24)" font-family="sans-serif" font-size="10px" fill="#000" opacity="1">8</text></g></g><path class="foreground" aria-hidden="true" d="" pointer-events="none" display="none"/></g><g transform="translate(0,147)"><path class="background" aria-hidden="true" d="M0,0h63.69999980926514v47.36067977499789h-63.69999980926514Z" pointer-events="none" opacity="1"/><g><g class="mark-symbol role-legend-symbol" pointer-events="none"><path transform="translate(23.5,23.5)" d="M22.360679774997898,0A22.360679774997898,22.360679774997898,0,1,1,-22.360679774997898,0A22.360679774997898,22.360679774997898,0,1,1,22.360679774997898,0" stroke="#888" stroke-width="1.5" opacity="0.8"/></g><g class="mark-text role-legend-label" pointer-events="none"><text text-anchor="start" transform="translate(51,26.5)" font-family="sans-serif" font-size="10px" fill="#000" opacity="1">10</text></g></g><path class="foreground" aria-hidden="true" d="" pointer-events="none" display="none"/></g></g></g><path class="foreground" aria-hidden="true" d="" pointer-events="none" display="none"/></g></g><g class="mark-text role-legend-title" pointer-events="none"><text text-anchor="start" transform="translate(0,9)" font-family="sans-serif" font-size="11px" font-weight="bold" fill="#000" opacity="1">Count of Records</text></g></g><path class="foreground" aria-hidden="true" d="" pointer-events="none" display="none"/></g></g></g><path class="foreground" aria-hidden="true" d="" display="none"/></g></g></g></svg>