<?xml version="1.0" encoding="utf-8"?>
<!DOCTYPE svg PUBLIC "-//W3C//DTD SVG 1.1//EN" "http://www.w3.org/Graphics/SVG/1.1/DTD/svg11.dtd">
<svg class="marks" width="512" height="161" viewBox="0 0 512 161" version="1.1" xmlns="http://www.w3.org/2000/svg" xmlns:xlink="http://www.w3.org/1999/xlink"><rect width="512" height="161" fill="white"></rect><g fill="none" stroke-miterlimit="10" transform="translate(43,23)"><g class="mark-group role-frame root" role="graphics-object" aria-roledescription="group mark container"><g transform="translate(0,0)"><path class="background" aria-hidden="true" d="M0,0h0v100h0Z"></path><g><g class="mark-group role-scope concat_0_group" role="graphics-object" aria-roledescription="group mark container"><g transform="translate(0,0)"><path class="background" aria-hidden="true" d="M0.5,0.5h200v100h-200Z" stroke="#ddd"></path><g><g class="mark-group role-axis" role="graphics-symbol" aria-roledescription="axis" aria-label="X-axis titled 'x' for a linear scale with values from 0.0 to 1.0"><g transform="translate(0.5,100.5)"><path class="background" aria-hidden="true" d="M0,0h0v0h0Z" pointer-events="none"></path><g><g class="mark-rule role-axis-tick" pointer-events="none"><line transform="translate(0,0)" x2="0" y2="5" stroke="#888" stroke-width="1" opacity="1"></line><line transform="translate(40,0)" x2="0" y2="5" stroke="#888" stroke-width="1" opacity="1"></line><line transform="translate(80,0)" x2="0" y2="5" stroke="#888" stroke-width="1" opacity="1"></line><line transform="translate(120,0)" x2="0" y2="5" stroke="#888" stroke-width="1" opacity="1"></line><line transform="translate(160,0)" x2="0" y2="5" stroke="#888" stroke-width="1" opacity="1"></line><line transform="translate(200,0)" x2="0" y2="5" stroke="#888" stroke-width="1" opacity="1"></line></g><g class="mark-text role-axis-label" pointer-events="none"><text text-anchor="start" transform="translate(0,15)" font-family="sans-serif" font-size="10px" fill="#000" opacity="1">0.0</text><text text-anchor="middle" transform="translate(40,15)" font-family="sans-serif" font-size="10px" fill="#000" opacity="1">0.2</text><text text-anchor="middle" transform="translate(80,15)" font-family="sans-serif" font-size="10px" fill="#000" opacity="1">0.4</text><text text-anchor="middle" transform="translate(120,15)" font-family="sans-serif" font-size="10px" fill="#000" opacity="1">0.6</text><text text-anchor="middle" transform="translate(160,15)" font-family="sans-serif" font-size="10px" fill="#000" opacity="1">0.8</text><text text-anchor="end" transform="translate(200,15)" font-family="sans-serif" font-size="10px" fill="#000" opacity="1">1.0</text></g><g class="mark-rule role-axis-domain" pointer-events="none"><line transform="translate(0,0)" x2="200" y2="0" stroke="#888" stroke-width="1" opacity="1"></line></g><g class="mark-text role-axis-title" pointer-events="none"><text text-anchor="middle" transform="translate(100,30)" font-family="sans-serif" font-size="11px" font-weight="bold" fill="#000" opacity="1">x</text></g></g><path class="foreground" aria-hidden="true" d="" pointer-events="none" display="none"></path></g></g><g class="mark-group role-axis" role="graphics-symbol" aria-roledescription="axis" aria-label="Y-axis titled 'y' for a linear scale with values from 0.0 to 1.6"><g transform="translate(0.5,0.5)"><path class="background" aria-hidden="true" d="M0,0h0v0h0Z" pointer-events="none"></path><g><g class="mark-rule role-axis-tick" pointer-events="none"><line transform="translate(0,100)" x2="-5" y2="0" stroke="#888" stroke-width="1" opacity="1"></line><line transform="translate(0,69)" x2="-5" y2="0" stroke="#888" stroke-width="1" opacity="1"></line><line transform="translate(0,38)" x2="-5" y2="0" stroke="#888" stroke-width="1" opacity="1"></line><line transform="translate(0,6)" x2="-5" y2="0" stroke="#888" stroke-width="1" opacity="1"></line></g><g class="mark-text role-axis-label" pointer-events="none"><text text-anchor="end" transform="translate(-7,103)" font-family="sans-serif" font-size="10px" fill="#000" opacity="1">0.0</text><text text-anchor="end" transform="translate(-7,71.75)" font-family="sans-serif" font-size="10px" fill="#000" opacity="1">0.5</text><text text-anchor="end" transform="translate(-7,40.5)" font-family="sans-serif" font-size="10px" fill="#000" opacity="1">1.0</text><text text-anchor="end" transform="translate(-7,9.25)" font-family="sans-serif" font-size="10px" fill="#000" opacity="1">1.5</text></g><g class="mark-rule role-axis-domain" pointer-events="none"><line transform="translate(0,100)" x2="0" y2="-100" stroke="#888" stroke-width="1" opacity="1"></line></g><g class="mark-text role-axis-title" pointer-events="none"><text text-anchor="middle" transform="translate(-26,50) rotate(-90) translate(0,-2)" font-family="sans-serif" font-size="11px" font-weight="bold" fill="#000" opacity="1">y</text></g></g><path class="foreground" aria-hidden="true" d="" pointer-events="none" display="none"></path></g></g><g class="mark-line role-mark concat_0_layer_0_marks" role="graphics-object" aria-roledescription="line mark container"><path aria-label="x1: 0; x2: 0.5" role="graphics-symbol" aria-roledescription="line mark" d="M0,68.75L2,68.75L4,68.75L6,68.75L8,68.75L10,68.75L12,68.75L14.000000000000002,68.75L16,68.75L18,68.75L20,68.75L22,68.75L24,68.75L26,68.75L28.000000000000004,68.75L30,68.75L32,68.75L34,68.75L36,68.75L38,68.75L40,68.75L42,68.75L44,68.75L46,68.75L48,68.75L50,68.75L52,68.75L54,68.75L56.00000000000001,68.75L57.99999999999999,68.75L60,68.75L62,68.75L64,68.75L66,68.75L68,68.75L70,68.75L72,68.75L74,68.75L76,68.75L78,68.75L80,68.75L82,68.75L84,68.75L86,68.75L88,68.75L90,68.75L92,68.75L94,68.75L96,68.75L98,68.75" stroke="#4c78a8" stroke-width="2"></path></g><g class="mark-symbol role-mark concat_0_layer_1_marks" role="graphics-object" aria-roledescription="symbol mark container"><path aria-label="x1: 0.5; x2: 1" role="graphics-symbol" aria-roledescription="circle" transform="translate(100,37.5)" d="M2.7386127875258306,0A2.7386127875258306,2.7386127875258306,0,1,1,-2.7386127875258306,0A2.7386127875258306,2.7386127875258306,0,1,1,2.7386127875258306,0" fill="#4682b4" stroke="#4682b4" stroke-width="2" opacity="0.7"></path></g><g class="mark-symbol role-mark concat_0_layer_2_marks" role="graphics-object" aria-roledescription="symbol mark container"><path aria-label="x1: 0.5; x2: 0.5" role="graphics-symbol" aria-roledescription="circle" transform="translate(100,68.75)" d="M2.7386127875258306,0A2.7386127875258306,2.7386127875258306,0,1,1,-2.7386127875258306,0A2.7386127875258306,2.7386127875258306,0,1,1,2.7386127875258306,0" fill="white" stroke="#4682b4" stroke-width="2" opacity="0.7"></path><path aria-label="x1: 0.5; x2: 0.25" role="graphics-symbol" aria-roledescription="circle" transform="translate(100,84.375)" d="M2.7386127875258306,0A2.7386127875258306,2.7386127875258306,0,1,1,-2.7386127875258306,0A2.7386127875258306,2.7386127875258306,0,1,1,2.7386127875258306,0" fill="white" stroke="#4682b4" stroke-width="2" opacity="0.7"></path></g><g class="mark-line role-mark concat_0_layer_3_marks" role="graphics-object" aria-roledescription="line mark container"><path aria-label="x: 0.51; y: 0.2601" role="graphics-symbol" aria-roledescription="line mark" d="M102,83.74375L104,83.1L106,82.44375L108,81.77499999999999L110.00000000000001,81.09375L112.00000000000001,80.4L113.99999999999999,79.69375000000001L115.99999999999999,78.97500000000001L118,78.24375L120,77.5L122,76.74375L124,75.97500000000001L126,75.19375L128,74.4L130,73.59374999999999L132,72.775L134,71.94375L136,71.1L138,70.24375L140,69.37500000000001L142,68.49374999999999L144,67.60000000000001L146,66.69375000000001L148,65.775L150,64.84375L152,63.9L154,62.94375000000001L156,61.975L158,60.993750000000006L160,59.999999999999986L162,58.99375L164,57.97500000000001L166,56.94375L168,55.90000000000002L170,54.843750000000014L172,53.775000000000006L174,52.69375000000001L176,51.6L178,50.493750000000006L180,49.375L182,48.24375L184,47.099999999999994L186,45.943749999999994L188,44.775000000000006L190,43.59375000000001L192,42.400000000000006L194,41.19375000000001L196,39.97500000000001L198,38.74375000000001L200,37.5" stroke="#4c78a8" stroke-width="2"></path></g><g class="mark-group role-title"><g transform="translate(100,-17)"><path class="background" aria-hidden="true" d="M0,0h0v0h0Z" pointer-events="none"></path><g><g class="mark-text role-title-text" role="graphics-symbol" aria-roledescription="title" aria-label="Title text 'F'" pointer-events="none"><text text-anchor="middle" transform="translate(0,10)" font-family="sans-serif" font-size="13px" font-weight="bold" fill="#000" opacity="1">F</text></g></g><path class="foreground" aria-hidden="true" d="" pointer-events="none" display="none"></path></g></g></g><path class="foreground" aria-hidden="true" d="" display="none"></path></g></g><g class="mark-group role-scope concat_1_group" role="graphics-object" aria-roledescription="group mark container"><g transform="translate(261,0)"><path class="background" aria-hidden="true" d="M0.5,0.5h200v100h-200Z" stroke="#ddd"></path><g><g class="mark-group role-axis" role="graphics-symbol" aria-roledescription="axis" aria-label="X-axis titled 'x' for a linear scale with values from 0.0 to 1.0"><g transform="translate(0.5,100.5)"><path class="background" aria-hidden="true" d="M0,0h0v0h0Z" pointer-events="none"></path><g><g class="mark-rule role-axis-tick" pointer-events="none"><line transform="translate(0,0)" x2="0" y2="5" stroke="#888" stroke-width="1" opacity="1"></line><line transform="translate(40,0)" x2="0" y2="5" stroke="#888" stroke-width="1" opacity="1"></line><line transform="translate(80,0)" x2="0" y2="5" stroke="#888" stroke-width="1" opacity="1"></line><line transform="translate(120,0)" x2="0" y2="5" stroke="#888" stroke-width="1" opacity="1"></line><line transform="translate(160,0)" x2="0" y2="5" stroke="#888" stroke-width="1" opacity="1"></line><line transform="translate(200,0)" x2="0" y2="5" stroke="#888" stroke-width="1" opacity="1"></line></g><g class="mark-text role-axis-label" pointer-events="none"><text text-anchor="start" transform="translate(0,15)" font-family="sans-serif" font-size="10px" fill="#000" opacity="1">0.0</text><text text-anchor="middle" transform="translate(40,15)" font-family="sans-serif" font-size="10px" fill="#000" opacity="1">0.2</text><text text-anchor="middle" transform="translate(80,15)" font-family="sans-serif" font-size="10px" fill="#000" opacity="1">0.4</text><text text-anchor="middle" transform="translate(120,15)" font-family="sans-serif" font-size="10px" fill="#000" opacity="1">0.6</text><text text-anchor="middle" transform="translate(160,15)" font-family="sans-serif" font-size="10px" fill="#000" opacity="1">0.8</text><text text-anchor="end" transform="translate(200,15)" font-family="sans-serif" font-size="10px" fill="#000" opacity="1">1.0</text></g><g class="mark-rule role-axis-domain" pointer-events="none"><line transform="translate(0,0)" x2="200" y2="0" stroke="#888" stroke-width="1" opacity="1"></line></g><g class="mark-text role-axis-title" pointer-events="none"><text text-anchor="middle" transform="translate(100,30)" font-family="sans-serif" font-size="11px" font-weight="bold" fill="#000" opacity="1">x</text></g></g><path class="foreground" aria-hidden="true" d="" pointer-events="none" display="none"></path></g></g><g class="mark-group role-axis" role="graphics-symbol" aria-roledescription="axis" aria-label="Y-axis titled 'y' for a linear scale with values from 0.0 to 1.6"><g transform="translate(0.5,0.5)"><path class="background" aria-hidden="true" d="M0,0h0v0h0Z" pointer-events="none"></path><g><g class="mark-rule role-axis-tick" pointer-events="none"><line transform="translate(0,100)" x2="-5" y2="0" stroke="#888" stroke-width="1" opacity="1"></line><line transform="translate(0,69)" x2="-5" y2="0" stroke="#888" stroke-width="1" opacity="1"></line><line transform="translate(0,38)" x2="-5" y2="0" stroke="#888" stroke-width="1" opacity="1"></line><line transform="translate(0,6)" x2="-5" y2="0" stroke="#888" stroke-width="1" opacity="1"></line></g><g class="mark-text role-axis-label" pointer-events="none"><text text-anchor="end" transform="translate(-7,103)" font-family="sans-serif" font-size="10px" fill="#000" opacity="1">0.0</text><text text-anchor="end" transform="translate(-7,71.75)" font-family="sans-serif" font-size="10px" fill="#000" opacity="1">0.5</text><text text-anchor="end" transform="translate(-7,40.5)" font-family="sans-serif" font-size="10px" fill="#000" opacity="1">1.0</text><text text-anchor="end" transform="translate(-7,9.25)" font-family="sans-serif" font-size="10px" fill="#000" opacity="1">1.5</text></g><g class="mark-rule role-axis-domain" pointer-events="none"><line transform="translate(0,100)" x2="0" y2="-100" stroke="#888" stroke-width="1" opacity="1"></line></g><g class="mark-text role-axis-title" pointer-events="none"><text text-anchor="middle" transform="translate(-26,50) rotate(-90) translate(0,-2)" font-family="sans-serif" font-size="11px" font-weight="bold" fill="#000" opacity="1">y</text></g></g><path class="foreground" aria-hidden="true" d="" pointer-events="none" display="none"></path></g></g><g class="mark-line role-mark concat_1_layer_0_marks" role="graphics-object" aria-roledescription="line mark container"><path aria-label="x1: 0; x2: 0.5" role="graphics-symbol" aria-roledescription="line mark" d="M0,68.75L2,68.75L4,68.75L6,68.75L8,68.75L10,68.75L12,68.75L14.000000000000002,68.75L16,68.75L18,68.75L20,68.75L22,68.75L24,68.75L26,68.75L28.000000000000004,68.75L30,68.75L32,68.75L34,68.75L36,68.75L38,68.75L40,68.75L42,68.75L44,68.75L46,68.75L48,68.75L50,68.75L52,68.75L54,68.75L56.00000000000001,68.75L57.99999999999999,68.75L60,68.75L62,68.75L64,68.75L66,68.75L68,68.75L70,68.75L72,68.75L74,68.75L76,68.75L78,68.75L80,68.75L82,68.75L84,68.75L86,68.75L88,68.75L90,68.75L92,68.75L94,68.75L96,68.75L98,68.75" stroke="red" stroke-width="2"></path></g><g class="mark-symbol role-mark concat_1_layer_1_marks" role="graphics-object" aria-roledescription="symbol mark container"><path aria-label="x1: 0.5; x2: 0.25" role="graphics-symbol" aria-roledescription="circle" transform="translate(100,84.375)" d="M2.7386127875258306,0A2.7386127875258306,2.7386127875258306,0,1,1,-2.7386127875258306,0A2.7386127875258306,2.7386127875258306,0,1,1,2.7386127875258306,0" fill="red" stroke="red" stroke-width="2" opacity="0.7"></path></g><g class="mark-symbol role-mark concat_1_layer_2_marks" role="graphics-object" aria-roledescription="symbol mark container"><path aria-label="x1: 0.5; x2: 0.5" role="graphics-symbol" aria-roledescription="circle" transform="translate(100,68.75)" d="M2.7386127875258306,0A2.7386127875258306,2.7386127875258306,0,1,1,-2.7386127875258306,0A2.7386127875258306,2.7386127875258306,0,1,1,2.7386127875258306,0" fill="white" stroke="red" stroke-width="2" opacity="0.7"></path></g><g class="mark-line role-mark concat_1_layer_3_marks" role="graphics-object" aria-roledescription="line mark container"><path aria-label="x: 0.51; y: 0.2601" role="graphics-symbol" aria-roledescription="line mark" d="M102,83.74375L104,83.1L106,82.44375L108,81.77499999999999L110.00000000000001,81.09375L112.00000000000001,80.4L113.99999999999999,79.69375000000001L115.99999999999999,78.97500000000001L118,78.24375L120,77.5L122,76.74375L124,75.97500000000001L126,75.19375L128,74.4L130,73.59374999999999L132,72.775L134,71.94375L136,71.1L138,70.24375L140,69.37500000000001L142,68.49374999999999L144,67.60000000000001L146,66.69375000000001L148,65.775L150,64.84375L152,63.9L154,62.94375000000001L156,61.975L158,60.993750000000006L160,59.999999999999986L162,58.99375L164,57.97500000000001L166,56.94375L168,55.90000000000002L170,54.843750000000014L172,53.775000000000006L174,52.69375000000001L176,51.6L178,50.493750000000006L180,49.375L182,48.24375L184,47.099999999999994L186,45.943749999999994L188,44.775000000000006L190,43.59375000000001L192,42.400000000000006L194,41.19375000000001L196,39.97500000000001L198,38.74375000000001L200,37.5" stroke="red" stroke-width="2"></path></g><g class="mark-group role-title"><g transform="translate(100,-17)"><path class="background" aria-hidden="true" d="M0,0h0v0h0Z" pointer-events="none"></path><g><g class="mark-text role-title-text" role="graphics-symbol" aria-roledescription="title" aria-label="Title text 'F relaxed'" pointer-events="none"><text text-anchor="middle" transform="translate(0,10)" font-family="sans-serif" font-size="13px" font-weight="bold" fill="#000" opacity="1">F relaxed</text></g></g><path class="foreground" aria-hidden="true" d="" pointer-events="none" display="none"></path></g></g></g><path class="foreground" aria-hidden="true" d="" display="none"></path></g></g></g><path class="foreground" aria-hidden="true" d="" display="none"></path></g></g></g></svg>
