<?xml version="1.0" encoding="UTF-8" standalone="no"?>
<svg
   xmlns:dc="http://purl.org/dc/elements/1.1/"
   xmlns:cc="http://creativecommons.org/ns#"
   xmlns:rdf="http://www.w3.org/1999/02/22-rdf-syntax-ns#"
   xmlns:svg="http://www.w3.org/2000/svg"
   xmlns="http://www.w3.org/2000/svg"
   xmlns:sodipodi="http://sodipodi.sourceforge.net/DTD/sodipodi-0.dtd"
   xmlns:inkscape="http://www.inkscape.org/namespaces/inkscape"
   width="209.93726mm"
   height="81.108307mm"
   viewBox="0 0 209.93726 81.108307"
   version="1.1"
   id="svg983"
   inkscape:version="1.0.1 (3bc2e813f5, 2020-09-07)"
   sodipodi:docname="wgan.svg">
  <defs
     id="defs977">
    <mask
       maskUnits="userSpaceOnUse"
       id="mask1172">
      <rect
         style="opacity:1;fill:#e6e6e6;fill-opacity:1;stroke:none;stroke-width:0.5;stroke-miterlimit:4;stroke-dasharray:none;stroke-opacity:0.953846"
         id="rect1174"
         width="16.105715"
         height="14.684556"
         x="113.65548"
         y="120.32439" />
    </mask>
    <marker
       inkscape:stockid="Arrow2Lend"
       orient="auto"
       refY="0"
       refX="0"
       id="Arrow2Lend"
       style="overflow:visible"
       inkscape:isstock="true">
      <path
         id="path1282"
         style="fill:#000000;fill-opacity:1;fill-rule:evenodd;stroke:#000000;stroke-width:0.625;stroke-linejoin:round;stroke-opacity:1"
         d="M 8.7185878,4.0337352 -2.2072895,0.01601326 8.7185884,-4.0017078 c -1.7454984,2.3720609 -1.7354408,5.6174519 -6e-7,8.035443 z"
         transform="matrix(-1.1,0,0,-1.1,-1.1,0)" />
    </marker>
    <marker
       inkscape:stockid="Arrow2Lend"
       orient="auto"
       refY="0"
       refX="0"
       id="Arrow2Lend-8"
       style="overflow:visible"
       inkscape:isstock="true">
      <path
         inkscape:connector-curvature="0"
         id="path1282-6"
         style="fill:#000000;fill-opacity:1;fill-rule:evenodd;stroke:#000000;stroke-width:0.625;stroke-linejoin:round;stroke-opacity:1"
         d="M 8.7185878,4.0337352 -2.2072895,0.01601326 8.7185884,-4.0017078 c -1.7454984,2.3720609 -1.7354408,5.6174519 -6e-7,8.035443 z"
         transform="matrix(-1.1,0,0,-1.1,-1.1,0)" />
    </marker>
    <marker
       inkscape:stockid="Arrow2Lend"
       orient="auto"
       refY="0"
       refX="0"
       id="Arrow2Lend-8-8"
       style="overflow:visible"
       inkscape:isstock="true">
      <path
         inkscape:connector-curvature="0"
         id="path1282-6-4"
         style="fill:#000000;fill-opacity:1;fill-rule:evenodd;stroke:#000000;stroke-width:0.625;stroke-linejoin:round;stroke-opacity:1"
         d="M 8.7185878,4.0337352 -2.2072895,0.01601326 8.7185884,-4.0017078 c -1.7454984,2.3720609 -1.7354408,5.6174519 -6e-7,8.035443 z"
         transform="matrix(-1.1,0,0,-1.1,-1.1,0)" />
    </marker>
    <marker
       inkscape:stockid="Arrow2Lend"
       orient="auto"
       refY="0"
       refX="0"
       id="Arrow2Lend-8-8-6"
       style="overflow:visible"
       inkscape:isstock="true">
      <path
         inkscape:connector-curvature="0"
         id="path1282-6-4-7"
         style="fill:#000000;fill-opacity:1;fill-rule:evenodd;stroke:#000000;stroke-width:0.625;stroke-linejoin:round;stroke-opacity:1"
         d="M 8.7185878,4.0337352 -2.2072895,0.01601326 8.7185884,-4.0017078 c -1.7454984,2.3720609 -1.7354408,5.6174519 -6e-7,8.035443 z"
         transform="matrix(-1.1,0,0,-1.1,-1.1,0)" />
    </marker>
  </defs>
  <sodipodi:namedview
     id="base"
     pagecolor="#ffffff"
     bordercolor="#666666"
     borderopacity="1.0"
     inkscape:pageopacity="0.0"
     inkscape:pageshadow="2"
     inkscape:zoom="1.4142136"
     inkscape:cx="435.03668"
     inkscape:cy="121.26282"
     inkscape:document-units="mm"
     inkscape:current-layer="layer1"
     inkscape:document-rotation="0"
     showgrid="false"
     inkscape:window-width="1920"
     inkscape:window-height="1016"
     inkscape:window-x="0"
     inkscape:window-y="27"
     inkscape:window-maximized="1"
     fit-margin-bottom="5"
     lock-margins="true"
     fit-margin-top="5"
     fit-margin-left="5"
     fit-margin-right="5" />
  <metadata
     id="metadata980">
    <rdf:RDF>
      <cc:Work
         rdf:about="">
        <dc:format>image/svg+xml</dc:format>
        <dc:type
           rdf:resource="http://purl.org/dc/dcmitype/StillImage" />
        <dc:title />
      </cc:Work>
    </rdf:RDF>
  </metadata>
  <g
     inkscape:label="Layer 1"
     inkscape:groupmode="layer"
     id="layer1"
     transform="translate(2.5840891,-43.300807)">
    <g
       id="g3925"
       transform="translate(-11.705576)">
      <circle
         style="fill:#000000;fill-opacity:1;stroke-width:0.26011;stroke-miterlimit:3.4"
         id="path3129-0"
         cx="151.25536"
         cy="96.081856"
         r="2.5356195" />
      <circle
         style="fill:#000000;fill-opacity:1;stroke-width:0.26011;stroke-miterlimit:3.4"
         id="path3129-3-6"
         cx="159.35147"
         cy="86.537552"
         r="2.5356195" />
      <circle
         style="fill:#000000;fill-opacity:1;stroke-width:0.26011;stroke-miterlimit:3.4"
         id="path3129-6-2"
         cx="159.35147"
         cy="95.971855"
         r="2.5356195" />
      <circle
         style="fill:#000000;fill-opacity:1;stroke-width:0.26011;stroke-miterlimit:3.4"
         id="path3129-7-6"
         cx="159.35147"
         cy="105.40617"
         r="2.5356195" />
      <circle
         style="fill:#000000;fill-opacity:1;stroke-width:0.26011;stroke-miterlimit:3.4"
         id="path3129-5-1"
         cx="167.44757"
         cy="105.33746"
         r="2.5356195" />
      <circle
         style="fill:#000000;fill-opacity:1;stroke-width:0.26011;stroke-miterlimit:3.4"
         id="path3129-35-8"
         cx="167.44757"
         cy="96.039719"
         r="2.5356195" />
      <circle
         style="fill:#000000;fill-opacity:1;stroke-width:0.26011;stroke-miterlimit:3.4"
         id="path3129-62-7"
         cx="167.44757"
         cy="86.741982"
         r="2.5356195" />
      <circle
         style="fill:#000000;fill-opacity:1;stroke-width:0.26011;stroke-miterlimit:3.4"
         id="path3129-9-9"
         cx="175.54369"
         cy="96.081856"
         r="2.5356195" />
      <path
         style="fill:none;stroke:#000000;stroke-width:0.264583px;stroke-linecap:butt;stroke-linejoin:miter;stroke-opacity:1"
         d="M 175.86617,96.138533 H 151.32956"
         id="path3188-2" />
      <path
         style="fill:none;stroke:#000000;stroke-width:0.264583px;stroke-linecap:butt;stroke-linejoin:miter;stroke-opacity:1"
         d="m 151.32956,96.138533 8.19529,-9.612143 h 7.819"
         id="path3192-0" />
      <path
         style="fill:none;stroke:#000000;stroke-width:0.264583px;stroke-linecap:butt;stroke-linejoin:miter;stroke-opacity:1"
         d="m 159.35498,96.086523 7.98887,-9.560135"
         id="path3194-23" />
      <path
         style="fill:none;stroke:#000000;stroke-width:0.264583px;stroke-linecap:butt;stroke-linejoin:miter;stroke-opacity:1"
         d="m 159.55238,105.54283 7.79147,-19.016442"
         id="path3196-75" />
      <path
         style="fill:none;stroke:#000000;stroke-width:0.264583px;stroke-linecap:butt;stroke-linejoin:miter;stroke-opacity:1"
         d="m 167.34385,86.526388 8.52232,9.612145"
         id="path3200-9" />
      <path
         style="fill:none;stroke:#000000;stroke-width:0.264583px;stroke-linecap:butt;stroke-linejoin:miter;stroke-opacity:1"
         d="m 151.35709,95.930693 8.19529,9.612137 h 7.819"
         id="path3192-1-2" />
      <path
         style="fill:none;stroke:#000000;stroke-width:0.264583px;stroke-linecap:butt;stroke-linejoin:miter;stroke-opacity:1"
         d="m 159.38251,95.982703 7.98887,9.560127"
         id="path3194-2-2" />
      <path
         style="fill:none;stroke:#000000;stroke-width:0.264583px;stroke-linecap:butt;stroke-linejoin:miter;stroke-opacity:1"
         d="m 159.57991,86.526394 7.79147,19.016436"
         id="path3196-7-8" />
      <path
         style="fill:none;stroke:#000000;stroke-width:0.264583px;stroke-linecap:butt;stroke-linejoin:miter;stroke-opacity:1"
         d="m 167.37138,105.54283 8.52232,-9.612137"
         id="path3200-0-9" />
      <path
         style="fill:none;stroke:#000000;stroke-width:0.264583px;stroke-linecap:butt;stroke-linejoin:miter;stroke-opacity:1"
         d="m 159.57991,86.526393 7.72979,9.63463"
         id="path3226-7" />
      <path
         style="fill:none;stroke:#000000;stroke-width:0.264583px;stroke-linecap:butt;stroke-linejoin:miter;stroke-opacity:1"
         d="m 159.55238,105.54283 7.75732,-9.381807"
         id="path3228-3" />
    </g>
    <text
       xml:space="preserve"
       style="font-style:normal;font-weight:normal;font-size:10.5833px;line-height:125%;font-family:sans-serif;letter-spacing:0px;word-spacing:0px;fill:#000000;fill-opacity:1;stroke:none;stroke-width:0.264583px;stroke-linecap:butt;stroke-linejoin:miter;stroke-opacity:1"
       x="47.223949"
       y="119.25925"
       id="text834"><tspan
         sodipodi:role="line"
         id="tspan832"
         x="47.223949"
         y="119.25925"
         style="font-style:normal;font-variant:normal;font-weight:bold;font-stretch:normal;font-family:sans-serif;-inkscape-font-specification:'sans-serif Bold';stroke-width:0.264583px">G</tspan></text>
    <text
       xml:space="preserve"
       style="font-style:normal;font-weight:normal;font-size:10.5833px;line-height:125%;font-family:sans-serif;letter-spacing:0px;word-spacing:0px;fill:#000000;fill-opacity:1;stroke:none;stroke-width:0.264583px;stroke-linecap:butt;stroke-linejoin:miter;stroke-opacity:1"
       x="147.41243"
       y="119.40911"
       id="text834-7"><tspan
         sodipodi:role="line"
         id="tspan832-5"
         x="147.41243"
         y="119.40911"
         style="font-style:normal;font-variant:normal;font-weight:bold;font-stretch:normal;font-family:sans-serif;-inkscape-font-specification:'sans-serif Bold';stroke-width:0.264583px">D</tspan></text>
    <path
       style="fill:none;fill-rule:evenodd;stroke:#000000;stroke-width:0.253293;stroke-linecap:butt;stroke-linejoin:miter;stroke-miterlimit:1;stroke-dasharray:none;stroke-opacity:1;marker-end:url(#Arrow2Lend)"
       d="M 22.007587,96.088122 H 34.621095"
       id="path1259"
       inkscape:connector-curvature="0" />
    <path
       style="fill:none;fill-rule:evenodd;stroke:#000000;stroke-width:0.253293;stroke-linecap:butt;stroke-linejoin:miter;stroke-miterlimit:1;stroke-dasharray:none;stroke-opacity:1;marker-end:url(#Arrow2Lend-8)"
       d="M 68.608748,96.088122 H 81.222256"
       id="path1259-8"
       inkscape:connector-curvature="0" />
    <path
       style="fill:none;fill-rule:evenodd;stroke:#000000;stroke-width:0.253293;stroke-linecap:butt;stroke-linejoin:miter;stroke-miterlimit:1;stroke-dasharray:none;stroke-opacity:1;marker-end:url(#Arrow2Lend-8-8)"
       d="m 121.62125,96.401762 h 12.61351"
       id="path1259-8-3"
       inkscape:connector-curvature="0" />
    <path
       style="fill:none;fill-rule:evenodd;stroke:#000000;stroke-width:0.253293;stroke-linecap:butt;stroke-linejoin:miter;stroke-miterlimit:1;stroke-dasharray:none;stroke-opacity:1"
       d="m 121.62125,75.186402 v 21.21536"
       id="path1259-8-3-9"
       inkscape:connector-curvature="0"
       sodipodi:nodetypes="cc" />
    <path
       style="fill:none;fill-rule:evenodd;stroke:#000000;stroke-width:0.340535;stroke-linecap:butt;stroke-linejoin:miter;stroke-miterlimit:1;stroke-dasharray:none;stroke-opacity:1"
       d="M 121.62125,96.401762 H 107.15279"
       id="path1259-8-3-9-2"
       inkscape:connector-curvature="0"
       sodipodi:nodetypes="cc" />
    <text
       xml:space="preserve"
       style="font-style:normal;font-weight:normal;font-size:4.5861px;line-height:125%;font-family:sans-serif;letter-spacing:0px;word-spacing:0px;fill:#000000;fill-opacity:1;stroke:none;stroke-width:0.0786016px;stroke-linecap:butt;stroke-linejoin:miter;stroke-opacity:1"
       x="117.94621"
       y="51.680763"
       id="text6337-3"><tspan
         sodipodi:role="line"
         x="117.94621"
         y="51.680763"
         style="font-style:normal;font-variant:normal;font-weight:normal;font-stretch:normal;font-size:4.5861px;font-family:'TeX Gyre Schola';-inkscape-font-specification:'TeX Gyre Schola';text-align:center;text-anchor:middle;stroke-width:0.0786016px"
         id="tspan116-5">Real Data</tspan></text>
    <text
       xml:space="preserve"
       style="font-style:normal;font-weight:normal;font-size:4.5861px;line-height:125%;font-family:sans-serif;letter-spacing:0px;word-spacing:0px;fill:#000000;fill-opacity:1;stroke:none;stroke-width:0.0786016px;stroke-linecap:butt;stroke-linejoin:miter;stroke-opacity:1"
       x="93.490662"
       y="84.762321"
       id="text6337-3-3"><tspan
         sodipodi:role="line"
         x="93.490662"
         y="84.762321"
         style="font-style:normal;font-variant:normal;font-weight:normal;font-stretch:normal;font-size:4.5861px;font-family:'TeX Gyre Schola';-inkscape-font-specification:'TeX Gyre Schola';text-align:center;text-anchor:middle;stroke-width:0.0786016px"
         id="tspan116-5-5">Generated Data</tspan></text>
    <g
       id="g3946"
       transform="translate(1.0583333,0.45511246)">
      <circle
         style="fill:#000000;fill-opacity:1;stroke-width:0.26011;stroke-miterlimit:3.4"
         id="path3129"
         cx="39.093491"
         cy="95.626747"
         r="2.5356195" />
      <circle
         style="fill:#000000;fill-opacity:1;stroke-width:0.26011;stroke-miterlimit:3.4"
         id="path3129-3"
         cx="47.189598"
         cy="86.082443"
         r="2.5356195" />
      <circle
         style="fill:#000000;fill-opacity:1;stroke-width:0.26011;stroke-miterlimit:3.4"
         id="path3129-6"
         cx="47.189598"
         cy="95.516747"
         r="2.5356195" />
      <circle
         style="fill:#000000;fill-opacity:1;stroke-width:0.26011;stroke-miterlimit:3.4"
         id="path3129-7"
         cx="47.189598"
         cy="104.95106"
         r="2.5356195" />
      <circle
         style="fill:#000000;fill-opacity:1;stroke-width:0.26011;stroke-miterlimit:3.4"
         id="path3129-5"
         cx="55.285706"
         cy="104.88235"
         r="2.5356195" />
      <circle
         style="fill:#000000;fill-opacity:1;stroke-width:0.26011;stroke-miterlimit:3.4"
         id="path3129-35"
         cx="55.285706"
         cy="95.58461"
         r="2.5356195" />
      <circle
         style="fill:#000000;fill-opacity:1;stroke-width:0.26011;stroke-miterlimit:3.4"
         id="path3129-62"
         cx="55.285706"
         cy="86.286873"
         r="2.5356195" />
      <circle
         style="fill:#000000;fill-opacity:1;stroke-width:0.26011;stroke-miterlimit:3.4"
         id="path3129-9"
         cx="63.381821"
         cy="95.626747"
         r="2.5356195" />
      <path
         style="fill:none;stroke:#000000;stroke-width:0.264583px;stroke-linecap:butt;stroke-linejoin:miter;stroke-opacity:1"
         d="M 63.704304,95.683423 H 39.167693"
         id="path3188" />
      <path
         style="fill:none;stroke:#000000;stroke-width:0.264583px;stroke-linecap:butt;stroke-linejoin:miter;stroke-opacity:1"
         d="m 39.167693,95.683423 8.195289,-9.612144 h 7.818998"
         id="path3192" />
      <path
         style="fill:none;stroke:#000000;stroke-width:0.264583px;stroke-linecap:butt;stroke-linejoin:miter;stroke-opacity:1"
         d="M 47.193109,95.631413 55.18198,86.071277"
         id="path3194" />
      <path
         style="fill:none;stroke:#000000;stroke-width:0.264583px;stroke-linecap:butt;stroke-linejoin:miter;stroke-opacity:1"
         d="M 47.390514,105.08772 55.18198,86.071277"
         id="path3196" />
      <path
         style="fill:none;stroke:#000000;stroke-width:0.264583px;stroke-linecap:butt;stroke-linejoin:miter;stroke-opacity:1"
         d="m 55.18198,86.071277 8.522324,9.612146"
         id="path3200" />
      <path
         style="fill:none;stroke:#000000;stroke-width:0.264583px;stroke-linecap:butt;stroke-linejoin:miter;stroke-opacity:1"
         d="m 39.195225,95.475583 8.195289,9.612137 h 7.818998"
         id="path3192-1" />
      <path
         style="fill:none;stroke:#000000;stroke-width:0.264583px;stroke-linecap:butt;stroke-linejoin:miter;stroke-opacity:1"
         d="m 47.220641,95.527593 7.988871,9.560127"
         id="path3194-2" />
      <path
         style="fill:none;stroke:#000000;stroke-width:0.264583px;stroke-linecap:butt;stroke-linejoin:miter;stroke-opacity:1"
         d="m 47.418046,86.071283 7.791466,19.016437"
         id="path3196-7" />
      <path
         style="fill:none;stroke:#000000;stroke-width:0.264583px;stroke-linecap:butt;stroke-linejoin:miter;stroke-opacity:1"
         d="m 55.209512,105.08772 8.522324,-9.612137"
         id="path3200-0" />
      <path
         style="fill:none;stroke:#000000;stroke-width:0.264583px;stroke-linecap:butt;stroke-linejoin:miter;stroke-opacity:1"
         d="m 47.418044,86.071282 7.729784,9.634631"
         id="path3226" />
      <path
         style="fill:none;stroke:#000000;stroke-width:0.264583px;stroke-linecap:butt;stroke-linejoin:miter;stroke-opacity:1"
         d="m 47.390514,105.08772 7.757314,-9.381807"
         id="path3228" />
    </g>
    <rect
       style="fill:#ffffff;fill-opacity:1;stroke:#323232;stroke-width:0.2;stroke-miterlimit:3.4;stroke-dasharray:none;stroke-opacity:1"
       id="rect3230"
       width="17.991928"
       height="16.362656"
       x="108.1882"
       y="54.271683" />
    <rect
       style="fill:#ffffff;fill-opacity:1;stroke:#323232;stroke-width:0.2;stroke-miterlimit:3.4;stroke-dasharray:none;stroke-opacity:1"
       id="rect3230-9"
       width="17.99193"
       height="16.362656"
       x="109.59622"
       y="55.576355" />
    <rect
       style="fill:#ffffff;fill-opacity:1;stroke:#323232;stroke-width:0.2;stroke-miterlimit:3.4;stroke-dasharray:none;stroke-opacity:1"
       id="rect3230-3"
       width="17.99193"
       height="16.362656"
       x="111.23954"
       y="57.049622" />
    <rect
       style="fill:#ffffff;fill-opacity:1;stroke:#323232;stroke-width:0.2;stroke-miterlimit:3.4;stroke-dasharray:none;stroke-opacity:1"
       id="rect3230-6"
       width="17.99193"
       height="16.362656"
       x="113.18645"
       y="58.295536" />
    <rect
       style="fill:#ff0000;fill-opacity:1;stroke:#323232;stroke-width:0.2;stroke-miterlimit:3.4;stroke-dasharray:none;stroke-opacity:1"
       id="rect3282-67"
       width="1.4524884"
       height="7.7523847"
       x="115.98872"
       y="64.2071" />
    <rect
       style="fill:#ff0000;fill-opacity:1;stroke:#323232;stroke-width:0.2;stroke-miterlimit:3.4;stroke-dasharray:none;stroke-opacity:1"
       id="rect3282-6-5"
       width="1.4315779"
       height="9.596343"
       x="117.45164"
       y="62.352684" />
    <rect
       style="fill:#ff0000;fill-opacity:1;stroke:#323232;stroke-width:0.2;stroke-miterlimit:3.4;stroke-dasharray:none;stroke-opacity:1"
       id="rect3282-2-3"
       width="1.4524884"
       height="5.9038181"
       x="118.88323"
       y="66.045204" />
    <rect
       style="fill:#ff0000;fill-opacity:1;stroke:#323232;stroke-width:0.2;stroke-miterlimit:3.4;stroke-dasharray:none;stroke-opacity:1"
       id="rect3282-61-5"
       width="1.4524884"
       height="5.3216715"
       x="120.33576"
       y="66.62735" />
    <rect
       style="fill:#ff0000;fill-opacity:1;stroke:#323232;stroke-width:0.2;stroke-miterlimit:3.4;stroke-dasharray:none;stroke-opacity:1"
       id="rect3282-8-6"
       width="1.4524884"
       height="5.5970664"
       x="121.78819"
       y="66.351952" />
    <rect
       style="fill:#ff0000;fill-opacity:1;stroke:#323232;stroke-width:0.2;stroke-miterlimit:3.4;stroke-dasharray:none;stroke-opacity:1"
       id="rect3282-7-2"
       width="1.4524884"
       height="6.3759069"
       x="123.24075"
       y="65.573112" />
    <rect
       style="fill:#ff0000;fill-opacity:1;stroke:#323232;stroke-width:0.2;stroke-miterlimit:3.4;stroke-dasharray:none;stroke-opacity:1"
       id="rect3282-9-9"
       width="1.4216499"
       height="10.551452"
       x="124.70863"
       y="61.382145" />
    <rect
       style="fill:#ff0000;fill-opacity:1;stroke:#323232;stroke-width:0.2;stroke-miterlimit:3.4;stroke-dasharray:none;stroke-opacity:1"
       id="rect3282-20-1"
       width="1.4615728"
       height="7.0202169"
       x="126.13117"
       y="64.923332" />
    <rect
       style="fill:#ffffff;fill-opacity:1;stroke:#323232;stroke-width:0.2;stroke-miterlimit:3.4;stroke-dasharray:none;stroke-opacity:1"
       id="rect3230-6-0-2-2"
       width="17.991932"
       height="16.362656"
       x="141.57869"
       y="58.53561" />
    <path
       id="path376-3-7-3"
       style="fill:#ff0000;fill-opacity:1;stroke-width:0.1004"
       d="m 154.17836,60.238568 -0.0775,0.01394 -0.0775,0.04341 -0.0775,0.07131 -0.0775,0.09922 -0.0775,0.12609 -0.078,0.152445 -0.0775,0.177768 -0.0775,0.20102 -0.0775,0.223242 -0.0775,0.24443 -0.0775,0.263033 -0.078,0.280604 -0.0775,0.296106 -0.0775,0.309541 -0.078,0.320395 -0.0775,0.330729 -0.0775,0.337963 -0.0775,0.343133 -0.0775,0.347265 -0.0775,0.348816 -0.078,0.348816 -0.0775,0.347266 -0.0775,0.344165 -0.0775,0.338997 -0.0775,0.332796 -0.0775,0.326077 -0.078,0.316778 -0.0775,0.307475 -0.0775,0.297138 -0.0775,0.286289 -0.0775,0.274402 -0.0775,0.262515 -0.078,0.249597 -0.0775,0.237196 -0.0775,0.224274 -0.0775,0.211873 -0.0775,0.198438 -0.0775,0.186036 -0.078,0.174149 -0.0775,0.161748 -0.0775,0.149863 -0.0775,0.13849 -0.078,0.128159 c -0.26592,0.404104 -0.86233,0.63922 -1.29346,-0.102317 l -0.0687,-0.130225 -0.0687,-0.140041 -0.0692,-0.149347 -0.0687,-0.158647 -0.0687,-0.168465 -0.0693,-0.178282 -0.0687,-0.187587 -0.0687,-0.196887 -0.0692,-0.20619 -0.0687,-0.214974 -0.0687,-0.223242 -0.0693,-0.230992 -0.0687,-0.238228 -0.0687,-0.24443 -0.0692,-0.250113 -0.0687,-0.254765 -0.0687,-0.258384 -0.0687,-0.260964 -0.0692,-0.262001 -0.0687,-0.261998 -0.0687,-0.260451 -0.0692,-0.258381 -0.0687,-0.253733 -0.0687,-0.248047 -0.0687,-0.24081 -0.0693,-0.232545 -0.0687,-0.222208 -0.0687,-0.210841 -0.0687,-0.197403 -0.0692,-0.183451 -0.0687,-0.16795 -0.0687,-0.15141 -0.0692,-0.133327 -0.0687,-0.114204 -0.0687,-0.09508 -0.0693,-0.07441 -0.0687,-0.05374 -0.0687,-0.03204 -0.0692,-0.01034 -0.0687,0.01085 -0.0687,0.03204 -0.0693,0.05374 -0.0687,0.07441 -0.0687,0.09508 -0.0692,0.114208 -0.0687,0.133323 -0.0687,0.151413 -0.0687,0.167947 -0.0692,0.183452 -0.0687,0.197405 -0.0687,0.210839 -0.0687,0.22221 -0.0692,0.232542 -0.0687,0.240814 -0.0687,0.248046 -0.0693,0.253731 -0.0687,0.258381 -0.0687,0.260451 -0.0687,0.261998 -0.0692,0.262001 -0.0687,0.260966 -0.0687,0.258382 -0.0692,0.254765 -0.0687,0.250113 -0.0687,0.24443 -0.0693,0.238228 -0.0687,0.230995 -0.0687,0.223242 -0.0692,0.214974 -0.0687,0.206187 -0.0687,0.19689 -0.0693,0.187584 -0.0687,0.178284 -0.0687,0.168466 -0.0687,0.158646 -0.0692,0.149344 -0.0687,0.140044 -0.0687,0.130223 -0.0687,0.121441 -0.0693,0.112654 -0.0687,0.104386 -0.0687,0.09612 -0.0692,0.08837 -0.0687,0.08113 -0.0687,0.0739 -0.0687,0.06718 -0.0693,0.0615 -0.0687,0.0553 -0.0687,0.05012 -0.0692,0.04496 -0.0687,0.04031 -0.0687,0.03669 -0.0692,0.03204 -0.0687,0.02894 -0.0687,0.02532 -0.0692,0.02273 -0.0687,0.02016 -0.0687,0.01757 -0.0692,0.01498 -0.0687,0.01394 -0.0687,0.01188 -0.0693,0.0098 -0.0687,0.0088 -0.0687,0.0078 -0.0687,0.0072 -0.0692,0.0057 -0.0687,0.0052 -0.0687,0.0047 -0.0693,0.0031 -0.0687,0.0036 -0.0687,0.0026 -0.0687,0.0026 -0.0693,0.0016 -0.0687,0.0016 -0.0687,0.0011 h -0.006 v 0.0062 h 0.006 0.0687 0.0687 0.0693 0.0687 0.0687 0.0687 0.0693 0.0687 0.0687 0.0692 0.0687 0.0687 0.0687 0.0693 0.0687 0.0687 0.0692 0.0687 0.0687 0.0692 0.0687 0.0687 0.0692 0.0687 0.0687 0.0692 0.0687 0.0687 0.0693 0.0687 0.0687 0.0687 0.0692 0.0687 0.0687 0.0693 0.0687 0.0687 0.0687 0.0692 0.0687 0.0687 0.0687 0.0693 0.0687 0.0687 0.0692 0.0687 0.0687 0.0693 0.0687 0.0687 0.0692 0.0687 0.0687 0.0692 0.0687 0.0687 0.0687 0.0693 0.0687 0.0687 0.0692 0.0687 0.0687 0.0687 0.0692 0.0687 0.0687 0.0687 0.0692 0.0687 0.0687 0.0693 0.0687 0.0687 0.0692 0.0687 0.0687 0.0693 0.0687 0.0687 0.0692 0.0687 0.0687 0.0692 0.0687 0.0687 0.0687 0.0693 0.0687 0.0687 0.0687 0.0692 0.0687 0.0687 0.0692 0.0687 0.0687 0.0687 0.0692 0.0687 0.0687 0.0693 0.0687 0.0687 0.0692 0.0687 0.0687 0.0693 0.0687 0.0687 0.0692 0.0687 0.0687 0.0687 0.0692 0.0687 0.0687 0.0693 0.0687 0.0687 0.0687 0.0692 0.0687 0.0687 0.0692 0.0687 0.0687 0.0687 0.0692 0.0687 0.0687 0.0693 0.0687 0.0687 0.0693 0.0687 0.0687 0.0693 0.0687 0.0687 0.0692 0.0687 0.0687 0.0692 0.0687 0.0687 0.0687 0.0693 0.0687 0.0687 0.0687 0.0692 0.0687 0.0687 v -0.0038 l -0.0687,-5.29e-4 -0.0687,-5.29e-4 -0.0692,-0.0011 -0.0687,-0.0011 -0.0687,-5.29e-4 -0.0687,-0.0021 -0.0693,-0.0016 -0.0687,-0.0026 -0.0687,-0.0026 -0.0687,-0.0036 -0.0692,-0.0031 -0.0687,-0.0047 -0.0687,-0.0052 -0.0692,-0.0057 -0.0687,-0.0072 -0.0227,-0.0026 h 0.0687 0.0775 0.0775 0.0775 0.078 0.0775 0.0775 0.0775 0.0775 0.0775 0.078 0.0775 0.0775 0.0775 0.0775 0.0775 0.078 0.0775 0.0775 0.0775 0.0775 0.0775 0.078 0.0775 0.0775 0.078 0.0775 0.0775 0.0775 0.0775 0.0775 0.078 0.0775 0.0775 0.0775 0.0775 0.0775 0.078 0.0775 0.0775 0.0775 0.0775 0.0775 0.078 0.0775 0.0775 0.0775 0.0775 0.0775 0.078 0.0775 0.0775 0.0775 0.078 0.0775 0.0775 0.0775 0.0775 0.078 0.0775 0.0775 0.0775 0.0775 0.0775 0.078 0.0775 0.077 0.078 0.0775 0.0775 0.0775 0.0775 0.0775 0.0775 0.0775 0.0775 0.078 0.0775 0.0775 0.0775 0.0775 0.0775 0.078 0.0775 0.077 0.078 0.0775 0.0775 0.0775 0.0775 0.0775 0.0775 0.0775 0.0775 0.078 0.0775 0.0775 0.0775 0.0775 0.0775 0.0775 0.0775 0.0775 0.078 0.0775 0.0775 0.0775 0.0775 0.0775 0.0775 0.0775 0.0775 0.078 0.0775 0.0775 0.0775 0.0775 v -0.0047 l -0.0775,-0.0011 -0.0775,-0.0011 -0.0775,-0.0011 -0.0775,-0.0011 -0.078,-0.0011 -0.0775,-0.0026 -0.0775,-0.0021 -0.0775,-0.0036 -0.0775,-0.0031 -0.0775,-0.0047 -0.0775,-0.0047 -0.0775,-0.0057 -0.0775,-0.0067 -0.078,-0.0083 -0.0775,-0.0093 -0.0775,-0.01035 -0.0775,-0.01188 -0.0775,-0.01344 -0.0775,-0.0155 -0.0775,-0.0186 -0.0775,-0.02016 -0.0775,-0.02326 -0.078,-0.02687 -0.0775,-0.02997 -0.0775,-0.03411 -0.0775,-0.03824 -0.0775,-0.04289 -0.0775,-0.04857 -0.0775,-0.05374 -0.0775,-0.05994 -0.0775,-0.06666 -0.078,-0.0739 -0.077,-0.08113 -0.0775,-0.08992 -0.078,-0.0987 -0.0775,-0.107487 -0.0775,-0.117821 -0.0775,-0.128159 -0.0775,-0.138494 -0.0775,-0.150378 -0.078,-0.161229 -0.0775,-0.174149 -0.0775,-0.186037 -0.0775,-0.198953 -0.0775,-0.211357 -0.0775,-0.224277 -0.0775,-0.237194 -0.0775,-0.249597 -0.0775,-0.262517 -0.078,-0.274402 -0.077,-0.286287 -0.0775,-0.29714 -0.078,-0.307475 -0.0775,-0.317291 -0.0775,-0.325562 -0.0775,-0.332798 -0.0775,-0.338995 -0.0775,-0.344167 -0.078,-0.347266 -0.0775,-0.348816 -0.0775,-0.348813 -0.0775,-0.347266 -0.0775,-0.343649 -0.078,-0.337447 -0.0775,-0.330729 -0.0775,-0.32091 -0.0775,-0.309026 -0.078,-0.296106 -0.0775,-0.280603 -0.0775,-0.263033 -0.0775,-0.24443 -0.0775,-0.223758 -0.0775,-0.201023 -0.078,-0.17725 -0.0775,-0.152445 -0.0775,-0.126089 -0.0775,-0.09922 -0.0775,-0.07183 -0.0775,-0.04289 z"
       sodipodi:nodetypes="cccccccccccccccccccccccccccccccccccccccccccccccccccccccccccccccccccccccccccccccccccccccccccccccccccccccccccccccccccccccccccccccccccccccccccccccccccccccccccccccccccccccccccccccccccccccccccccccccccccccccccccccccccccccccccccccccccccccccccccccccccccccccccccccccccccccccccccccccccccccccccccccccccccccccccccccccccccccccccccccccccccccccccccccccccccccccccccccccccccccccccccccccccccccccccccccccccccccccccccccccccccccccccccccccccccccccccccccccccccccccccccccccccccccccccccccccccccccccccccccccccccccccccccccccccccccccccccccccccccccccccccccccccccc" />
    <text
       xml:space="preserve"
       style="font-style:normal;font-weight:normal;font-size:4.5861px;line-height:125%;font-family:sans-serif;letter-spacing:0px;word-spacing:0px;fill:#000000;fill-opacity:1;stroke:none;stroke-width:0.0786016px;stroke-linecap:butt;stroke-linejoin:miter;stroke-opacity:1"
       x="150.41992"
       y="51.680763"
       id="text6337-3-0"><tspan
         sodipodi:role="line"
         x="150.41992"
         y="51.680763"
         style="font-style:normal;font-variant:normal;font-weight:normal;font-stretch:normal;font-size:4.5861px;font-family:'TeX Gyre Schola';-inkscape-font-specification:'TeX Gyre Schola';text-align:center;text-anchor:middle;stroke-width:0.0786016px"
         id="tspan116-5-9">Real Dist.</tspan></text>
    <text
       xml:space="preserve"
       style="font-style:normal;font-weight:normal;font-size:4.5861px;line-height:125%;font-family:sans-serif;letter-spacing:0px;word-spacing:0px;fill:#000000;fill-opacity:1;stroke:none;stroke-width:0.0786016px;stroke-linecap:butt;stroke-linejoin:miter;stroke-opacity:1"
       x="10.798829"
       y="86.264221"
       id="text6337-3-0-3"><tspan
         sodipodi:role="line"
         x="10.798829"
         y="86.264221"
         style="font-style:normal;font-variant:normal;font-weight:normal;font-stretch:normal;font-size:4.5861px;font-family:'TeX Gyre Schola';-inkscape-font-specification:'TeX Gyre Schola';text-align:center;text-anchor:middle;stroke-width:0.0786016px"
         id="tspan116-5-9-6">P<tspan
   style="font-size:3.52778px"
   id="tspan3835">z</tspan></tspan></text>
    <path
       style="fill:none;stroke:#000000;stroke-width:0.265936px;stroke-linecap:butt;stroke-linejoin:miter;stroke-opacity:1"
       d="m 141.55854,71.798889 h 17.97568"
       id="path3948" />
    <path
       style="fill:none;stroke:#000000;stroke-width:0.265935px;stroke-linecap:butt;stroke-linejoin:miter;stroke-opacity:1"
       d="m 113.18905,71.959488 h 17.97568"
       id="path3948-2" />
    <rect
       style="fill:#ffffff;fill-opacity:1;stroke:#323232;stroke-width:0.2;stroke-miterlimit:3.4;stroke-dasharray:none;stroke-opacity:1"
       id="rect3230-6-6"
       width="17.991932"
       height="16.362656"
       x="182.19548"
       y="87.11335" />
    <g
       id="g1799"
       transform="translate(1.4617702,-0.35363007)"
       style="fill:#ff0000;fill-opacity:0.60000002">
      <rect
         style="fill:#ff0000;fill-opacity:0.60000002;stroke:#323232;stroke-width:0.2;stroke-miterlimit:3.4;stroke-dasharray:none;stroke-opacity:1"
         id="rect3282-67-1"
         width="1.4524884"
         height="7.7523847"
         x="184.99776"
         y="93.427513" />
      <rect
         style="fill:#ff0000;fill-opacity:0.60000002;stroke:#323232;stroke-width:0.2;stroke-miterlimit:3.4;stroke-dasharray:none;stroke-opacity:1"
         id="rect3282-6-5-8"
         width="1.4315779"
         height="9.596343"
         x="186.46068"
         y="91.573097" />
      <rect
         style="fill:#ff0000;fill-opacity:0.60000002;stroke:#323232;stroke-width:0.2;stroke-miterlimit:3.4;stroke-dasharray:none;stroke-opacity:1"
         id="rect3282-2-3-7"
         width="1.4524884"
         height="5.9038186"
         x="187.89227"
         y="95.265625" />
      <rect
         style="fill:#ff0000;fill-opacity:0.60000002;stroke:#323232;stroke-width:0.2;stroke-miterlimit:3.4;stroke-dasharray:none;stroke-opacity:1"
         id="rect3282-61-5-9"
         width="1.4524884"
         height="5.3216715"
         x="189.3448"
         y="95.847771" />
      <rect
         style="fill:#ff0000;fill-opacity:0.60000002;stroke:#323232;stroke-width:0.2;stroke-miterlimit:3.4;stroke-dasharray:none;stroke-opacity:1"
         id="rect3282-8-6-2"
         width="1.4524884"
         height="5.5970664"
         x="190.79723"
         y="95.572372" />
      <rect
         style="fill:#ff0000;fill-opacity:0.60000002;stroke:#323232;stroke-width:0.2;stroke-miterlimit:3.4;stroke-dasharray:none;stroke-opacity:1"
         id="rect3282-7-2-0"
         width="1.4524884"
         height="6.3759069"
         x="192.24979"
         y="94.793533" />
      <rect
         style="fill:#ff0000;fill-opacity:0.60000002;stroke:#323232;stroke-width:0.2;stroke-miterlimit:3.4;stroke-dasharray:none;stroke-opacity:1"
         id="rect3282-9-9-2"
         width="1.4216499"
         height="10.551452"
         x="193.71767"
         y="90.602562" />
      <rect
         style="fill:#ff0000;fill-opacity:0.60000002;stroke:#323232;stroke-width:0.2;stroke-miterlimit:3.4;stroke-dasharray:none;stroke-opacity:1"
         id="rect3282-20-1-3"
         width="1.4615728"
         height="7.0202169"
         x="195.14021"
         y="94.143745" />
    </g>
    <g
       id="g1789"
       style="fill:#4c78a8;fill-opacity:0.60000002"
       transform="translate(0,-0.40260315)">
      <rect
         style="fill:#4c78a8;fill-opacity:0.60000002;stroke:#323232;stroke-width:0.2;stroke-miterlimit:3.4;stroke-dasharray:none;stroke-opacity:1"
         id="rect3282-9"
         width="1.4524884"
         height="7.7523847"
         x="184.99779"
         y="93.427521" />
      <rect
         style="fill:#4c78a8;fill-opacity:0.60000002;stroke:#323232;stroke-width:0.2;stroke-miterlimit:3.4;stroke-dasharray:none;stroke-opacity:1"
         id="rect3282-6-2"
         width="1.4315779"
         height="9.596343"
         x="186.46072"
         y="91.573105" />
      <rect
         style="fill:#4c78a8;fill-opacity:0.60000002;stroke:#323232;stroke-width:0.2;stroke-miterlimit:3.4;stroke-dasharray:none;stroke-opacity:1"
         id="rect3282-2-2"
         width="1.4524884"
         height="5.9038181"
         x="187.89232"
         y="95.265625" />
      <rect
         style="fill:#4c78a8;fill-opacity:0.60000002;stroke:#323232;stroke-width:0.2;stroke-miterlimit:3.4;stroke-dasharray:none;stroke-opacity:1"
         id="rect3282-61-8"
         width="1.4524884"
         height="5.3216715"
         x="189.3448"
         y="95.847771" />
      <rect
         style="fill:#4c78a8;fill-opacity:0.60000002;stroke:#323232;stroke-width:0.2;stroke-miterlimit:3.4;stroke-dasharray:none;stroke-opacity:1"
         id="rect3282-8-9"
         width="1.4524884"
         height="2.6088119"
         x="190.79729"
         y="98.560623" />
      <rect
         style="fill:#4c78a8;fill-opacity:0.60000002;stroke:#323232;stroke-width:0.2;stroke-miterlimit:3.4;stroke-dasharray:none;stroke-opacity:1"
         id="rect3282-7-7"
         width="1.519585"
         height="3.2721627"
         x="192.21623"
         y="97.930824" />
      <rect
         style="fill:#4c78a8;fill-opacity:0.60000002;stroke:#323232;stroke-width:0.2;stroke-miterlimit:3.4;stroke-dasharray:none;stroke-opacity:1"
         id="rect3282-6-6-3"
         width="1.4315779"
         height="9.596343"
         x="183.56621"
         y="91.583565" />
      <rect
         style="fill:#4c78a8;fill-opacity:0.60000002;stroke:#323232;stroke-width:0.2;stroke-miterlimit:3.4;stroke-dasharray:none;stroke-opacity:1"
         id="rect3282-6-0-6"
         width="1.5527279"
         height="1.8043143"
         x="193.73582"
         y="99.398674" />
      <rect
         style="fill:#4c78a8;fill-opacity:0.60000002;stroke:#323232;stroke-width:0.2;stroke-miterlimit:3.4;stroke-dasharray:none;stroke-opacity:1"
         id="rect3282-6-62-1"
         width="1.5126061"
         height="3.6415679"
         x="195.28854"
         y="97.561424" />
    </g>
    <rect
       style="fill:#ffffff;fill-opacity:1;stroke:#323232;stroke-width:0.2;stroke-miterlimit:3.4;stroke-dasharray:none;stroke-opacity:1"
       id="rect3230-6-0"
       width="17.991932"
       height="16.362656"
       x="85.772247"
       y="88.027664" />
    <rect
       style="fill:#4c78a8;fill-opacity:1;stroke:#323232;stroke-width:0.2;stroke-miterlimit:3.4;stroke-dasharray:none;stroke-opacity:1"
       id="rect3282"
       width="1.4524884"
       height="7.7523847"
       x="88.745842"
       y="93.84935" />
    <rect
       style="fill:#4c78a8;fill-opacity:1;stroke:#323232;stroke-width:0.2;stroke-miterlimit:3.4;stroke-dasharray:none;stroke-opacity:1"
       id="rect3282-6"
       width="1.4315779"
       height="9.596343"
       x="90.208786"
       y="91.994934" />
    <rect
       style="fill:#4c78a8;fill-opacity:1;stroke:#323232;stroke-width:0.2;stroke-miterlimit:3.4;stroke-dasharray:none;stroke-opacity:1"
       id="rect3282-2"
       width="1.4524884"
       height="5.9038177"
       x="91.640373"
       y="95.687454" />
    <rect
       style="fill:#4c78a8;fill-opacity:1;stroke:#323232;stroke-width:0.2;stroke-miterlimit:3.4;stroke-dasharray:none;stroke-opacity:1"
       id="rect3282-61"
       width="1.4524884"
       height="5.321671"
       x="93.092865"
       y="96.2696" />
    <rect
       style="fill:#4c78a8;fill-opacity:1;stroke:#323232;stroke-width:0.2;stroke-miterlimit:3.4;stroke-dasharray:none;stroke-opacity:1"
       id="rect3282-8"
       width="1.4524884"
       height="2.6088119"
       x="94.545349"
       y="98.982452" />
    <rect
       style="fill:#4c78a8;fill-opacity:1;stroke:#323232;stroke-width:0.2;stroke-miterlimit:3.4;stroke-dasharray:none;stroke-opacity:1"
       id="rect3282-7"
       width="1.519585"
       height="3.2721627"
       x="95.964294"
       y="98.352654" />
    <rect
       style="fill:#4c78a8;fill-opacity:1;stroke:#323232;stroke-width:0.2;stroke-miterlimit:3.4;stroke-dasharray:none;stroke-opacity:1"
       id="rect3282-6-6"
       width="1.4315779"
       height="9.596343"
       x="87.314262"
       y="92.005394" />
    <rect
       style="fill:#4c78a8;fill-opacity:1;stroke:#323232;stroke-width:0.2;stroke-miterlimit:3.4;stroke-dasharray:none;stroke-opacity:1"
       id="rect3282-6-0"
       width="1.5527279"
       height="1.8043143"
       x="97.483879"
       y="99.820503" />
    <rect
       style="fill:#4c78a8;fill-opacity:1;stroke:#323232;stroke-width:0.2;stroke-miterlimit:3.4;stroke-dasharray:none;stroke-opacity:1"
       id="rect3282-6-62"
       width="1.5126061"
       height="3.6415679"
       x="99.036606"
       y="97.983246" />
    <path
       style="fill:none;stroke:#000000;stroke-width:0.265935px;stroke-linecap:butt;stroke-linejoin:miter;stroke-opacity:1"
       d="M 85.727245,101.60174 H 103.70293"
       id="path3948-9" />
    <path
       style="fill:none;stroke:#000000;stroke-width:0.265935px;stroke-linecap:butt;stroke-linejoin:miter;stroke-opacity:1"
       d="m 182.19809,100.77731 h 17.97568"
       id="path3948-2-7" />
    <g
       id="g1484"
       transform="translate(4.2333335)">
      <rect
         style="fill:#ffffff;fill-opacity:1;stroke:#323232;stroke-width:0.2;stroke-miterlimit:3.4;stroke-dasharray:none;stroke-opacity:1"
         id="rect3230-6-0-2"
         width="17.991932"
         height="16.362656"
         x="-1.7174226"
         y="88.027664" />
      <path
         id="path376-3"
         style="fill:#4c78a8;fill-opacity:1;stroke-width:0.114088"
         d="m 7.056406,91.23907 -0.1146567,0.01256 -0.1146585,0.03763 -0.1149936,0.06232 -0.1146567,0.08668 -0.1146585,0.110167 -0.1149945,0.133053 -0.1146567,0.155058 -0.1146586,0.175589 -0.1149944,0.19522 -0.1146568,0.21325 -0.1146594,0.22978 -0.1149935,0.24499 -0.1146568,0.25843 -0.1146585,0.2701 -0.1149944,0.28014 -0.1146568,0.28855 -0.1146587,0.29505 -0.1149946,0.29993 -0.1146566,0.30303 -0.1146588,0.30465 -0.1149938,0.30466 -0.1146567,0.30317 -0.1146587,0.30037 -0.1149946,0.29609 -0.1146566,0.29076 -0.1146587,0.28443 -0.1149945,0.27674 -0.1146567,0.26862 -0.1146588,0.25947 -0.1149938,0.24986 -0.1146567,0.23967 -0.1146587,0.2289 -0.1149945,0.21826 -0.1146567,0.20704 -0.1146587,0.19582 -0.1149945,0.18474 -0.1146567,0.17352 -0.114658,0.16258 -0.1149946,0.15166 -0.1146567,0.14133 -0.1146587,0.130993 -0.1149944,0.12109 -0.1146567,0.11179 -0.1146588,0.10278 -0.1149944,0.0941 -0.1146567,0.0861 -0.1146582,0.0783 -0.1149944,0.0712 -0.1146567,0.0644 -0.1146588,0.0583 -0.1149944,0.0523 -0.1146567,0.0471 -0.11465875,0.0421 -0.11499442,0.0375 -0.11465676,0.0335 -0.11465809,0.0297 -0.11499441,0.0263 -0.11465676,0.0232 -0.11465872,0.0204 -0.11499441,0.018 -0.11465676,0.0157 -0.11465871,0.0138 -0.1149945,0.0118 -0.11465661,0.0104 -0.11465814,0.009 -0.11499445,0.008 -0.11465671,0.007 -0.11465871,0.006 -0.11499454,0.005 -0.11465671,0.004 -0.11465864,0.004 -0.1149938,0.003 -0.1146574,0.003 -0.1146581,0.002 -0.1149944,0.002 -0.1146568,0.001 -0.00975,1.5e-4 v 0.007 h 0.00975 0.1146568 0.1149944 0.1146581 0.1146574 0.1149938 0.11465864 0.11465671 0.11499454 0.11465871 0.11465671 0.11499445 0.11465814 0.11465661 0.1149945 H 0.05555622 0.17021298 0.28520739 0.39986611 0.51452287 0.62951728 0.74417537 0.85883213 0.97382655 1.0884853 1.203142 1.3181364 1.4327952 1.5474519 1.6624463 1.7771045 1.8917612 2.0067556 2.1214144 2.2360711 2.3510655 2.4657242 2.5803809 2.6953755 2.8100335 2.9246902 3.0396847 3.1543434 3.2690001 3.3839946 3.4986533 3.61331 3.7283038 3.8429626 3.9576193 4.0726138 4.1872725 4.3019291 4.4169237 4.5315824 4.6462391 4.7612329 4.8758917 4.9905483 5.1055429 5.2202016 5.3348584 5.4498528 5.5645113 5.6791681 5.7941616 5.908821 6.0234778 6.1384722 6.2531308 6.3677875 6.482782 6.5974405 6.7120972 6.8270908 6.9417493 7.056406 7.1714013 7.2860598 7.4007166 7.5157111 7.6303696 7.7450263 7.8600199 7.9746784 8.0893352 8.2043296 8.318989 h 0.1146568 0.1149944 0.1146586 0.1146567 0.1149936 0.1146593 0.1146568 0.1149944 0.1146585 0.1146568 0.1149946 0.1146576 0.1146577 0.1149935 0.1146587 0.114657 0.114995 0.114659 0.114656 0.114994 0.114658 0.114658 0.114993 0.114659 0.114656 0.114996 0.114658 0.114657 0.114995 0.114658 0.114657 0.114994 0.114658 0.114657 0.114994 0.11466 0.114656 0.114995 0.114657 0.114658 0.114993 0.114659 0.114657 0.114995 0.114658 0.114657 0.114994 0.114659 0.114658 0.114993 0.114658 0.114657 0.114994 0.114659 0.114657 0.114994 0.114658 0.114658 0.114994 0.114658 0.114657 0.114995 0.114659 0.114656 0.114994 0.114659 0.114658 0.114993 0.114659 v -0.004 l -0.114659,-8.8e-4 -0.114993,-8.8e-4 -0.114658,-0.001 -0.114659,-10e-4 -0.114994,-0.001 -0.114656,-0.002 -0.114659,-0.002 -0.114995,-0.003 -0.114657,-0.003 -0.114658,-0.004 -0.114994,-0.004 -0.114658,-0.005 -0.114658,-0.006 -0.114994,-0.007 -0.114657,-0.008 -0.114659,-0.009 -0.114994,-0.0104 -0.114657,-0.012 -0.114658,-0.0136 -0.114993,-0.0158 -0.114658,-0.0179 -0.114659,-0.0204 -0.114994,-0.0232 -0.114657,-0.0263 -0.114658,-0.0297 -0.114995,-0.0335 -0.114657,-0.0375 -0.114659,-0.0422 -0.114993,-0.047 -0.114658,-0.0524 -0.114657,-0.0582 -0.114995,-0.0644 -0.114656,-0.0712 -0.11466,-0.0784 -0.114994,-0.0859 -0.114657,-0.0942 -0.114658,-0.10264 -0.114994,-0.11179 -0.114657,-0.12124 -0.114658,-0.130993 -0.114995,-0.14117 -0.114657,-0.15181 -0.114658,-0.16259 -0.114996,-0.17352 -0.114656,-0.18459 -0.114659,-0.19596 -0.114993,-0.20705 -0.114658,-0.21811 -0.114658,-0.22905 -0.114994,-0.23967 -0.114656,-0.24986 -0.114659,-0.25947 -0.114995,-0.26862 -0.114657,-0.27674 -0.1146587,-0.28442 -0.1149935,-0.29077 -0.1146577,-0.29609 -0.1146576,-0.30037 -0.1149946,-0.30317 -0.1146568,-0.30466 -0.1146585,-0.30465 -0.1149944,-0.30303 -0.1146568,-0.29992 -0.1146593,-0.29506 -0.1149936,-0.28855 -0.1146567,-0.28014 -0.1146586,-0.2701 L 8.4336458,92.894747 8.318989,92.649757 8.2043296,92.419977 8.0893352,92.206737 7.9746784,92.011507 7.8600199,91.83592 7.7450263,91.680863 7.6303696,91.547809 7.5157111,91.437647 7.4007166,91.350957 7.2860598,91.288637 7.1714013,91.250957 Z" />
      <path
         style="fill:none;stroke:#000000;stroke-width:0.265935px;stroke-linecap:butt;stroke-linejoin:miter;stroke-opacity:1"
         d="M -1.7375713,101.29494 H 16.238112"
         id="path3948-3" />
    </g>
    <text
       xml:space="preserve"
       style="font-style:normal;font-weight:normal;font-size:8.30182px;line-height:1.25;font-family:sans-serif;fill:#000000;fill-opacity:1;stroke:none;stroke-width:0.207546"
       x="132.51353"
       y="69.032372"
       id="text1500"><tspan
         sodipodi:role="line"
         id="tspan1498"
         x="132.51353"
         y="69.032372"
         style="stroke-width:0.207546">~</tspan></text>
    <path
       style="fill:none;fill-rule:evenodd;stroke:#000000;stroke-width:0.253293;stroke-linecap:butt;stroke-linejoin:miter;stroke-miterlimit:1;stroke-dasharray:none;stroke-opacity:1;marker-end:url(#Arrow2Lend-8-8-6)"
       d="M 168.37769,96.137831 H 180.9912"
       id="path1259-8-3-5"
       inkscape:connector-curvature="0" />
    <text
       xml:space="preserve"
       style="font-style:normal;font-weight:normal;font-size:4.58611px;line-height:125%;font-family:sans-serif;letter-spacing:0px;word-spacing:0px;fill:#000000;fill-opacity:1;stroke:none;stroke-width:0.0786016px;stroke-linecap:butt;stroke-linejoin:miter;stroke-opacity:1"
       x="190.56775"
       y="84.531082"
       id="text6337-3-9"><tspan
         sodipodi:role="line"
         x="190.56775"
         y="84.531082"
         style="font-style:normal;font-variant:normal;font-weight:normal;font-stretch:normal;font-size:4.58611px;font-family:'TeX Gyre Schola';-inkscape-font-specification:'TeX Gyre Schola';text-align:center;text-anchor:middle;stroke-width:0.0786016px"
         id="tspan1819">W<tspan
   id="tspan1823"
   style="font-size:4.58611px"><tspan
   style="font-size:2.82222px"
   id="tspan1833">1</tspan>(P<tspan
   style="font-size:2.82222px"
   id="tspan1829">g</tspan>,P<tspan
   style="font-size:2.82222px"
   id="tspan1825">data</tspan>)</tspan></tspan></text>
  </g>
</svg>
