<?xml version="1.0" encoding="utf-8"?>
<!DOCTYPE svg PUBLIC "-//W3C//DTD SVG 1.1//EN" "http://www.w3.org/Graphics/SVG/1.1/DTD/svg11.dtd">
<svg class="marks" width="648" height="266" viewBox="0 0 648 266" version="1.1" xmlns="http://www.w3.org/2000/svg" xmlns:xlink="http://www.w3.org/1999/xlink"><rect width="648" height="266" fill="white"></rect><g fill="none" stroke-miterlimit="10" transform="translate(43,28)"><g class="mark-group role-frame root" role="graphics-object" aria-roledescription="group mark container"><g transform="translate(0,0)"><path class="background" aria-hidden="true" d="M0,0h0v200h0Z"></path><g><g class="mark-group role-scope concat_0_group" role="graphics-object" aria-roledescription="group mark container"><g transform="translate(0,0)"><path class="background" aria-hidden="true" d="M0.5,0.5h200v200h-200Z" stroke="#ddd"></path><g><g class="mark-group role-axis" role="graphics-symbol" aria-roledescription="axis" aria-label="X-axis titled 'x' for a linear scale with values from 0 to 7"><g transform="translate(0.5,200.5)"><path class="background" aria-hidden="true" d="M0,0h0v0h0Z" pointer-events="none"></path><g><g class="mark-rule role-axis-tick" pointer-events="none"><line transform="translate(0,0)" x2="0" y2="5" stroke="#888" stroke-width="1" opacity="1"></line><line transform="translate(29,0)" x2="0" y2="5" stroke="#888" stroke-width="1" opacity="1"></line><line transform="translate(57,0)" x2="0" y2="5" stroke="#888" stroke-width="1" opacity="1"></line><line transform="translate(86,0)" x2="0" y2="5" stroke="#888" stroke-width="1" opacity="1"></line><line transform="translate(114,0)" x2="0" y2="5" stroke="#888" stroke-width="1" opacity="1"></line><line transform="translate(143,0)" x2="0" y2="5" stroke="#888" stroke-width="1" opacity="1"></line><line transform="translate(171,0)" x2="0" y2="5" stroke="#888" stroke-width="1" opacity="1"></line><line transform="translate(200,0)" x2="0" y2="5" stroke="#888" stroke-width="1" opacity="1"></line></g><g class="mark-text role-axis-label" pointer-events="none"><text text-anchor="start" transform="translate(0,15)" font-family="sans-serif" font-size="10px" fill="#000" opacity="1">0</text><text text-anchor="middle" transform="translate(28.57142857142857,15)" font-family="sans-serif" font-size="10px" fill="#000" opacity="1">1</text><text text-anchor="middle" transform="translate(57.14285714285714,15)" font-family="sans-serif" font-size="10px" fill="#000" opacity="1">2</text><text text-anchor="middle" transform="translate(85.71428571428571,15)" font-family="sans-serif" font-size="10px" fill="#000" opacity="1">3</text><text text-anchor="middle" transform="translate(114.28571428571428,15)" font-family="sans-serif" font-size="10px" fill="#000" opacity="1">4</text><text text-anchor="middle" transform="translate(142.85714285714286,15)" font-family="sans-serif" font-size="10px" fill="#000" opacity="1">5</text><text text-anchor="middle" transform="translate(171.42857142857142,15)" font-family="sans-serif" font-size="10px" fill="#000" opacity="1">6</text><text text-anchor="end" transform="translate(200,15)" font-family="sans-serif" font-size="10px" fill="#000" opacity="1">7</text></g><g class="mark-rule role-axis-domain" pointer-events="none"><line transform="translate(0,0)" x2="200" y2="0" stroke="#888" stroke-width="1" opacity="1"></line></g><g class="mark-text role-axis-title" pointer-events="none"><text text-anchor="middle" transform="translate(100,30)" font-family="sans-serif" font-size="11px" font-weight="bold" fill="#000" opacity="1">x</text></g></g><path class="foreground" aria-hidden="true" d="" pointer-events="none" display="none"></path></g></g><g class="mark-group role-axis" role="graphics-symbol" aria-roledescription="axis" aria-label="Y-axis titled 'y' for a linear scale with values from 0.0 to 0.6"><g transform="translate(0.5,0.5)"><path class="background" aria-hidden="true" d="M0,0h0v0h0Z" pointer-events="none"></path><g><g class="mark-rule role-axis-tick" pointer-events="none"><line transform="translate(0,200)" x2="-5" y2="0" stroke="#888" stroke-width="1" opacity="1"></line><line transform="translate(0,167)" x2="-5" y2="0" stroke="#888" stroke-width="1" opacity="1"></line><line transform="translate(0,133)" x2="-5" y2="0" stroke="#888" stroke-width="1" opacity="1"></line><line transform="translate(0,100)" x2="-5" y2="0" stroke="#888" stroke-width="1" opacity="1"></line><line transform="translate(0,67)" x2="-5" y2="0" stroke="#888" stroke-width="1" opacity="1"></line><line transform="translate(0,33)" x2="-5" y2="0" stroke="#888" stroke-width="1" opacity="1"></line><line transform="translate(0,0)" x2="-5" y2="0" stroke="#888" stroke-width="1" opacity="1"></line></g><g class="mark-text role-axis-label" pointer-events="none"><text text-anchor="end" transform="translate(-7,203)" font-family="sans-serif" font-size="10px" fill="#000" opacity="1">0.0</text><text text-anchor="end" transform="translate(-7,169.66666666666666)" font-family="sans-serif" font-size="10px" fill="#000" opacity="1">0.1</text><text text-anchor="end" transform="translate(-7,136.33333333333331)" font-family="sans-serif" font-size="10px" fill="#000" opacity="1">0.2</text><text text-anchor="end" transform="translate(-7,103)" font-family="sans-serif" font-size="10px" fill="#000" opacity="1">0.3</text><text text-anchor="end" transform="translate(-7,69.66666666666666)" font-family="sans-serif" font-size="10px" fill="#000" opacity="1">0.4</text><text text-anchor="end" transform="translate(-7,36.33333333333333)" font-family="sans-serif" font-size="10px" fill="#000" opacity="1">0.5</text><text text-anchor="end" transform="translate(-7,3)" font-family="sans-serif" font-size="10px" fill="#000" opacity="1">0.6</text></g><g class="mark-rule role-axis-domain" pointer-events="none"><line transform="translate(0,200)" x2="0" y2="-200" stroke="#888" stroke-width="1" opacity="1"></line></g><g class="mark-text role-axis-title" pointer-events="none"><text text-anchor="middle" transform="translate(-26,100) rotate(-90) translate(0,-2)" font-family="sans-serif" font-size="11px" font-weight="bold" fill="#000" opacity="1">y</text></g></g><path class="foreground" aria-hidden="true" d="" pointer-events="none" display="none"></path></g></g><g class="mark-group role-scope concat_0_layer_0_pathgroup" role="graphics-object" aria-roledescription="group mark container"><g transform="translate(0,0)"><path class="background" aria-hidden="true" d="M0,0h200v200h-200Z"></path><g><g class="mark-line role-mark concat_0_layer_0_marks" role="graphics-object" aria-roledescription="line mark container"><path aria-label="x: 1; y: 0.0833333333333; Legend: Transport Map; r: 1" role="graphics-symbol" aria-roledescription="line mark" d="M28.57142857142857,172.22222222222223L28.857142857142858,171.39055555555555L29.142857142857142,170.5622222222222L29.42857142857143,169.73722222222221L29.714285714285715,168.91555555555556L30,168.0972222222222L30.28571428571429,167.28222222222223L30.571428571428573,166.47055555555553L30.85714285714286,165.66222222222223L31.142857142857146,164.85722222222222L31.428571428571434,164.05555555555554L31.714285714285715,163.2572222222222L32,162.4622222222222L32.285714285714285,161.67055555555555L32.57142857142857,160.88222222222223L32.857142857142854,160.09722222222223L33.14285714285714,159.31555555555556L33.42857142857142,158.53722222222223L33.714285714285715,157.76222222222222L34,156.99055555555557L34.285714285714285,156.22222222222223L34.57142857142857,155.4572222222222L34.85714285714286,154.69555555555553L35.14285714285714,153.93722222222223L35.42857142857142,153.1822222222222L35.714285714285715,152.43055555555557L36,151.68222222222224L36.285714285714285,150.9372222222222L36.57142857142857,150.19555555555556L36.85714285714286,149.4572222222222L37.142857142857146,148.7222222222222L37.42857142857143,147.99055555555555L37.714285714285715,147.26222222222222L38,146.5372222222222L38.28571428571429,145.81555555555553L38.57142857142858,145.0972222222222L38.85714285714286,144.38222222222223L39.142857142857146,143.67055555555555L39.42857142857142,142.9622222222222L39.714285714285715,142.25722222222223L40,141.55555555555557L40.285714285714285,140.85722222222222L40.57142857142857,140.16222222222223L40.857142857142854,139.47055555555553L41.14285714285714,138.78222222222223L41.42857142857142,138.09722222222223L41.714285714285715,137.41555555555556L42,136.73722222222221L42.285714285714285,136.0622222222222L42.57142857142857,135.39055555555555L42.857142857142854,134.72222222222223L43.142857142857146,134.05722222222224L43.42857142857143,133.39555555555555L43.714285714285715,132.73722222222221L44,132.0822222222222L44.28571428571429,131.43055555555554L44.57142857142857,130.78222222222223L44.857142857142854,130.13722222222222L45.142857142857146,129.49555555555557L45.42857142857143,128.85722222222222L45.714285714285715,128.2222222222222L46,127.59055555555554L46.28571428571429,126.96222222222222L46.57142857142857,126.33722222222224L46.857142857142854,125.71555555555554L47.14285714285714,125.09722222222224L47.42857142857142,124.48222222222225L47.714285714285715,123.87055555555557L48,123.2622222222222L48.285714285714285,122.65722222222222L48.57142857142857,122.05555555555554L48.857142857142854,121.45722222222221L49.142857142857146,120.86222222222223L49.42857142857143,120.27055555555555L49.714285714285715,119.68222222222225L50,119.09722222222223L50.28571428571429,118.51555555555552L50.57142857142857,117.93722222222223L50.857142857142854,117.36222222222223L51.142857142857146,116.79055555555556L51.42857142857144,116.22222222222223L51.714285714285715,115.65722222222223L52,115.09555555555555L52.28571428571429,114.53722222222223L52.57142857142857,113.9822222222222L52.85714285714286,113.43055555555553L53.142857142857146,112.88222222222221L53.42857142857144,112.33722222222222L53.714285714285715,111.79555555555555L53.99999999999999,111.25722222222223L54.285714285714285,110.72222222222221L54.57142857142857,110.19055555555556L54.85714285714286,109.66222222222221L55.14285714285714,109.13722222222222L55.42857142857143,108.61555555555556L55.714285714285715,108.09722222222223L55.99999999999999,107.5822222222222L56.285714285714285,107.07055555555556L56.57142857142857,106.56222222222223L56.85714285714286,106.05722222222225L57.14285714285714,105.55555555555556L57.428571428571416,105.05722222222222L57.714285714285715,104.56222222222222L57.99999999999999,104.07055555555556L58.285714285714285,103.5822222222222L58.57142857142856,103.09722222222221L58.85714285714286,102.61555555555555L59.14285714285714,102.1372222222222L59.42857142857143,101.66222222222221L59.71428571428571,101.19055555555556L60,100.7222222222222L60.285714285714285,100.25722222222223L60.57142857142858,99.79555555555555L60.857142857142854,99.33722222222224L61.142857142857146,98.88222222222221L61.42857142857142,98.43055555555556L61.71428571428572,97.98222222222222L62,97.53722222222223L62.28571428571429,97.09555555555556L62.57142857142857,96.65722222222222L62.85714285714287,96.22222222222221L63.142857142857146,95.79055555555556L63.42857142857143,95.36222222222221L63.714285714285715,94.9372222222222L64,94.51555555555554L64.28571428571429,94.09722222222223L64.57142857142857,93.68222222222222L64.85714285714286,93.27055555555557L65.14285714285714,92.86222222222223L65.42857142857143,92.45722222222224L65.71428571428571,92.05555555555556L66,91.65722222222223L66.28571428571428,91.26222222222222L66.57142857142857,90.87055555555554L66.85714285714285,90.48222222222222L67.14285714285715,90.09722222222223L67.42857142857143,89.71555555555555L67.71428571428572,89.33722222222222L68,88.96222222222224L68.28571428571429,88.59055555555557L68.57142857142857,88.22222222222223L68.85714285714286,87.8572222222222L69.14285714285714,87.49555555555557L69.42857142857143,87.13722222222222L69.71428571428572,86.78222222222223L70,86.43055555555554L70.28571428571428,86.08222222222224L70.57142857142857,85.7372222222222L70.85714285714285,85.39555555555556L71.14285714285715,85.05722222222221L71.42857142857143,84.72222222222221L71.71428571428571,84.39055555555557L72,84.06222222222222L72.28571428571428,83.73722222222221L72.57142857142857,83.41555555555556L72.85714285714285,83.09722222222223L73.14285714285714,82.78222222222223L73.42857142857142,82.47055555555556L73.71428571428572,82.16222222222223L74,81.85722222222222L74.28571428571429,81.55555555555556L74.57142857142857,81.25722222222223L74.85714285714286,80.96222222222222L75.14285714285714,80.67055555555555L75.42857142857143,80.3822222222222L75.71428571428571,80.09722222222221L76,79.81555555555555L76.28571428571428,79.53722222222221L76.57142857142858,79.2622222222222L76.85714285714286,78.99055555555556L77.14285714285715,78.7222222222222L77.42857142857143,78.45722222222224L77.71428571428572,78.19555555555556L78,77.93722222222223L78.28571428571429,77.68222222222221L78.57142857142857,77.43055555555556L78.85714285714285,77.18222222222222L79.14285714285715,76.93722222222222L79.42857142857143,76.69555555555559L79.71428571428572,76.45722222222224L80,76.22222222222223L80.28571428571428,75.99055555555555L80.57142857142857,75.76222222222225L80.85714285714286,75.53722222222221L81.14285714285714,75.31555555555556L81.42857142857143,75.09722222222221L81.71428571428571,74.88222222222223L82,74.67055555555555L82.28571428571428,74.46222222222222L82.57142857142857,74.25722222222223L82.85714285714285,74.05555555555556L83.14285714285715,73.85722222222222L83.42857142857143,73.66222222222223L83.71428571428572,73.47055555555555L84,73.28222222222223L84.28571428571429,73.09722222222221L84.57142857142857,72.91555555555556L84.85714285714286,72.73722222222221L85.14285714285714,72.56222222222223L85.42857142857143,72.39055555555555L85.71428571428571,72.22222222222223L86,72.05722222222222L86.28571428571429,71.89555555555556L86.57142857142857,71.73722222222223L86.85714285714286,71.58222222222221L87.14285714285714,71.43055555555557L87.42857142857143,71.28222222222223L87.71428571428571,71.13722222222223L88,70.99555555555554L88.28571428571428,70.85722222222222L88.57142857142858,70.72222222222221L88.85714285714286,70.59055555555555L89.14285714285714,70.46222222222222L89.42857142857143,70.33722222222222L89.71428571428571,70.21555555555554L90,70.09722222222223L90.28571428571429,69.98222222222223L90.57142857142857,69.87055555555557L90.85714285714286,69.76222222222223L91.14285714285714,69.65722222222222L91.42857142857143,69.55555555555554L91.71428571428571,69.45722222222224L92,69.36222222222224L92.28571428571428,69.27055555555557L92.57142857142858,69.18222222222221L92.85714285714286,69.09722222222221L93.14285714285714,69.01555555555557L93.42857142857143,68.93722222222223L93.71428571428571,68.86222222222223L94,68.79055555555556L94.28571428571428,68.72222222222221L94.57142857142857,68.65722222222222L94.85714285714285,68.59555555555556L95.14285714285714,68.53722222222223L95.42857142857143,68.48222222222222L95.71428571428572,68.43055555555554L96,68.38222222222221L96.28571428571429,68.33722222222222L96.57142857142857,68.29555555555555L96.85714285714286,68.25722222222224L97.14285714285714,68.22222222222223L97.42857142857143,68.19055555555555L97.71428571428571,68.16222222222221L98.00000000000001,68.13722222222222L98.28571428571429,68.11555555555555L98.57142857142858,68.09722222222223L98.85714285714286,68.08222222222223L99.14285714285714,68.07055555555554L99.42857142857143,68.06222222222222L99.71428571428572,68.05722222222221L100,68.05555555555556L100.28571428571429,68.05722222222221L100.57142857142858,68.06222222222222L100.85714285714285,68.07055555555554L101.14285714285714,68.08222222222223L101.42857142857142,68.09722222222223L101.71428571428571,68.11555555555555L102,68.13722222222222L102.28571428571429,68.16222222222221L102.57142857142856,68.19055555555555L102.85714285714288,68.22222222222223L103.14285714285714,68.25722222222224L103.42857142857143,68.29555555555555L103.71428571428571,68.33722222222222L104,68.38222222222221L104.28571428571429,68.43055555555554L104.57142857142858,68.48222222222222L104.85714285714285,68.53722222222223L105.14285714285714,68.59555555555556L105.42857142857143,68.65722222222222L105.71428571428572,68.72222222222221L106,68.79055555555556L106.28571428571429,68.86222222222223L106.57142857142856,68.93722222222223L106.85714285714288,69.01555555555557L107.14285714285714,69.09722222222221L107.42857142857143,69.18222222222221L107.71428571428572,69.27055555555557L107.99999999999999,69.36222222222224L108.28571428571429,69.45722222222224L108.57142857142857,69.55555555555554L108.85714285714285,69.65722222222222L109.14285714285714,69.76222222222223L109.42857142857143,69.87055555555557L109.71428571428572,69.98222222222223L110.00000000000001,70.09722222222223L110.28571428571428,70.21555555555554L110.57142857142857,70.33722222222222L110.85714285714286,70.46222222222222L111.14285714285714,70.59055555555555L111.42857142857143,70.72222222222221L111.71428571428572,70.85722222222222L111.99999999999999,70.99555555555554L112.2857142857143,71.13722222222223L112.57142857142857,71.28222222222223L112.85714285714286,71.43055555555557L113.14285714285714,71.58222222222221L113.42857142857143,71.73722222222223L113.71428571428572,71.89555555555556L114.00000000000001,72.05722222222222L114.28571428571428,72.22222222222223L114.57142857142857,72.39055555555555L114.85714285714283,72.56222222222222L115.14285714285715,72.73722222222221L115.42857142857143,72.91555555555556L115.71428571428571,73.09722222222221L115.99999999999999,73.2822222222222L116.2857142857143,73.47055555555555L116.57142857142857,73.66222222222223L116.85714285714286,73.85722222222222L117.14285714285712,74.05555555555554L117.42857142857144,74.25722222222224L117.71428571428572,74.46222222222222L118,74.67055555555555L118.28571428571428,74.88222222222221L118.57142857142857,75.09722222222221L118.85714285714286,75.31555555555556L119.14285714285715,75.53722222222221L119.42857142857142,75.76222222222222L119.71428571428572,75.99055555555556L120,76.22222222222223L120.28571428571428,76.45722222222224L120.57142857142857,76.69555555555556L120.85714285714286,76.93722222222223L121.14285714285715,77.18222222222222L121.42857142857142,77.43055555555556L121.71428571428571,77.68222222222221L122,77.93722222222222L122.28571428571429,78.19555555555556L122.57142857142857,78.45722222222224L122.85714285714285,78.7222222222222L123.14285714285714,78.99055555555555L123.42857142857144,79.26222222222223L123.71428571428571,79.53722222222221L124,79.81555555555555L124.28571428571426,80.09722222222221L124.57142857142858,80.38222222222223L124.85714285714286,80.67055555555555L125.14285714285714,80.96222222222222L125.42857142857142,81.25722222222223L125.71428571428574,81.55555555555556L126,81.85722222222222L126.28571428571429,82.16222222222223L126.57142857142856,82.47055555555556L126.85714285714286,82.78222222222223L127.14285714285715,83.09722222222223L127.42857142857143,83.41555555555556L127.71428571428571,83.7372222222222L128,84.06222222222223L128.28571428571428,84.39055555555557L128.57142857142858,84.72222222222221L128.85714285714286,85.05722222222221L129.14285714285714,85.39555555555553L129.42857142857142,85.73722222222221L129.71428571428572,86.08222222222224L130,86.43055555555554L130.28571428571428,86.7822222222222L130.57142857142858,87.13722222222225L130.85714285714286,87.49555555555557L131.14285714285714,87.8572222222222L131.42857142857142,88.2222222222222L131.71428571428572,88.59055555555557L132,88.96222222222224L132.28571428571428,89.33722222222222L132.57142857142856,89.71555555555553L132.85714285714286,90.09722222222223L133.14285714285714,90.48222222222222L133.42857142857142,90.87055555555554L133.7142857142857,91.2622222222222L134,91.65722222222223L134.2857142857143,92.05555555555556L134.57142857142856,92.45722222222224L134.85714285714286,92.86222222222223L135.14285714285717,93.27055555555557L135.42857142857144,93.68222222222222L135.71428571428572,94.09722222222223L136,94.51555555555554L136.28571428571428,94.93722222222219L136.57142857142858,95.36222222222224L136.85714285714286,95.79055555555556L137.14285714285714,96.22222222222221L137.42857142857142,96.65722222222222L137.71428571428572,97.09555555555556L138,97.53722222222223L138.28571428571428,97.98222222222222L138.57142857142856,98.43055555555553L138.85714285714286,98.88222222222223L139.14285714285714,99.33722222222224L139.42857142857144,99.79555555555555L139.7142857142857,100.25722222222223L140,100.72222222222224L140.28571428571428,101.19055555555556L140.57142857142856,101.66222222222221L140.85714285714286,102.1372222222222L141.14285714285714,102.61555555555557L141.42857142857144,103.09722222222221L141.7142857142857,103.5822222222222L142,104.07055555555553L142.2857142857143,104.56222222222225L142.57142857142858,105.05722222222222L142.85714285714286,105.55555555555556L143.14285714285714,106.05722222222221L143.42857142857142,106.56222222222218L143.71428571428572,107.07055555555556L144,107.5822222222222L144.28571428571428,108.09722222222223L144.57142857142856,108.61555555555556L144.85714285714286,109.13722222222223L145.14285714285714,109.66222222222221L145.42857142857142,110.19055555555552L145.7142857142857,110.72222222222221L146.00000000000003,111.25722222222223L146.28571428571428,111.79555555555555L146.57142857142858,112.33722222222222L146.85714285714283,112.8822222222222L147.14285714285717,113.43055555555557L147.42857142857144,113.98222222222223L147.71428571428572,114.53722222222223L148,115.09555555555555L148.28571428571428,115.65722222222226L148.57142857142858,116.22222222222223L148.85714285714286,116.79055555555556L149.14285714285714,117.36222222222219L149.42857142857144,117.93722222222225L149.71428571428572,118.51555555555558L150,119.09722222222223L150.28571428571428,119.68222222222221L150.57142857142856,120.27055555555552L150.85714285714286,120.86222222222224L151.14285714285714,121.45722222222221L151.42857142857142,122.05555555555554L151.71428571428572,122.6572222222222L152,123.26222222222225L152.28571428571428,123.87055555555557L152.57142857142856,124.4822222222222L152.85714285714283,125.0972222222222L153.14285714285717,125.71555555555558L153.42857142857142,126.33722222222224L153.71428571428572,126.96222222222222L153.99999999999997,127.59055555555554L154.2857142857143,128.22222222222223L154.57142857142858,128.85722222222222L154.85714285714286,129.49555555555557L155.14285714285714,130.13722222222222L155.42857142857144,130.78222222222223L155.71428571428572,131.43055555555557L156,132.0822222222222L156.28571428571428,132.7372222222222L156.57142857142858,133.39555555555557L156.85714285714286,134.05722222222224L157.14285714285714,134.72222222222223L157.42857142857142,135.39055555555555L157.7142857142857,136.0622222222222L158,136.73722222222224L158.2857142857143,137.41555555555556L158.57142857142856,138.0972222222222L158.85714285714286,138.78222222222217L159.14285714285714,139.4705555555556L159.42857142857144,140.16222222222223L159.71428571428572,140.85722222222222L160,141.55555555555551L160.2857142857143,142.25722222222225L160.57142857142856,142.9622222222222L160.85714285714286,143.67055555555555L161.14285714285714,144.3822222222222L161.42857142857144,145.09722222222226L161.71428571428572,145.81555555555556L162,146.5372222222222L162.28571428571428,147.2622222222222L162.57142857142858,147.99055555555557L162.85714285714286,148.72222222222226L163.14285714285714,149.4572222222222L163.42857142857142,150.19555555555553L163.71428571428572,150.93722222222223L164,151.68222222222224L164.28571428571428,152.43055555555557L164.57142857142856,153.1822222222222L164.85714285714283,153.9372222222222L165.14285714285714,154.6955555555556L165.42857142857144,155.4572222222222L165.7142857142857,156.22222222222223L166,156.99055555555552L166.2857142857143,157.76222222222225L166.57142857142858,158.53722222222223L166.85714285714286,159.31555555555553L167.14285714285714,160.0972222222222L167.42857142857144,160.88222222222223L167.71428571428572,161.67055555555555L168,162.4622222222222L168.28571428571428,163.2572222222222L168.57142857142858,164.05555555555557L168.85714285714286,164.85722222222222L169.14285714285714,165.66222222222223L169.42857142857142,166.47055555555553L169.71428571428572,167.28222222222223L170,168.09722222222223L170.28571428571428,168.91555555555556L170.57142857142858,169.73722222222221L170.85714285714286,170.56222222222226L171.14285714285714,171.39055555555558L171.42857142857142,172.22222222222223" stroke="green" stroke-width="2" opacity="1"></path></g></g><path class="foreground" aria-hidden="true" d="" display="none"></path></g><g transform="translate(0,0)"><path class="background" aria-hidden="true" d="M0,0h200v200h-200Z"></path><g><g class="mark-line role-mark concat_0_layer_0_marks" role="graphics-object" aria-roledescription="line mark container"><path aria-label="x: 1.5; y: 0.166666666667; Legend: Transport Map; r: 2" role="graphics-symbol" aria-roledescription="line mark" d="M42.857142857142854,144.44444444444443L43.142857142857146,144.02944444444447L43.42857142857143,143.61777777777777L43.714285714285715,143.20944444444444L44,142.80444444444444L44.28571428571429,142.40277777777777L44.57142857142857,142.00444444444443L44.857142857142854,141.60944444444445L45.142857142857146,141.21777777777777L45.42857142857143,140.82944444444445L45.714285714285715,140.44444444444443L46,140.06277777777777L46.28571428571429,139.68444444444447L46.57142857142857,139.30944444444444L46.857142857142854,138.9377777777778L47.14285714285714,138.56944444444443L47.42857142857142,138.20444444444445L47.714285714285715,137.84277777777777L48,137.48444444444445L48.285714285714285,137.12944444444446L48.57142857142857,136.77777777777777L48.857142857142854,136.42944444444444L49.142857142857146,136.08444444444444L49.42857142857143,135.74277777777777L49.714285714285715,135.40444444444444L50,135.06944444444443L50.28571428571429,134.73777777777778L50.57142857142857,134.40944444444446L50.857142857142854,134.08444444444444L51.142857142857146,133.76277777777776L51.42857142857144,133.44444444444443L51.714285714285715,133.12944444444446L52,132.8177777777778L52.28571428571429,132.50944444444443L52.57142857142857,132.20444444444445L52.85714285714286,131.9027777777778L53.142857142857146,131.60444444444445L53.42857142857144,131.30944444444444L53.714285714285715,131.01777777777778L53.99999999999999,130.72944444444445L54.285714285714285,130.44444444444446L54.57142857142857,130.1627777777778L54.85714285714286,129.88444444444445L55.14285714285714,129.60944444444445L55.42857142857143,129.33777777777777L55.714285714285715,129.06944444444446L55.99999999999999,128.80444444444444L56.285714285714285,128.5427777777778L56.57142857142857,128.28444444444443L56.85714285714286,128.02944444444444L57.14285714285714,127.77777777777777L57.428571428571416,127.52944444444445L57.714285714285715,127.28444444444445L57.99999999999999,127.04277777777779L58.285714285714285,126.80444444444446L58.57142857142856,126.56944444444444L58.85714285714286,126.33777777777777L59.14285714285714,126.10944444444443L59.42857142857143,125.88444444444444L59.71428571428571,125.66277777777776L60,125.44444444444443L60.285714285714285,125.22944444444444L60.57142857142858,125.01777777777777L60.857142857142854,124.80944444444444L61.142857142857146,124.60444444444445L61.42857142857142,124.40277777777777L61.71428571428572,124.20444444444443L62,124.00944444444444L62.28571428571429,123.81777777777776L62.57142857142857,123.62944444444443L62.85714285714287,123.44444444444443L63.142857142857146,123.26277777777777L63.42857142857143,123.08444444444444L63.714285714285715,122.90944444444445L64,122.7377777777778L64.28571428571429,122.56944444444444L64.57142857142857,122.40444444444445L64.85714285714286,122.24277777777779L65.14285714285714,122.08444444444444L65.42857142857143,121.92944444444444L65.71428571428571,121.77777777777779L66,121.62944444444443L66.28571428571428,121.48444444444446L66.57142857142857,121.34277777777778L66.85714285714285,121.20444444444445L67.14285714285715,121.06944444444446L67.42857142857143,120.93777777777777L67.71428571428572,120.80944444444444L68,120.68444444444447L68.28571428571429,120.5627777777778L68.57142857142857,120.44444444444444L68.85714285714286,120.32944444444445L69.14285714285714,120.21777777777778L69.42857142857143,120.10944444444442L69.71428571428572,120.00444444444445L70,119.90277777777779L70.28571428571428,119.80444444444443L70.57142857142857,119.70944444444444L70.85714285714285,119.61777777777777L71.14285714285715,119.52944444444444L71.42857142857143,119.44444444444446L71.71428571428571,119.3627777777778L72,119.28444444444443L72.28571428571428,119.20944444444443L72.57142857142857,119.13777777777779L72.85714285714285,119.06944444444446L73.14285714285714,119.00444444444445L73.42857142857142,118.94277777777778L73.71428571428572,118.88444444444444L74,118.82944444444443L74.28571428571429,118.77777777777779L74.57142857142857,118.72944444444444L74.85714285714286,118.68444444444447L75.14285714285714,118.64277777777778L75.42857142857143,118.60444444444444L75.71428571428571,118.56944444444446L76,118.53777777777779L76.28571428571428,118.50944444444444L76.57142857142858,118.48444444444443L76.85714285714286,118.46277777777776L77.14285714285715,118.44444444444444L77.42857142857143,118.42944444444443L77.71428571428572,118.41777777777777L78,118.40944444444443L78.28571428571429,118.40444444444445L78.57142857142857,118.40277777777777L78.85714285714285,118.40444444444445L79.14285714285715,118.40944444444443L79.42857142857143,118.41777777777777L79.71428571428572,118.42944444444443L80,118.44444444444444L80.28571428571428,118.46277777777776L80.57142857142857,118.48444444444443L80.85714285714286,118.50944444444444L81.14285714285714,118.53777777777779L81.42857142857143,118.56944444444446L81.71428571428571,118.60444444444444L82,118.64277777777778L82.28571428571428,118.68444444444447L82.57142857142857,118.72944444444444L82.85714285714285,118.77777777777779L83.14285714285715,118.82944444444443L83.42857142857143,118.88444444444444L83.71428571428572,118.94277777777778L84,119.00444444444445L84.28571428571429,119.06944444444446L84.57142857142857,119.13777777777779L84.85714285714286,119.20944444444443L85.14285714285714,119.28444444444443L85.42857142857143,119.3627777777778L85.71428571428571,119.44444444444446L86,119.52944444444444L86.28571428571429,119.61777777777777L86.57142857142857,119.70944444444444L86.85714285714286,119.80444444444443L87.14285714285714,119.90277777777779L87.42857142857143,120.00444444444445L87.71428571428571,120.10944444444442L88,120.21777777777778L88.28571428571428,120.32944444444445L88.57142857142858,120.44444444444444L88.85714285714286,120.5627777777778L89.14285714285714,120.68444444444447L89.42857142857143,120.80944444444444L89.71428571428571,120.93777777777777L90,121.06944444444446L90.28571428571429,121.20444444444445L90.57142857142857,121.34277777777778L90.85714285714286,121.48444444444446L91.14285714285714,121.62944444444443L91.42857142857143,121.77777777777779L91.71428571428571,121.92944444444444L92,122.08444444444444L92.28571428571428,122.24277777777779L92.57142857142858,122.40444444444445L92.85714285714286,122.56944444444444L93.14285714285714,122.7377777777778L93.42857142857143,122.90944444444445L93.71428571428571,123.08444444444444L94,123.26277777777777L94.28571428571428,123.44444444444443L94.57142857142857,123.62944444444443L94.85714285714285,123.81777777777776L95.14285714285714,124.00944444444444L95.42857142857143,124.20444444444443L95.71428571428572,124.40277777777777L96,124.60444444444445L96.28571428571429,124.80944444444444L96.57142857142857,125.01777777777777L96.85714285714286,125.22944444444444L97.14285714285714,125.44444444444443L97.42857142857143,125.66277777777776L97.71428571428571,125.88444444444444L98.00000000000001,126.10944444444443L98.28571428571429,126.33777777777777L98.57142857142858,126.56944444444444L98.85714285714286,126.80444444444446L99.14285714285714,127.04277777777779L99.42857142857143,127.28444444444445L99.71428571428572,127.52944444444445L100,127.77777777777777L100.28571428571429,128.02944444444444L100.57142857142858,128.28444444444443L100.85714285714285,128.54277777777776L101.14285714285714,128.80444444444444L101.42857142857142,129.06944444444446L101.71428571428571,129.33777777777777L102,129.60944444444445L102.28571428571429,129.88444444444445L102.57142857142856,130.1627777777778L102.85714285714288,130.44444444444446L103.14285714285714,130.72944444444445L103.42857142857143,131.01777777777778L103.71428571428571,131.30944444444444L104,131.60444444444445L104.28571428571429,131.9027777777778L104.57142857142858,132.20444444444445L104.85714285714285,132.50944444444443L105.14285714285714,132.8177777777778L105.42857142857143,133.12944444444446L105.71428571428572,133.44444444444443L106,133.76277777777776L106.28571428571429,134.08444444444444L106.57142857142856,134.40944444444446L106.85714285714288,134.7377777777778L107.14285714285714,135.06944444444443L107.42857142857143,135.40444444444444L107.71428571428572,135.74277777777777L107.99999999999999,136.08444444444444L108.28571428571429,136.42944444444444L108.57142857142857,136.77777777777777L108.85714285714285,137.12944444444446L109.14285714285714,137.48444444444442L109.42857142857143,137.84277777777777L109.71428571428572,138.20444444444445L110.00000000000001,138.56944444444443L110.28571428571428,138.9377777777778L110.57142857142857,139.30944444444444L110.85714285714286,139.68444444444447L111.14285714285714,140.06277777777777L111.42857142857143,140.44444444444443L111.71428571428572,140.82944444444445L111.99999999999999,141.21777777777777L112.2857142857143,141.60944444444445L112.57142857142857,142.00444444444443L112.85714285714286,142.4027777777778L113.14285714285714,142.80444444444444L113.42857142857143,143.20944444444444L113.71428571428572,143.61777777777777L114.00000000000001,144.02944444444447L114.28571428571428,144.44444444444443" stroke="green" stroke-width="2" opacity="1"></path></g></g><path class="foreground" aria-hidden="true" d="" display="none"></path></g><g transform="translate(0,0)"><path class="background" aria-hidden="true" d="M0,0h200v200h-200Z"></path><g><g class="mark-line role-mark concat_0_layer_0_marks" role="graphics-object" aria-roledescription="line mark container"><path aria-label="x: 2; y: 0.25; Legend: Transport Map; r: 3" role="graphics-symbol" aria-roledescription="line mark" d="M57.14285714285714,116.66666666666666L57.428571428571416,116.16833333333334L57.714285714285715,115.67333333333335L57.99999999999999,115.18166666666667L58.285714285714285,114.69333333333334L58.57142857142856,114.20833333333333L58.85714285714286,113.72666666666666L59.14285714285714,113.24833333333335L59.42857142857143,112.77333333333333L59.71428571428571,112.30166666666668L60,111.83333333333331L60.285714285714285,111.36833333333334L60.57142857142858,110.90666666666667L60.857142857142854,110.44833333333335L61.142857142857146,109.99333333333333L61.42857142857142,109.54166666666667L61.71428571428572,109.0933333333333L62,108.64833333333333L62.28571428571429,108.20666666666665L62.57142857142857,107.76833333333333L62.85714285714287,107.33333333333333L63.142857142857146,106.90166666666667L63.42857142857143,106.47333333333331L63.714285714285715,106.04833333333332L64,105.62666666666665L64.28571428571429,105.20833333333334L64.57142857142857,104.79333333333334L64.85714285714286,104.38166666666663L65.14285714285714,103.97333333333334L65.42857142857143,103.5683333333333L65.71428571428571,103.16666666666667L66,102.76833333333335L66.28571428571428,102.37333333333333L66.57142857142857,101.98166666666665L66.85714285714285,101.59333333333333L67.14285714285715,101.20833333333334L67.42857142857143,100.82666666666667L67.71428571428572,100.44833333333334L68,100.07333333333332L68.28571428571429,99.70166666666664L68.57142857142857,99.33333333333334L68.85714285714286,98.96833333333332L69.14285714285714,98.60666666666667L69.42857142857143,98.24833333333333L69.71428571428572,97.89333333333335L70,97.54166666666666L70.28571428571428,97.19333333333333L70.57142857142857,96.84833333333331L70.85714285714285,96.50666666666667L71.14285714285715,96.16833333333332L71.42857142857143,95.83333333333333L71.71428571428571,95.50166666666667L72,95.17333333333333L72.28571428571428,94.84833333333333L72.57142857142857,94.52666666666664L72.85714285714285,94.20833333333334L73.14285714285714,93.89333333333335L73.42857142857142,93.58166666666668L73.71428571428572,93.27333333333331L74,92.96833333333332L74.28571428571429,92.66666666666666L74.57142857142857,92.36833333333334L74.85714285714286,92.07333333333332L75.14285714285714,91.78166666666665L75.42857142857143,91.49333333333331L75.71428571428571,91.20833333333334L76,90.92666666666666L76.28571428571428,90.64833333333333L76.57142857142858,90.37333333333333L76.85714285714286,90.10166666666667L77.14285714285715,89.83333333333331L77.42857142857143,89.56833333333331L77.71428571428572,89.30666666666664L78,89.04833333333333L78.28571428571429,88.79333333333332L78.57142857142857,88.54166666666667L78.85714285714285,88.29333333333334L79.14285714285715,88.04833333333333L79.42857142857143,87.80666666666666L79.71428571428572,87.56833333333331L80,87.33333333333333L80.28571428571428,87.10166666666667L80.57142857142857,86.8733333333333L80.85714285714286,86.64833333333333L81.14285714285714,86.42666666666665L81.42857142857143,86.20833333333333L81.71428571428571,85.99333333333333L82,85.78166666666664L82.28571428571428,85.57333333333332L82.57142857142857,85.36833333333334L82.85714285714285,85.16666666666666L83.14285714285715,84.9683333333333L83.42857142857143,84.77333333333333L83.71428571428572,84.58166666666666L84,84.39333333333332L84.28571428571429,84.20833333333333L84.57142857142857,84.02666666666664L84.85714285714286,83.84833333333333L85.14285714285714,83.67333333333333L85.42857142857143,83.50166666666665L85.71428571428571,83.33333333333333L86,83.16833333333334L86.28571428571429,83.00666666666665L86.57142857142857,82.84833333333334L86.85714285714286,82.69333333333333L87.14285714285714,82.54166666666667L87.42857142857143,82.39333333333332L87.71428571428571,82.24833333333332L88,82.10666666666665L88.28571428571428,81.96833333333333L88.57142857142858,81.83333333333334L88.85714285714286,81.70166666666665L89.14285714285714,81.57333333333334L89.42857142857143,81.44833333333332L89.71428571428571,81.32666666666665L90,81.20833333333333L90.28571428571429,81.0933333333333L90.57142857142857,80.98166666666667L90.85714285714286,80.8733333333333L91.14285714285714,80.76833333333333L91.42857142857143,80.66666666666666L91.71428571428571,80.56833333333331L92,80.47333333333333L92.28571428571428,80.38166666666666L92.57142857142858,80.29333333333332L92.85714285714286,80.20833333333333L93.14285714285714,80.12666666666665L93.42857142857143,80.04833333333335L93.71428571428571,79.97333333333331L94,79.90166666666664L94.28571428571428,79.83333333333333L94.57142857142857,79.76833333333333L94.85714285714285,79.70666666666666L95.14285714285714,79.64833333333333L95.42857142857143,79.59333333333333L95.71428571428572,79.54166666666667L96,79.49333333333333L96.28571428571429,79.44833333333332L96.57142857142857,79.40666666666667L96.85714285714286,79.36833333333333L97.14285714285714,79.33333333333333L97.42857142857143,79.30166666666668L97.71428571428571,79.27333333333333L98.00000000000001,79.24833333333332L98.28571428571429,79.22666666666667L98.57142857142858,79.20833333333333L98.85714285714286,79.19333333333331L99.14285714285714,79.18166666666666L99.42857142857143,79.17333333333332L99.71428571428572,79.16833333333332L100,79.16666666666667L100.28571428571429,79.16833333333332L100.57142857142858,79.17333333333332L100.85714285714285,79.18166666666666L101.14285714285714,79.19333333333331L101.42857142857142,79.20833333333333L101.71428571428571,79.22666666666667L102,79.24833333333332L102.28571428571429,79.27333333333333L102.57142857142856,79.30166666666668L102.85714285714288,79.33333333333333L103.14285714285714,79.36833333333333L103.42857142857143,79.40666666666667L103.71428571428571,79.44833333333332L104,79.49333333333333L104.28571428571429,79.54166666666667L104.57142857142858,79.59333333333333L104.85714285714285,79.64833333333333L105.14285714285714,79.70666666666666L105.42857142857143,79.76833333333333L105.71428571428572,79.83333333333333L106,79.90166666666664L106.28571428571429,79.97333333333331L106.57142857142856,80.04833333333335L106.85714285714288,80.12666666666665L107.14285714285714,80.20833333333333L107.42857142857143,80.29333333333332L107.71428571428572,80.38166666666666L107.99999999999999,80.47333333333333L108.28571428571429,80.56833333333331L108.57142857142857,80.66666666666666L108.85714285714285,80.76833333333333L109.14285714285714,80.8733333333333L109.42857142857143,80.98166666666667L109.71428571428572,81.0933333333333L110.00000000000001,81.20833333333333L110.28571428571428,81.32666666666665L110.57142857142857,81.44833333333332L110.85714285714286,81.57333333333334L111.14285714285714,81.70166666666665L111.42857142857143,81.83333333333334L111.71428571428572,81.96833333333333L111.99999999999999,82.10666666666665L112.2857142857143,82.24833333333332L112.57142857142857,82.39333333333332L112.85714285714286,82.54166666666667L113.14285714285714,82.69333333333333L113.42857142857143,82.84833333333334L113.71428571428572,83.00666666666665L114.00000000000001,83.16833333333334L114.28571428571428,83.33333333333333L114.57142857142857,83.50166666666665L114.85714285714283,83.67333333333333L115.14285714285715,83.84833333333334L115.42857142857143,84.02666666666664L115.71428571428571,84.20833333333333L115.99999999999999,84.39333333333332L116.2857142857143,84.58166666666666L116.57142857142857,84.77333333333333L116.85714285714286,84.9683333333333L117.14285714285712,85.16666666666666L117.42857142857144,85.36833333333334L117.71428571428572,85.57333333333332L118,85.78166666666664L118.28571428571428,85.99333333333333L118.57142857142857,86.20833333333333L118.85714285714286,86.42666666666665L119.14285714285715,86.64833333333333L119.42857142857142,86.8733333333333L119.71428571428572,87.10166666666667L120,87.33333333333333L120.28571428571428,87.56833333333331L120.57142857142857,87.80666666666666L120.85714285714286,88.04833333333335L121.14285714285715,88.29333333333334L121.42857142857142,88.54166666666667L121.71428571428571,88.79333333333332L122,89.04833333333333L122.28571428571429,89.30666666666667L122.57142857142857,89.56833333333331L122.85714285714285,89.83333333333331L123.14285714285714,90.10166666666666L123.42857142857144,90.37333333333335L123.71428571428571,90.64833333333333L124,90.92666666666666L124.28571428571426,91.20833333333331L124.57142857142858,91.49333333333334L124.85714285714286,91.78166666666665L125.14285714285714,92.07333333333332L125.42857142857142,92.36833333333333L125.71428571428574,92.66666666666667L126,92.96833333333332L126.28571428571429,93.27333333333331L126.57142857142856,93.58166666666665L126.85714285714286,93.89333333333335L127.14285714285715,94.20833333333334L127.42857142857143,94.52666666666664L127.71428571428571,94.84833333333331L128,95.17333333333333L128.28571428571428,95.50166666666667L128.57142857142858,95.83333333333333L128.85714285714286,96.16833333333332L129.14285714285714,96.50666666666665L129.42857142857142,96.84833333333333L129.71428571428572,97.19333333333333L130,97.54166666666666L130.28571428571428,97.89333333333332L130.57142857142858,98.24833333333333L130.85714285714286,98.60666666666667L131.14285714285714,98.96833333333332L131.42857142857142,99.33333333333331L131.71428571428572,99.70166666666667L132,100.07333333333332L132.28571428571428,100.44833333333334L132.57142857142856,100.82666666666667L132.85714285714286,101.20833333333334L133.14285714285714,101.59333333333333L133.42857142857142,101.98166666666665L133.7142857142857,102.37333333333332L134,102.76833333333335L134.2857142857143,103.16666666666667L134.57142857142856,103.5683333333333L134.85714285714286,103.97333333333334L135.14285714285717,104.38166666666669L135.42857142857144,104.79333333333334L135.71428571428572,105.20833333333334L136,105.62666666666665L136.28571428571428,106.0483333333333L136.57142857142858,106.47333333333336L136.85714285714286,106.90166666666667L137.14285714285714,107.33333333333333L137.42857142857142,107.76833333333333L137.71428571428572,108.20666666666668L138,108.64833333333333L138.28571428571428,109.0933333333333L138.57142857142856,109.54166666666664L138.85714285714286,109.99333333333334L139.14285714285714,110.44833333333335L139.42857142857144,110.90666666666667L139.7142857142857,111.36833333333331L140,111.83333333333334L140.28571428571428,112.30166666666668L140.57142857142856,112.77333333333333L140.85714285714286,113.24833333333333L141.14285714285714,113.72666666666669L141.42857142857144,114.20833333333333L141.7142857142857,114.69333333333334L142,115.18166666666664L142.2857142857143,115.67333333333335L142.57142857142858,116.16833333333334L142.85714285714286,116.66666666666666" stroke="green" stroke-width="2" opacity="1"></path></g></g><path class="foreground" aria-hidden="true" d="" display="none"></path></g></g><g class="mark-symbol role-mark concat_0_layer_1_marks" role="graphics-object" aria-roledescription="symbol mark container"><path aria-label="x: 1; y: 0.0833333333333; c: μ" role="graphics-symbol" aria-roledescription="circle" transform="translate(28.57142857142857,172.22222222222223)" d="M2.7386127875258306,0A2.7386127875258306,2.7386127875258306,0,1,1,-2.7386127875258306,0A2.7386127875258306,2.7386127875258306,0,1,1,2.7386127875258306,0" fill="#4682b4" stroke-width="2" opacity="1"></path><path aria-label="x: 1.5; y: 0.166666666667; c: μ" role="graphics-symbol" aria-roledescription="circle" transform="translate(42.857142857142854,144.44444444444443)" d="M2.7386127875258306,0A2.7386127875258306,2.7386127875258306,0,1,1,-2.7386127875258306,0A2.7386127875258306,2.7386127875258306,0,1,1,2.7386127875258306,0" fill="#4682b4" stroke-width="2" opacity="1"></path><path aria-label="x: 2; y: 0.25; c: μ" role="graphics-symbol" aria-roledescription="circle" transform="translate(57.14285714285714,116.66666666666666)" d="M2.7386127875258306,0A2.7386127875258306,2.7386127875258306,0,1,1,-2.7386127875258306,0A2.7386127875258306,2.7386127875258306,0,1,1,2.7386127875258306,0" fill="#4682b4" stroke-width="2" opacity="1"></path><path aria-label="x: 4; y: 0.166666666667; c: ν" role="graphics-symbol" aria-roledescription="circle" transform="translate(114.28571428571428,144.44444444444443)" d="M2.7386127875258306,0A2.7386127875258306,2.7386127875258306,0,1,1,-2.7386127875258306,0A2.7386127875258306,2.7386127875258306,0,1,1,2.7386127875258306,0" fill="red" stroke-width="2" opacity="1"></path><path aria-label="x: 5; y: 0.25; c: ν" role="graphics-symbol" aria-roledescription="circle" transform="translate(142.85714285714286,116.66666666666666)" d="M2.7386127875258306,0A2.7386127875258306,2.7386127875258306,0,1,1,-2.7386127875258306,0A2.7386127875258306,2.7386127875258306,0,1,1,2.7386127875258306,0" fill="red" stroke-width="2" opacity="1"></path><path aria-label="x: 6; y: 0.0833333333333; c: ν" role="graphics-symbol" aria-roledescription="circle" transform="translate(171.42857142857142,172.22222222222223)" d="M2.7386127875258306,0A2.7386127875258306,2.7386127875258306,0,1,1,-2.7386127875258306,0A2.7386127875258306,2.7386127875258306,0,1,1,2.7386127875258306,0" fill="red" stroke-width="2" opacity="1"></path></g><g class="mark-group role-scope concat_0_layer_2_pathgroup" role="graphics-object" aria-roledescription="group mark container"><g transform="translate(0,0)"><path class="background" aria-hidden="true" d="M0,0h200v200h-200Z"></path><g><g class="mark-line role-mark concat_0_layer_2_marks" role="graphics-object" aria-roledescription="line mark container"><path aria-label="x: 1; y: 0; c: μ; r: 1" role="graphics-symbol" aria-roledescription="line mark" d="M28.57142857142857,200L28.57142857142857,172.22222222222223" stroke="#4682b4" stroke-width="2"></path></g></g><path class="foreground" aria-hidden="true" d="" display="none"></path></g><g transform="translate(0,0)"><path class="background" aria-hidden="true" d="M0,0h200v200h-200Z"></path><g><g class="mark-line role-mark concat_0_layer_2_marks" role="graphics-object" aria-roledescription="line mark container"><path aria-label="x: 1.5; y: 0; c: μ; r: 2" role="graphics-symbol" aria-roledescription="line mark" d="M42.857142857142854,200L42.857142857142854,144.44444444444443" stroke="#4682b4" stroke-width="2"></path></g></g><path class="foreground" aria-hidden="true" d="" display="none"></path></g><g transform="translate(0,0)"><path class="background" aria-hidden="true" d="M0,0h200v200h-200Z"></path><g><g class="mark-line role-mark concat_0_layer_2_marks" role="graphics-object" aria-roledescription="line mark container"><path aria-label="x: 2; y: 0; c: μ; r: 3" role="graphics-symbol" aria-roledescription="line mark" d="M57.14285714285714,200L57.14285714285714,116.66666666666666" stroke="#4682b4" stroke-width="2"></path></g></g><path class="foreground" aria-hidden="true" d="" display="none"></path></g><g transform="translate(0,0)"><path class="background" aria-hidden="true" d="M0,0h200v200h-200Z"></path><g><g class="mark-line role-mark concat_0_layer_2_marks" role="graphics-object" aria-roledescription="line mark container"><path aria-label="x: 4; y: 0; c: ν; r: 4" role="graphics-symbol" aria-roledescription="line mark" d="M114.28571428571428,200L114.28571428571428,144.44444444444443" stroke="red" stroke-width="2"></path></g></g><path class="foreground" aria-hidden="true" d="" display="none"></path></g><g transform="translate(0,0)"><path class="background" aria-hidden="true" d="M0,0h200v200h-200Z"></path><g><g class="mark-line role-mark concat_0_layer_2_marks" role="graphics-object" aria-roledescription="line mark container"><path aria-label="x: 5; y: 0; c: ν; r: 5" role="graphics-symbol" aria-roledescription="line mark" d="M142.85714285714286,200L142.85714285714286,116.66666666666666" stroke="red" stroke-width="2"></path></g></g><path class="foreground" aria-hidden="true" d="" display="none"></path></g><g transform="translate(0,0)"><path class="background" aria-hidden="true" d="M0,0h200v200h-200Z"></path><g><g class="mark-line role-mark concat_0_layer_2_marks" role="graphics-object" aria-roledescription="line mark container"><path aria-label="x: 6; y: 0; c: ν; r: 6" role="graphics-symbol" aria-roledescription="line mark" d="M171.42857142857142,200L171.42857142857142,172.22222222222223" stroke="red" stroke-width="2"></path></g></g><path class="foreground" aria-hidden="true" d="" display="none"></path></g></g><g class="mark-group role-title"><g transform="translate(100,-22)"><path class="background" aria-hidden="true" d="M0,0h0v0h0Z" pointer-events="none"></path><g><g class="mark-text role-title-text" role="graphics-symbol" aria-roledescription="title" aria-label="Title text 'Optimal Transport Map Solution'" pointer-events="none"><text text-anchor="middle" transform="translate(0,10)" font-family="sans-serif" font-size="13px" font-weight="bold" fill="#000" opacity="1">Optimal Transport Map Solution</text></g></g><path class="foreground" aria-hidden="true" d="" pointer-events="none" display="none"></path></g></g></g><path class="foreground" aria-hidden="true" d="" display="none"></path></g></g><g class="mark-group role-scope concat_1_group" role="graphics-object" aria-roledescription="group mark container"><g transform="translate(275,0)"><path class="background" aria-hidden="true" d="M0.5,0.5h200v200h-200Z" stroke="#ddd"></path><g><g class="mark-group role-axis" role="graphics-symbol" aria-roledescription="axis" aria-label="X-axis titled 'x' for a linear scale with values from 0 to 7"><g transform="translate(0.5,200.5)"><path class="background" aria-hidden="true" d="M0,0h0v0h0Z" pointer-events="none"></path><g><g class="mark-rule role-axis-tick" pointer-events="none"><line transform="translate(0,0)" x2="0" y2="5" stroke="#888" stroke-width="1" opacity="1"></line><line transform="translate(29,0)" x2="0" y2="5" stroke="#888" stroke-width="1" opacity="1"></line><line transform="translate(57,0)" x2="0" y2="5" stroke="#888" stroke-width="1" opacity="1"></line><line transform="translate(86,0)" x2="0" y2="5" stroke="#888" stroke-width="1" opacity="1"></line><line transform="translate(114,0)" x2="0" y2="5" stroke="#888" stroke-width="1" opacity="1"></line><line transform="translate(143,0)" x2="0" y2="5" stroke="#888" stroke-width="1" opacity="1"></line><line transform="translate(171,0)" x2="0" y2="5" stroke="#888" stroke-width="1" opacity="1"></line><line transform="translate(200,0)" x2="0" y2="5" stroke="#888" stroke-width="1" opacity="1"></line></g><g class="mark-text role-axis-label" pointer-events="none"><text text-anchor="start" transform="translate(0,15)" font-family="sans-serif" font-size="10px" fill="#000" opacity="1">0</text><text text-anchor="middle" transform="translate(28.57142857142857,15)" font-family="sans-serif" font-size="10px" fill="#000" opacity="1">1</text><text text-anchor="middle" transform="translate(57.14285714285714,15)" font-family="sans-serif" font-size="10px" fill="#000" opacity="1">2</text><text text-anchor="middle" transform="translate(85.71428571428571,15)" font-family="sans-serif" font-size="10px" fill="#000" opacity="1">3</text><text text-anchor="middle" transform="translate(114.28571428571428,15)" font-family="sans-serif" font-size="10px" fill="#000" opacity="1">4</text><text text-anchor="middle" transform="translate(142.85714285714286,15)" font-family="sans-serif" font-size="10px" fill="#000" opacity="1">5</text><text text-anchor="middle" transform="translate(171.42857142857142,15)" font-family="sans-serif" font-size="10px" fill="#000" opacity="1">6</text><text text-anchor="end" transform="translate(200,15)" font-family="sans-serif" font-size="10px" fill="#000" opacity="1">7</text></g><g class="mark-rule role-axis-domain" pointer-events="none"><line transform="translate(0,0)" x2="200" y2="0" stroke="#888" stroke-width="1" opacity="1"></line></g><g class="mark-text role-axis-title" pointer-events="none"><text text-anchor="middle" transform="translate(100,30)" font-family="sans-serif" font-size="11px" font-weight="bold" fill="#000" opacity="1">x</text></g></g><path class="foreground" aria-hidden="true" d="" pointer-events="none" display="none"></path></g></g><g class="mark-group role-axis" role="graphics-symbol" aria-roledescription="axis" aria-label="Y-axis titled 'y' for a linear scale with values from 0.0 to 0.6"><g transform="translate(0.5,0.5)"><path class="background" aria-hidden="true" d="M0,0h0v0h0Z" pointer-events="none"></path><g><g class="mark-rule role-axis-tick" pointer-events="none"><line transform="translate(0,200)" x2="-5" y2="0" stroke="#888" stroke-width="1" opacity="1"></line><line transform="translate(0,167)" x2="-5" y2="0" stroke="#888" stroke-width="1" opacity="1"></line><line transform="translate(0,133)" x2="-5" y2="0" stroke="#888" stroke-width="1" opacity="1"></line><line transform="translate(0,100)" x2="-5" y2="0" stroke="#888" stroke-width="1" opacity="1"></line><line transform="translate(0,67)" x2="-5" y2="0" stroke="#888" stroke-width="1" opacity="1"></line><line transform="translate(0,33)" x2="-5" y2="0" stroke="#888" stroke-width="1" opacity="1"></line><line transform="translate(0,0)" x2="-5" y2="0" stroke="#888" stroke-width="1" opacity="1"></line></g><g class="mark-text role-axis-label" pointer-events="none"><text text-anchor="end" transform="translate(-7,203)" font-family="sans-serif" font-size="10px" fill="#000" opacity="1">0.0</text><text text-anchor="end" transform="translate(-7,169.66666666666666)" font-family="sans-serif" font-size="10px" fill="#000" opacity="1">0.1</text><text text-anchor="end" transform="translate(-7,136.33333333333331)" font-family="sans-serif" font-size="10px" fill="#000" opacity="1">0.2</text><text text-anchor="end" transform="translate(-7,103)" font-family="sans-serif" font-size="10px" fill="#000" opacity="1">0.3</text><text text-anchor="end" transform="translate(-7,69.66666666666666)" font-family="sans-serif" font-size="10px" fill="#000" opacity="1">0.4</text><text text-anchor="end" transform="translate(-7,36.33333333333333)" font-family="sans-serif" font-size="10px" fill="#000" opacity="1">0.5</text><text text-anchor="end" transform="translate(-7,3)" font-family="sans-serif" font-size="10px" fill="#000" opacity="1">0.6</text></g><g class="mark-rule role-axis-domain" pointer-events="none"><line transform="translate(0,200)" x2="0" y2="-200" stroke="#888" stroke-width="1" opacity="1"></line></g><g class="mark-text role-axis-title" pointer-events="none"><text text-anchor="middle" transform="translate(-26,100) rotate(-90) translate(0,-2)" font-family="sans-serif" font-size="11px" font-weight="bold" fill="#000" opacity="1">y</text></g></g><path class="foreground" aria-hidden="true" d="" pointer-events="none" display="none"></path></g></g><g class="mark-symbol role-mark concat_1_layer_0_marks" role="graphics-object" aria-roledescription="symbol mark container"><path aria-label="x: 1; y: 0.166666666667; Measure: μ" role="graphics-symbol" aria-roledescription="circle" transform="translate(28.57142857142857,144.44444444444443)" d="M2.7386127875258306,0A2.7386127875258306,2.7386127875258306,0,1,1,-2.7386127875258306,0A2.7386127875258306,2.7386127875258306,0,1,1,2.7386127875258306,0" fill="#4682b4" stroke-width="2" opacity="1"></path><path aria-label="x: 1.5; y: 0.166666666667; Measure: μ" role="graphics-symbol" aria-roledescription="circle" transform="translate(42.857142857142854,144.44444444444443)" d="M2.7386127875258306,0A2.7386127875258306,2.7386127875258306,0,1,1,-2.7386127875258306,0A2.7386127875258306,2.7386127875258306,0,1,1,2.7386127875258306,0" fill="#4682b4" stroke-width="2" opacity="1"></path><path aria-label="x: 2; y: 0.166666666667; Measure: μ" role="graphics-symbol" aria-roledescription="circle" transform="translate(57.14285714285714,144.44444444444443)" d="M2.7386127875258306,0A2.7386127875258306,2.7386127875258306,0,1,1,-2.7386127875258306,0A2.7386127875258306,2.7386127875258306,0,1,1,2.7386127875258306,0" fill="#4682b4" stroke-width="2" opacity="1"></path><path aria-label="x: 4; y: 0.333333333333; Measure: ν" role="graphics-symbol" aria-roledescription="circle" transform="translate(114.28571428571428,88.88888888888889)" d="M2.7386127875258306,0A2.7386127875258306,2.7386127875258306,0,1,1,-2.7386127875258306,0A2.7386127875258306,2.7386127875258306,0,1,1,2.7386127875258306,0" fill="red" stroke-width="2" opacity="1"></path><path aria-label="x: 4.3; y: 0.0833333333333; Measure: ν" role="graphics-symbol" aria-roledescription="circle" transform="translate(122.85714285714285,172.22222222222223)" d="M2.7386127875258306,0A2.7386127875258306,2.7386127875258306,0,1,1,-2.7386127875258306,0A2.7386127875258306,2.7386127875258306,0,1,1,2.7386127875258306,0" fill="red" stroke-width="2" opacity="1"></path><path aria-label="x: 6; y: 0.0833333333333; Measure: ν" role="graphics-symbol" aria-roledescription="circle" transform="translate(171.42857142857142,172.22222222222223)" d="M2.7386127875258306,0A2.7386127875258306,2.7386127875258306,0,1,1,-2.7386127875258306,0A2.7386127875258306,2.7386127875258306,0,1,1,2.7386127875258306,0" fill="red" stroke-width="2" opacity="1"></path></g><g class="mark-group role-scope concat_1_layer_1_pathgroup" role="graphics-object" aria-roledescription="group mark container"><g transform="translate(0,0)"><path class="background" aria-hidden="true" d="M0,0h200v200h-200Z"></path><g><g class="mark-line role-mark concat_1_layer_1_marks" role="graphics-object" aria-roledescription="line mark container"><path aria-label="x: 1; y: 0; c: μ; r: 1" role="graphics-symbol" aria-roledescription="line mark" d="M28.57142857142857,200L28.57142857142857,144.44444444444443" stroke="#4682b4" stroke-width="2"></path></g></g><path class="foreground" aria-hidden="true" d="" display="none"></path></g><g transform="translate(0,0)"><path class="background" aria-hidden="true" d="M0,0h200v200h-200Z"></path><g><g class="mark-line role-mark concat_1_layer_1_marks" role="graphics-object" aria-roledescription="line mark container"><path aria-label="x: 1.5; y: 0; c: μ; r: 2" role="graphics-symbol" aria-roledescription="line mark" d="M42.857142857142854,200L42.857142857142854,144.44444444444443" stroke="#4682b4" stroke-width="2"></path></g></g><path class="foreground" aria-hidden="true" d="" display="none"></path></g><g transform="translate(0,0)"><path class="background" aria-hidden="true" d="M0,0h200v200h-200Z"></path><g><g class="mark-line role-mark concat_1_layer_1_marks" role="graphics-object" aria-roledescription="line mark container"><path aria-label="x: 2; y: 0; c: μ; r: 3" role="graphics-symbol" aria-roledescription="line mark" d="M57.14285714285714,200L57.14285714285714,144.44444444444443" stroke="#4682b4" stroke-width="2"></path></g></g><path class="foreground" aria-hidden="true" d="" display="none"></path></g><g transform="translate(0,0)"><path class="background" aria-hidden="true" d="M0,0h200v200h-200Z"></path><g><g class="mark-line role-mark concat_1_layer_1_marks" role="graphics-object" aria-roledescription="line mark container"><path aria-label="x: 4; y: 0; c: ν; r: 4" role="graphics-symbol" aria-roledescription="line mark" d="M114.28571428571428,200L114.28571428571428,88.88888888888889" stroke="red" stroke-width="2"></path></g></g><path class="foreground" aria-hidden="true" d="" display="none"></path></g><g transform="translate(0,0)"><path class="background" aria-hidden="true" d="M0,0h200v200h-200Z"></path><g><g class="mark-line role-mark concat_1_layer_1_marks" role="graphics-object" aria-roledescription="line mark container"><path aria-label="x: 4.3; y: 0; c: ν; r: 5" role="graphics-symbol" aria-roledescription="line mark" d="M122.85714285714285,200L122.85714285714285,172.22222222222223" stroke="red" stroke-width="2"></path></g></g><path class="foreground" aria-hidden="true" d="" display="none"></path></g><g transform="translate(0,0)"><path class="background" aria-hidden="true" d="M0,0h200v200h-200Z"></path><g><g class="mark-line role-mark concat_1_layer_1_marks" role="graphics-object" aria-roledescription="line mark container"><path aria-label="x: 6; y: 0; c: ν; r: 6" role="graphics-symbol" aria-roledescription="line mark" d="M171.42857142857142,200L171.42857142857142,172.22222222222223" stroke="red" stroke-width="2"></path></g></g><path class="foreground" aria-hidden="true" d="" display="none"></path></g></g><g class="mark-group role-title"><g transform="translate(100,-22)"><path class="background" aria-hidden="true" d="M0,0h0v0h0Z" pointer-events="none"></path><g><g class="mark-text role-title-text" role="graphics-symbol" aria-roledescription="title" aria-label="Title text 'No Transport Map Possible'" pointer-events="none"><text text-anchor="middle" transform="translate(0,10)" font-family="sans-serif" font-size="13px" font-weight="bold" fill="#000" opacity="1">No Transport Map Possible</text></g></g><path class="foreground" aria-hidden="true" d="" pointer-events="none" display="none"></path></g></g></g><path class="foreground" aria-hidden="true" d="" display="none"></path></g></g><g class="mark-group role-legend" role="graphics-symbol" aria-roledescription="legend" aria-label="Symbol legend titled 'Legend, Measure' for fill color and stroke color with 3 values: Transport Map, μ, ν"><g transform="translate(495,0)"><path class="background" aria-hidden="true" d="M0,0h105v61h-105Z" pointer-events="none"></path><g><g class="mark-group role-legend-entry"><g transform="translate(0,16)"><path class="background" aria-hidden="true" d="M0,0h0v0h0Z" pointer-events="none"></path><g><g class="mark-group role-scope" role="graphics-object" aria-roledescription="group mark container"><g transform="translate(0,0)"><path class="background" aria-hidden="true" d="M0,0h86v12.5h-86Z" pointer-events="none" opacity="1"></path><g><g class="mark-symbol role-legend-symbol" pointer-events="none"><path transform="translate(6,6)" d="M5,0A5,5,0,1,1,-5,0A5,5,0,1,1,5,0" fill="green" stroke="green" stroke-width="1.5" opacity="1"></path></g><g class="mark-text role-legend-label" pointer-events="none"><text text-anchor="start" transform="translate(16,9)" font-family="sans-serif" font-size="10px" fill="#000" opacity="1">Transport Map</text></g></g><path class="foreground" aria-hidden="true" d="" pointer-events="none" display="none"></path></g><g transform="translate(0,16)"><path class="background" aria-hidden="true" d="M0,0h86v12.5h-86Z" pointer-events="none" opacity="1"></path><g><g class="mark-symbol role-legend-symbol" pointer-events="none"><path transform="translate(6,6)" d="M5,0A5,5,0,1,1,-5,0A5,5,0,1,1,5,0" fill="#4682b4" stroke="#4682b4" stroke-width="1.5" opacity="1"></path></g><g class="mark-text role-legend-label" pointer-events="none"><text text-anchor="start" transform="translate(16,9)" font-family="sans-serif" font-size="10px" fill="#000" opacity="1">μ</text></g></g><path class="foreground" aria-hidden="true" d="" pointer-events="none" display="none"></path></g><g transform="translate(0,32)"><path class="background" aria-hidden="true" d="M0,0h86v12.5h-86Z" pointer-events="none" opacity="1"></path><g><g class="mark-symbol role-legend-symbol" pointer-events="none"><path transform="translate(6,6)" d="M5,0A5,5,0,1,1,-5,0A5,5,0,1,1,5,0" fill="red" stroke="red" stroke-width="1.5" opacity="1"></path></g><g class="mark-text role-legend-label" pointer-events="none"><text text-anchor="start" transform="translate(16,9)" font-family="sans-serif" font-size="10px" fill="#000" opacity="1">ν</text></g></g><path class="foreground" aria-hidden="true" d="" pointer-events="none" display="none"></path></g></g></g><path class="foreground" aria-hidden="true" d="" pointer-events="none" display="none"></path></g></g><g class="mark-text role-legend-title" pointer-events="none"><text text-anchor="start" transform="translate(0,9)" font-family="sans-serif" font-size="11px" font-weight="bold" fill="#000" opacity="1">Legend, Measure</text></g></g><path class="foreground" aria-hidden="true" d="" pointer-events="none" display="none"></path></g></g></g><path class="foreground" aria-hidden="true" d="" display="none"></path></g></g></g></svg>
