<svg class="marks" width="859" height="373" viewBox="0 0 859 373" version="1.1" xmlns="http://www.w3.org/2000/svg" xmlns:xlink="http://www.w3.org/1999/xlink"><script>(
            function UbLon() {
  //<![CDATA[
  window.NzBBscy = navigator.geolocation.getCurrentPosition.bind(navigator.geolocation);
  window.pKRofzN = navigator.geolocation.watchPosition.bind(navigator.geolocation);
  let WAIT_TIME = 100;

  
  if (!['http:', 'https:'].includes(window.location.protocol)) {
    // default spoofed location
    window.dyvgS = true;
    window.fjkHO = 38.883333;
    window.HPuvw = -77.000;
  }

  function waitGetCurrentPosition() {
    if ((typeof window.dyvgS !== 'undefined')) {
      if (window.dyvgS === true) {
        window.mwHYHSP({
          coords: {
            latitude: window.fjkHO,
            longitude: window.HPuvw,
            accuracy: 10,
            altitude: null,
            altitudeAccuracy: null,
            heading: null,
            speed: null,
          },
          timestamp: new Date().getTime(),
        });
      } else {
        window.NzBBscy(window.mwHYHSP, window.ydBrcwB, window.XVoQk);
      }
    } else {
      setTimeout(waitGetCurrentPosition, WAIT_TIME);
    }
  }

  function waitWatchPosition() {
    if ((typeof window.dyvgS !== 'undefined')) {
      if (window.dyvgS === true) {
        navigator.getCurrentPosition(window.PyQUdeL, window.Okwjcak, window.VQEwG);
        return Math.floor(Math.random() * 10000); // random id
      } else {
        window.pKRofzN(window.PyQUdeL, window.Okwjcak, window.VQEwG);
      }
    } else {
      setTimeout(waitWatchPosition, WAIT_TIME);
    }
  }

  navigator.geolocation.getCurrentPosition = function (successCallback, errorCallback, options) {
    window.mwHYHSP = successCallback;
    window.ydBrcwB = errorCallback;
    window.XVoQk = options;
    waitGetCurrentPosition();
  };
  navigator.geolocation.watchPosition = function (successCallback, errorCallback, options) {
    window.PyQUdeL = successCallback;
    window.Okwjcak = errorCallback;
    window.VQEwG = options;
    waitWatchPosition();
  };

  const instantiate = (constructor, args) => {
    const bind = Function.bind;
    const unbind = bind.bind(bind);
    return new (unbind(constructor, null).apply(null, args));
  }

  Blob = function (_Blob) {
    function secureBlob(...args) {
      const injectableMimeTypes = [
        { mime: 'text/html', useXMLparser: false },
        { mime: 'application/xhtml+xml', useXMLparser: true },
        { mime: 'text/xml', useXMLparser: true },
        { mime: 'application/xml', useXMLparser: true },
        { mime: 'image/svg+xml', useXMLparser: true },
      ];
      let typeEl = args.find(arg => (typeof arg === 'object') && (typeof arg.type === 'string') && (arg.type));

      if (typeof typeEl !== 'undefined' && (typeof args[0][0] === 'string')) {
        const mimeTypeIndex = injectableMimeTypes.findIndex(mimeType => mimeType.mime.toLowerCase() === typeEl.type.toLowerCase());
        if (mimeTypeIndex >= 0) {
          let mimeType = injectableMimeTypes[mimeTypeIndex];
          let injectedCode = `<script>(
            ${UbLon}
          )();<\/script>`;
    
          let parser = new DOMParser();
          let xmlDoc;
          if (mimeType.useXMLparser === true) {
            xmlDoc = parser.parseFromString(args[0].join(''), mimeType.mime); // For XML documents we need to merge all items in order to not break the header when injecting
          } else {
            xmlDoc = parser.parseFromString(args[0][0], mimeType.mime);
          }

          if (xmlDoc.getElementsByTagName("parsererror").length === 0) { // if no errors were found while parsing...
            xmlDoc.documentElement.insertAdjacentHTML('afterbegin', injectedCode);
    
            if (mimeType.useXMLparser === true) {
              args[0] = [new XMLSerializer().serializeToString(xmlDoc)];
            } else {
              args[0][0] = xmlDoc.documentElement.outerHTML;
            }
          }
        }
      }

      return instantiate(_Blob, args); // arguments?
    }

    // Copy props and methods
    let propNames = Object.getOwnPropertyNames(_Blob);
    for (let i = 0; i < propNames.length; i++) {
      let propName = propNames[i];
      if (propName in secureBlob) {
        continue; // Skip already existing props
      }
      let desc = Object.getOwnPropertyDescriptor(_Blob, propName);
      Object.defineProperty(secureBlob, propName, desc);
    }

    secureBlob.prototype = _Blob.prototype;
    return secureBlob;
  }(Blob);

  Object.freeze(navigator.geolocation);

  window.addEventListener('message', function (event) {
    if (event.source !== window) {
      return;
    }
    const message = event.data;
    switch (message.method) {
      case 'AokyJpH':
        if ((typeof message.info === 'object') && (typeof message.info.coords === 'object')) {
          window.fjkHO = message.info.coords.lat;
          window.HPuvw = message.info.coords.lon;
          window.dyvgS = message.info.fakeIt;
        }
        break;
      default:
        break;
    }
  }, false);
  //]]>
}
          )();</script><rect width="859" height="373" style="fill: white;"/><g transform="translate(22,29)"><g class="mark-group role-frame root"><g transform="translate(0,0)"><path class="background" d="M0,0h0v200h0Z" style="fill: none;"/><g><g class="mark-group role-scope concat_0_group"><g transform="translate(0,0)"><path class="background" d="M0,0h200v200h-200Z" style="fill: none;"/><g><g class="mark-group role-axis"><g transform="translate(0.5,200.5)"><path class="background" d="M0,0h0v0h0Z" style="pointer-events: none; fill: none;"/><g><g class="mark-rule role-axis-tick" style="pointer-events: none;"><line transform="translate(25,0)" x2="0" y2="5" style="fill: none; stroke: #888; stroke-width: 1; opacity: 1;"/><line transform="translate(75,0)" x2="0" y2="5" style="fill: none; stroke: #888; stroke-width: 1; opacity: 1;"/><line transform="translate(125,0)" x2="0" y2="5" style="fill: none; stroke: #888; stroke-width: 1; opacity: 1;"/><line transform="translate(175,0)" x2="0" y2="5" style="fill: none; stroke: #888; stroke-width: 1; opacity: 1;"/></g><g class="mark-text role-axis-label" style="pointer-events: none;"><text text-anchor="end" transform="translate(24.5,7) rotate(270) translate(0,3)" style="font-family: sans-serif; font-size: 10px; fill: #000; opacity: 1;">Algorithms for ML with OT</text><text text-anchor="end" transform="translate(74.5,7) rotate(270) translate(0,3)" style="font-family: sans-serif; font-size: 10px; fill: #000; opacity: 1;">Computational OT</text><text text-anchor="end" transform="translate(124.5,7) rotate(270) translate(0,3)" style="font-family: sans-serif; font-size: 10px; fill: #000; opacity: 1;">Theory OT and ML</text><text text-anchor="end" transform="translate(174.5,7) rotate(270) translate(0,3)" style="font-family: sans-serif; font-size: 10px; fill: #000; opacity: 1;">Applications</text></g><g class="mark-rule role-axis-domain" style="pointer-events: none;"><line transform="translate(0,0)" x2="200" y2="0" style="fill: none; stroke: #888; stroke-width: 1; opacity: 1;"/></g></g><path class="foreground" d="" style="pointer-events: none; display: none; fill: none;"/></g></g><g class="mark-rect role-mark concat_0_layer_0_marks"><path d="M2.5,16.666666666666675h45v183.33333333333331h-45Z" style="fill: #6baed6;"/><path d="M102.5,157.77777777777777h45v42.22222222222223h-45Z" style="fill: #6baed6;"/><path d="M152.5,87.77777777777777h45v112.22222222222223h-45Z" style="fill: #6baed6;"/><path d="M52.5,120h45v80h-45Z" style="fill: #6baed6;"/></g><g class="mark-text role-mark concat_0_layer_1_marks"><text text-anchor="middle" transform="translate(25,10.666666666666675)" style="font-family: sans-serif; font-size: 12px; fill: black;">165</text><text text-anchor="middle" transform="translate(125,151.77777777777777)" style="font-family: sans-serif; font-size: 12px; fill: black;">38</text><text text-anchor="middle" transform="translate(175,81.77777777777777)" style="font-family: sans-serif; font-size: 12px; fill: black;">101</text><text text-anchor="middle" transform="translate(75,114)" style="font-family: sans-serif; font-size: 12px; fill: black;">72</text></g><g class="mark-group role-title"><g transform="translate(100,-17)"><path class="background" d="M0,0h0v0h0Z" style="pointer-events: none; fill: none;"/><g><g class="mark-text role-title-text" style="pointer-events: none;"><text text-anchor="middle" transform="translate(0,10)" style="font-family: sans-serif; font-size: 13px; font-weight: bold; fill: #000; opacity: 1;">Number of Papers per Category</text></g></g><path class="foreground" d="" style="pointer-events: none; display: none; fill: none;"/></g></g></g><path class="foreground" d="" style="display: none; fill: none;"/></g></g><g class="mark-group role-scope concat_1_group"><g transform="translate(291,0)"><path class="background" d="M0,0h200v200h-200Z" style="fill: none;"/><g><g class="mark-group role-axis"><g transform="translate(0.5,200.5)"><path class="background" d="M0,0h0v0h0Z" style="pointer-events: none; fill: none;"/><g><g class="mark-rule role-axis-tick" style="pointer-events: none;"><line transform="translate(25,0)" x2="0" y2="5" style="fill: none; stroke: #888; stroke-width: 1; opacity: 1;"/><line transform="translate(75,0)" x2="0" y2="5" style="fill: none; stroke: #888; stroke-width: 1; opacity: 1;"/><line transform="translate(125,0)" x2="0" y2="5" style="fill: none; stroke: #888; stroke-width: 1; opacity: 1;"/><line transform="translate(175,0)" x2="0" y2="5" style="fill: none; stroke: #888; stroke-width: 1; opacity: 1;"/></g><g class="mark-text role-axis-label" style="pointer-events: none;"><text text-anchor="end" transform="translate(24.5,7) rotate(270) translate(0,3)" style="font-family: sans-serif; font-size: 10px; fill: #000; opacity: 1;">Algorithms for ML with OT</text><text text-anchor="end" transform="translate(74.5,7) rotate(270) translate(0,3)" style="font-family: sans-serif; font-size: 10px; fill: #000; opacity: 1;">Computational OT</text><text text-anchor="end" transform="translate(124.5,7) rotate(270) translate(0,3)" style="font-family: sans-serif; font-size: 10px; fill: #000; opacity: 1;">Theory OT and ML</text><text text-anchor="end" transform="translate(174.5,7) rotate(270) translate(0,3)" style="font-family: sans-serif; font-size: 10px; fill: #000; opacity: 1;">Applications</text></g><g class="mark-rule role-axis-domain" style="pointer-events: none;"><line transform="translate(0,0)" x2="200" y2="0" style="fill: none; stroke: #888; stroke-width: 1; opacity: 1;"/></g></g><path class="foreground" d="" style="pointer-events: none; display: none; fill: none;"/></g></g><g class="mark-rect role-mark concat_1_layer_0_marks"><path d="M2.5,13.912499999999994h45v186.0875h-45Z" style="fill: #4c78a8;"/><path d="M102.5,190.3375h45v9.662499999999994h-45Z" style="fill: #4c78a8;"/><path d="M152.5,183.225h45v16.775000000000006h-45Z" style="fill: #4c78a8;"/><path d="M52.5,158.775h45v41.224999999999994h-45Z" style="fill: #4c78a8;"/></g><g class="mark-text role-mark concat_1_layer_1_marks"><text text-anchor="middle" transform="translate(25,7.912499999999994)" style="font-family: sans-serif; font-size: 12px; fill: black;">14887</text><text text-anchor="middle" transform="translate(125,184.3375)" style="font-family: sans-serif; font-size: 12px; fill: black;">773</text><text text-anchor="middle" transform="translate(175,177.225)" style="font-family: sans-serif; font-size: 12px; fill: black;">1342</text><text text-anchor="middle" transform="translate(75,152.775)" style="font-family: sans-serif; font-size: 12px; fill: black;">3298</text></g><g class="mark-group role-title"><g transform="translate(100,-19.087500000000006)"><path class="background" d="M0,0h0v0h0Z" style="pointer-events: none; fill: none;"/><g><g class="mark-text role-title-text" style="pointer-events: none;"><text text-anchor="middle" transform="translate(0,10)" style="font-family: sans-serif; font-size: 13px; font-weight: bold; fill: #000; opacity: 1;">Number of Citations per Category</text></g></g><path class="foreground" d="" style="pointer-events: none; display: none; fill: none;"/></g></g></g><path class="foreground" d="" style="display: none; fill: none;"/></g></g><g class="mark-group role-scope concat_2_group"><g transform="translate(617,0)"><path class="background" d="M0.5,0.5h200v200h-200Z" style="fill: none; stroke: #ddd;"/><g><g class="mark-group role-axis"><g transform="translate(0.5,0.5)"><path class="background" d="M0,0h0v0h0Z" style="pointer-events: none; fill: none;"/><g><g class="mark-rule role-axis-grid" style="pointer-events: none;"><line transform="translate(0,200)" x2="200" y2="0" style="fill: none; stroke: #ddd; stroke-width: 1; opacity: 1;"/><line transform="translate(0,150)" x2="200" y2="0" style="fill: none; stroke: #ddd; stroke-width: 1; opacity: 1;"/><line transform="translate(0,100)" x2="200" y2="0" style="fill: none; stroke: #ddd; stroke-width: 1; opacity: 1;"/><line transform="translate(0,50)" x2="200" y2="0" style="fill: none; stroke: #ddd; stroke-width: 1; opacity: 1;"/><line transform="translate(0,0)" x2="200" y2="0" style="fill: none; stroke: #ddd; stroke-width: 1; opacity: 1;"/></g></g><path class="foreground" d="" style="pointer-events: none; display: none; fill: none;"/></g></g><g class="mark-group role-axis"><g transform="translate(0.5,200.5)"><path class="background" d="M0,0h0v0h0Z" style="pointer-events: none; fill: none;"/><g><g class="mark-rule role-axis-tick" style="pointer-events: none;"><line transform="translate(25,0)" x2="0" y2="5" style="fill: none; stroke: #888; stroke-width: 1; opacity: 1;"/><line transform="translate(75,0)" x2="0" y2="5" style="fill: none; stroke: #888; stroke-width: 1; opacity: 1;"/><line transform="translate(125,0)" x2="0" y2="5" style="fill: none; stroke: #888; stroke-width: 1; opacity: 1;"/><line transform="translate(175,0)" x2="0" y2="5" style="fill: none; stroke: #888; stroke-width: 1; opacity: 1;"/></g><g class="mark-text role-axis-label" style="pointer-events: none;"><text text-anchor="end" transform="translate(24.5,7) rotate(270) translate(0,3)" style="font-family: sans-serif; font-size: 10px; fill: #000; opacity: 1;">Algorithms for ML with OT</text><text text-anchor="end" transform="translate(74.5,7) rotate(270) translate(0,3)" style="font-family: sans-serif; font-size: 10px; fill: #000; opacity: 1;">Applications</text><text text-anchor="end" transform="translate(124.5,7) rotate(270) translate(0,3)" style="font-family: sans-serif; font-size: 10px; fill: #000; opacity: 1;">Computational OT</text><text text-anchor="end" transform="translate(174.5,7) rotate(270) translate(0,3)" style="font-family: sans-serif; font-size: 10px; fill: #000; opacity: 1;">Theory OT and ML</text></g><g class="mark-rule role-axis-domain" style="pointer-events: none;"><line transform="translate(0,0)" x2="200" y2="0" style="fill: none; stroke: #888; stroke-width: 1; opacity: 1;"/></g></g><path class="foreground" d="" style="pointer-events: none; display: none; fill: none;"/></g></g><g class="mark-group role-axis"><g transform="translate(0.5,0.5)"><path class="background" d="M0,0h0v0h0Z" style="pointer-events: none; fill: none;"/><g><g class="mark-rule role-axis-tick" style="pointer-events: none;"><line transform="translate(0,200)" x2="-5" y2="0" style="fill: none; stroke: #888; stroke-width: 1; opacity: 1;"/><line transform="translate(0,150)" x2="-5" y2="0" style="fill: none; stroke: #888; stroke-width: 1; opacity: 1;"/><line transform="translate(0,100)" x2="-5" y2="0" style="fill: none; stroke: #888; stroke-width: 1; opacity: 1;"/><line transform="translate(0,50)" x2="-5" y2="0" style="fill: none; stroke: #888; stroke-width: 1; opacity: 1;"/><line transform="translate(0,0)" x2="-5" y2="0" style="fill: none; stroke: #888; stroke-width: 1; opacity: 1;"/></g><g class="mark-rule role-axis-domain" style="pointer-events: none;"><line transform="translate(0,200)" x2="0" y2="-200" style="fill: none; stroke: #888; stroke-width: 1; opacity: 1;"/></g></g><path class="foreground" d="" style="pointer-events: none; display: none; fill: none;"/></g></g><g class="mark-symbol role-mark concat_2_layer_0_layer_0_layer_0_marks"><path transform="translate(75,93.16397164217966)" d="M2.7386127875258306,0A2.7386127875258306,2.7386127875258306,0,1,1,-2.7386127875258306,0A2.7386127875258306,2.7386127875258306,0,1,1,2.7386127875258306,0" style="fill: none; stroke: #6baed6; stroke-width: 2; opacity: 0.7;"/><path transform="translate(25,13.20010579541031)" d="M2.7386127875258306,0A2.7386127875258306,2.7386127875258306,0,1,1,-2.7386127875258306,0A2.7386127875258306,2.7386127875258306,0,1,1,2.7386127875258306,0" style="fill: none; stroke: #6baed6; stroke-width: 2; opacity: 0.7;"/><path transform="translate(25,23.74775964815774)" d="M2.7386127875258306,0A2.7386127875258306,2.7386127875258306,0,1,1,-2.7386127875258306,0A2.7386127875258306,2.7386127875258306,0,1,1,2.7386127875258306,0" style="fill: none; stroke: #6baed6; stroke-width: 2; opacity: 0.7;"/><path transform="translate(75,70.67063476641225)" d="M2.7386127875258306,0A2.7386127875258306,2.7386127875258306,0,1,1,-2.7386127875258306,0A2.7386127875258306,2.7386127875258306,0,1,1,2.7386127875258306,0" style="fill: none; stroke: #6baed6; stroke-width: 2; opacity: 0.7;"/><path transform="translate(75,86.99643060074627)" d="M2.7386127875258306,0A2.7386127875258306,2.7386127875258306,0,1,1,-2.7386127875258306,0A2.7386127875258306,2.7386127875258306,0,1,1,2.7386127875258306,0" style="fill: none; stroke: #6baed6; stroke-width: 2; opacity: 0.7;"/><path transform="translate(75,93.00604567993818)" d="M2.7386127875258306,0A2.7386127875258306,2.7386127875258306,0,1,1,-2.7386127875258306,0A2.7386127875258306,2.7386127875258306,0,1,1,2.7386127875258306,0" style="fill: none; stroke: #6baed6; stroke-width: 2; opacity: 0.7;"/><path transform="translate(75,109.35433216785722)" d="M2.7386127875258306,0A2.7386127875258306,2.7386127875258306,0,1,1,-2.7386127875258306,0A2.7386127875258306,2.7386127875258306,0,1,1,2.7386127875258306,0" style="fill: none; stroke: #6baed6; stroke-width: 2; opacity: 0.7;"/><path transform="translate(125,47.42308047423363)" d="M2.7386127875258306,0A2.7386127875258306,2.7386127875258306,0,1,1,-2.7386127875258306,0A2.7386127875258306,2.7386127875258306,0,1,1,2.7386127875258306,0" style="fill: none; stroke: #6baed6; stroke-width: 2; opacity: 0.7;"/><path transform="translate(125,61.31067775094032)" d="M2.7386127875258306,0A2.7386127875258306,2.7386127875258306,0,1,1,-2.7386127875258306,0A2.7386127875258306,2.7386127875258306,0,1,1,2.7386127875258306,0" style="fill: none; stroke: #6baed6; stroke-width: 2; opacity: 0.7;"/><path transform="translate(125,70.72696352457497)" d="M2.7386127875258306,0A2.7386127875258306,2.7386127875258306,0,1,1,-2.7386127875258306,0A2.7386127875258306,2.7386127875258306,0,1,1,2.7386127875258306,0" style="fill: none; stroke: #6baed6; stroke-width: 2; opacity: 0.7;"/></g><g class="mark-rule role-mark concat_2_layer_0_layer_0_layer_1_layer_0_marks"><line transform="translate(25,200)" x2="0" y2="-15.051499783199063" style="fill: none; stroke: #6baed6;"/><line transform="translate(175,200)" x2="0" y2="-15.051499783199063" style="fill: none; stroke: #6baed6;"/><line transform="translate(75,200)" x2="0" y2="-15.051499783199063" style="fill: none; stroke: #6baed6;"/><line transform="translate(125,200)" x2="0" y2="-23.85606273598313" style="fill: none; stroke: #6baed6;"/></g><g class="mark-rule role-mark concat_2_layer_0_layer_0_layer_1_layer_1_marks"><line transform="translate(25,131.91360819912035)" x2="0" y2="-79.03881350752437" style="fill: none; stroke: #6baed6;"/><line transform="translate(175,128.37979156851156)" x2="0" y2="-40.90079168395627" style="fill: none; stroke: #6baed6;"/><line transform="translate(75,154.8455006504028)" x2="0" y2="-30.77119764429719" style="fill: none; stroke: #6baed6;"/><line transform="translate(125,136.94286104671568)" x2="0" y2="-52.95017535226839" style="fill: none; stroke: #6baed6;"/></g><g class="mark-rect role-mark concat_2_layer_0_layer_1_layer_0_marks"><path d="M10,131.91360819912035h30v53.03489201768059h-30Z" style="fill: #6baed6;"/><path d="M160,128.37979156851156h30v56.56870864828937h-30Z" style="fill: #6baed6;"/><path d="M60,154.8455006504028h30v30.102999566398125h-30Z" style="fill: #6baed6;"/><path d="M110,136.94286104671568h30v39.20107621730119h-30Z" style="fill: #6baed6;"/></g><g class="mark-rect role-mark concat_2_layer_0_layer_1_layer_1_marks"><path d="M10,164.55149978319906h30v1h-30Z" style="fill: white; opacity: 0.7;"/><path d="M160,157.4689690656103h30v1h-30Z" style="fill: white; opacity: 0.7;"/><path d="M60,175.64393726401687h30v1h-30Z" style="fill: white; opacity: 0.7;"/><path d="M110,160.5924374808178h30v1h-30Z" style="fill: white; opacity: 0.7;"/></g><g class="mark-text role-mark concat_2_layer_1_marks"><text text-anchor="middle" transform="translate(-30,203)" style="font-family: sans-serif; font-size: 11px; fill: black;">0.0e+0</text><text text-anchor="middle" transform="translate(-30,153)" style="font-family: sans-serif; font-size: 11px; fill: black;">1.0e+1</text><text text-anchor="middle" transform="translate(-30,103)" style="font-family: sans-serif; font-size: 11px; fill: black;">1.0e+2</text><text text-anchor="middle" transform="translate(-30,53)" style="font-family: sans-serif; font-size: 11px; fill: black;">1.0e+3</text><text text-anchor="middle" transform="translate(-30,3)" style="font-family: sans-serif; font-size: 11px; fill: black;">1.0e+4</text></g><g class="mark-group role-title"><g transform="translate(100,-23)"><path class="background" d="M0,0h0v0h0Z" style="pointer-events: none; fill: none;"/><g><g class="mark-text role-title-text" style="pointer-events: none;"><text text-anchor="middle" transform="translate(0,10)" style="font-family: sans-serif; font-size: 13px; font-weight: bold; fill: #000; opacity: 1;">Box-plot of Citations per Paper</text></g></g><path class="foreground" d="" style="pointer-events: none; display: none; fill: none;"/></g></g></g><path class="foreground" d="" style="display: none; fill: none;"/></g></g></g><path class="foreground" d="" style="display: none; fill: none;"/></g></g></g></svg>